<svg width="13" height="12" viewBox="0 0 13 12" fill="none" xmlns="http://www.w3.org/2000/svg">
<path d="M9.625 11.8334H3.375C2.68464 11.8334 2.125 11.3111 2.125 10.6667V3.08341H0.875V1.91675H3.375V1.33341C3.375 0.689083 3.93464 0.166748 4.625 0.166748H8.375C9.06536 0.166748 9.625 0.689083 9.625 1.33341V1.91675H12.125V3.08341H10.875V10.6667C10.875 11.3111 10.3154 11.8334 9.625 11.8334ZM3.375 3.08341V10.6667H9.625V3.08341H3.375ZM4.625 1.33341V1.91675H8.375V1.33341H4.625ZM8.375 9.50008H7.125V4.25008H8.375V9.50008ZM5.875 9.50008H4.625V4.25008H5.875V9.50008Z" fill="#393C6A"/>
</svg>
