<svg width="327" height="199" viewBox="0 0 327 199" fill="none" xmlns="http://www.w3.org/2000/svg">
<g clip-path="url(#clip0_599_2096)">
<path d="M85.8517 62.6684C96.4217 62.6684 104.99 54.0542 104.99 43.4281C104.99 32.8019 96.4217 24.1877 85.8517 24.1877C75.2816 24.1877 66.7129 32.8019 66.7129 43.4281C66.7129 54.0542 75.2816 62.6684 85.8517 62.6684Z" fill="#F79E7C"/>
<path d="M144.466 105.111H52.5933C52.4783 105.113 52.3634 105.103 52.25 105.081L95.7017 22.5039C95.9668 21.9896 96.3517 21.5618 96.8169 21.2641C97.2822 20.9664 97.8111 20.8096 98.3496 20.8096C98.8882 20.8096 99.4171 20.9664 99.8823 21.2641C100.348 21.5618 100.732 21.9896 100.998 22.5039L130.159 77.9198L131.556 80.5715L144.466 105.111Z" fill="#3F3D56"/>
<path opacity="0.2" d="M144.465 105.111H113.098L128.496 80.5712L129.604 78.8035L130.158 77.9199L131.555 80.5712L144.465 105.111Z" fill="black"/>
<path d="M195.621 105.111H116.158L131.556 80.5715L132.665 78.8037L152.73 46.8237C154.045 44.7277 157.21 44.5972 158.757 46.4283C158.861 46.5532 158.957 46.6853 159.046 46.8237L195.621 105.111Z" fill="#3F3D56"/>
<path d="M218.946 91.5263C222.063 91.5263 224.589 88.7542 224.589 85.3347C224.589 81.9152 222.063 79.1431 218.946 79.1431C215.829 79.1431 213.303 81.9152 213.303 85.3347C213.303 88.7542 215.829 91.5263 218.946 91.5263Z" fill="#F69E7C"/>
<path d="M219.49 103.984H218.334L218.861 84.4021L219.49 103.984Z" fill="#3F3D56"/>
<path d="M218.961 88.1135L220.202 86.2297L218.944 88.5798L218.809 88.3188L218.961 88.1135Z" fill="#3F3D56"/>
<path d="M218.827 90.0155L217.586 88.1321L218.844 90.4818L218.98 90.2207L218.827 90.0155Z" fill="#3F3D56"/>
<path d="M270.712 91.5263C273.828 91.5263 276.355 88.7542 276.355 85.3347C276.355 81.9152 273.828 79.1431 270.712 79.1431C267.595 79.1431 265.068 81.9152 265.068 85.3347C265.068 88.7542 267.595 91.5263 270.712 91.5263Z" fill="#F69E7C"/>
<path d="M271.255 103.984H270.1L270.627 84.4021L271.255 103.984Z" fill="#3F3D56"/>
<path d="M270.729 88.1135L271.97 86.2297L270.712 88.5798L270.576 88.3188L270.729 88.1135Z" fill="#3F3D56"/>
<path d="M270.593 90.0155L269.352 88.1321L270.61 90.4818L270.745 90.2207L270.593 90.0155Z" fill="#3F3D56"/>
<path d="M235.294 85.5849C239.897 85.5849 243.628 81.4908 243.628 76.4404C243.628 71.39 239.897 67.2959 235.294 67.2959C230.691 67.2959 226.959 71.39 226.959 76.4404C226.959 81.4908 230.691 85.5849 235.294 85.5849Z" fill="#F69E7C"/>
<path d="M236.096 103.984H234.389L235.167 75.063L236.096 103.984Z" fill="#3F3D56"/>
<path d="M235.318 80.5441L237.15 77.7625L235.293 81.233L235.092 80.8472L235.318 80.5441Z" fill="#3F3D56"/>
<path d="M235.118 83.3536L233.285 80.572L235.143 84.0422L235.344 83.6568L235.118 83.3536Z" fill="#3F3D56"/>
<path d="M255.618 85.5849C260.221 85.5849 263.953 81.4908 263.953 76.4404C263.953 71.39 260.221 67.2959 255.618 67.2959C251.015 67.2959 247.283 71.39 247.283 76.4404C247.283 81.4908 251.015 85.5849 255.618 85.5849Z" fill="#F69E7C"/>
<path d="M256.422 103.984H254.715L255.493 75.063L256.422 103.984Z" fill="#3F3D56"/>
<path d="M255.644 80.5441L257.477 77.7625L255.619 81.233L255.418 80.8472L255.644 80.5441Z" fill="#3F3D56"/>
<path d="M255.442 83.3536L253.609 80.572L255.467 84.0422L255.668 83.6568L255.442 83.3536Z" fill="#3F3D56"/>
<path d="M202.899 85.5849C207.502 85.5849 211.234 81.4908 211.234 76.4404C211.234 71.39 207.502 67.2959 202.899 67.2959C198.296 67.2959 194.564 71.39 194.564 76.4404C194.564 81.4908 198.296 85.5849 202.899 85.5849Z" fill="#F69E7C"/>
<path d="M203.703 103.984H201.996L202.775 75.063L203.703 103.984Z" fill="#3F3D56"/>
<path d="M202.925 80.5441L204.757 77.7625L202.9 81.233L202.699 80.8472L202.925 80.5441Z" fill="#3F3D56"/>
<path d="M202.723 83.3536L200.891 80.572L202.749 84.0422L202.949 83.6568L202.723 83.3536Z" fill="#3F3D56"/>
<path d="M301.506 199H29.5079C26.0809 199 22.6875 198.26 19.5215 196.821C16.3554 195.382 13.4786 193.273 11.0554 190.614C8.63217 187.956 6.70997 184.799 5.39853 181.326C4.0871 177.852 3.41211 174.129 3.41211 170.369C3.41211 166.609 4.0871 162.886 5.39853 159.412C6.70997 155.938 8.63217 152.782 11.0554 150.123C13.4786 147.465 16.3554 145.356 19.5215 143.917C22.6875 142.478 26.0809 141.737 29.5079 141.737H300.904C303.566 141.737 306.119 140.577 308.001 138.512C309.883 136.447 310.941 133.646 310.941 130.725C310.941 127.805 309.883 125.004 308.001 122.939C306.119 120.873 303.566 119.713 300.904 119.713H20.4747V102.094H300.904C307.825 102.094 314.462 105.111 319.356 110.48C324.25 115.849 327 123.132 327 130.725C327 138.319 324.25 145.601 319.356 150.971C314.462 156.34 307.825 159.357 300.904 159.357H29.5079C26.8459 159.357 24.293 160.517 22.4108 162.582C20.5285 164.647 19.471 167.448 19.471 170.369C19.471 173.289 20.5285 176.09 22.4108 178.155C24.293 180.221 26.8459 181.381 29.5079 181.381H301.506V199Z" fill="#E6E6E6"/>
<path d="M42.9574 110.463H30.5117V111.344H42.9574V110.463Z" fill="white"/>
<path d="M78.2875 110.463H65.8418V111.344H78.2875V110.463Z" fill="white"/>
<path d="M113.618 110.463H101.172V111.344H113.618V110.463Z" fill="white"/>
<path d="M148.946 110.463H136.5V111.344H148.946V110.463Z" fill="white"/>
<path d="M184.276 110.463H171.83V111.344H184.276V110.463Z" fill="white"/>
<path d="M219.606 110.463H207.16V111.344H219.606V110.463Z" fill="white"/>
<path d="M254.936 110.463H242.49V111.344H254.936V110.463Z" fill="white"/>
<path d="M290.266 110.463H277.82V111.344H290.266V110.463Z" fill="white"/>
<path d="M42.9574 150.106H30.5117V150.987H42.9574V150.106Z" fill="white"/>
<path d="M78.2875 150.106H65.8418V150.987H78.2875V150.106Z" fill="white"/>
<path d="M113.618 150.106H101.172V150.987H113.618V150.106Z" fill="white"/>
<path d="M148.946 150.106H136.5V150.987H148.946V150.106Z" fill="white"/>
<path d="M184.276 150.106H171.83V150.987H184.276V150.106Z" fill="white"/>
<path d="M219.606 150.106H207.16V150.987H219.606V150.106Z" fill="white"/>
<path d="M254.936 150.106H242.49V150.987H254.936V150.106Z" fill="white"/>
<path d="M290.266 150.106H277.82V150.987H290.266V150.106Z" fill="white"/>
<path d="M42.9574 189.75H30.5117V190.631H42.9574V189.75Z" fill="white"/>
<path d="M78.2875 189.75H65.8418V190.631H78.2875V189.75Z" fill="white"/>
<path d="M113.618 189.75H101.172V190.631H113.618V189.75Z" fill="white"/>
<path d="M148.946 189.75H136.5V190.631H148.946V189.75Z" fill="white"/>
<path d="M184.276 189.75H171.83V190.631H184.276V189.75Z" fill="white"/>
<path d="M219.606 189.75H207.16V190.631H219.606V189.75Z" fill="white"/>
<path d="M254.936 189.75H242.49V190.631H254.936V189.75Z" fill="white"/>
<path d="M290.266 189.75H277.82V190.631H290.266V189.75Z" fill="white"/>
<path d="M218.356 34.9622C219.664 34.9608 220.95 35.3255 222.093 36.0216H214.629C215.769 35.3257 217.052 34.961 218.356 34.9622Z" fill="#E6E6E6"/>
<path d="M203.873 33.9026C206.057 33.8998 208.188 34.6401 209.973 36.0215H197.781C199.564 34.6417 201.692 33.9015 203.873 33.9026Z" fill="#E6E6E6"/>
<path d="M121.417 22.5355C121.683 17.987 123.61 13.6777 126.855 10.376C130.099 7.07418 134.451 4.99453 139.133 4.50778C143.815 4.02103 148.524 5.15882 152.419 7.71831C156.315 10.2778 159.145 14.0926 160.403 18.4826C160.644 18.4742 160.885 18.4648 161.127 18.4648C165.42 18.4656 169.598 19.811 173.034 22.2999C176.471 24.7887 178.983 28.2872 180.193 32.2718C183.038 31.0626 186.216 30.8003 189.232 31.5259C192.247 32.2515 194.928 33.924 196.856 36.2816H134.873C133.065 36.2866 131.274 35.9385 129.608 35.2582C127.942 34.5779 126.435 33.5794 125.178 32.3224C123.92 31.0655 122.938 29.5759 122.289 27.943C121.64 26.31 121.339 24.5673 121.403 22.819C121.407 22.7246 121.412 22.6301 121.417 22.5355Z" fill="#E6E6E6"/>
<path d="M222.862 50.8193C221.554 50.818 220.268 51.1826 219.125 51.8788H226.589C225.449 51.1829 224.166 50.8182 222.862 50.8193Z" fill="#E6E6E6"/>
<path d="M237.346 49.76C235.162 49.7572 233.031 50.4975 231.246 51.8789H243.438C241.655 50.4991 239.527 49.7589 237.346 49.76Z" fill="#E6E6E6"/>
<path d="M319.322 37.4539C319.056 32.7486 317.129 28.2907 313.884 24.8751C310.64 21.4594 306.288 19.3081 301.606 18.8045C296.924 18.301 292.215 19.478 288.319 22.1258C284.424 24.7735 281.594 28.7199 280.336 33.2612C280.095 33.2526 279.854 33.2429 279.611 33.2429C275.318 33.2437 271.141 34.6355 267.704 37.2102C264.268 39.7848 261.756 43.4039 260.546 47.526C257.701 46.2751 254.522 46.0037 251.507 46.7543C248.492 47.5049 245.81 49.2351 243.883 51.674H305.866C307.674 51.6792 309.465 51.3191 311.131 50.6153C312.797 49.9115 314.304 48.8786 315.561 47.5783C316.819 46.278 317.801 44.7371 318.45 43.0478C319.099 41.3586 319.4 39.5557 319.336 37.7472C319.332 37.6496 319.327 37.5518 319.322 37.4539Z" fill="#E6E6E6"/>
<path d="M269.096 141.267L265.542 141.67C265.381 143.715 265.699 145.772 266.466 147.636L265.399 158.758L265.415 158.758C265.31 158.961 265.256 159.192 265.26 159.427C265.264 159.662 265.324 159.891 265.436 160.09C265.547 160.289 265.704 160.45 265.891 160.556C266.078 160.662 266.288 160.709 266.497 160.692C266.706 160.675 266.907 160.595 267.078 160.459C267.249 160.324 267.385 160.139 267.469 159.924C267.553 159.709 267.584 159.472 267.557 159.239C267.53 159.007 267.447 158.786 267.317 158.602L269.687 148.679L269.096 141.267Z" fill="#A0616A"/>
<path d="M258.013 189.839L256.548 189.55L256.404 184.482L258.987 183.363L258.013 189.839Z" fill="#A0616A"/>
<path d="M257.915 191.863L253.084 190.955L253.095 190.888C253.18 190.344 253.461 189.86 253.874 189.541C254.288 189.223 254.8 189.096 255.299 189.19L255.299 189.19L256.296 188.625L257.827 189.665L258.249 189.745L257.915 191.863Z" fill="#2F2E41"/>
<path d="M273.376 186.526L272.028 187.411L268.211 182.241L270.201 180.934L273.376 186.526Z" fill="#A0616A"/>
<path d="M274.482 187.964L270.362 190.649L270.33 190.593C270.07 190.14 269.99 189.594 270.107 189.077C270.224 188.56 270.529 188.114 270.954 187.837L270.954 187.837L271.358 186.737L273.111 186.431L273.471 186.197L274.482 187.964Z" fill="#2F2E41"/>
<path d="M258.542 158.91L257.629 162.737C257.629 162.737 257.379 164.323 257.508 164.465C257.729 164.809 257.84 165.223 257.825 165.644C257.767 166.032 257.176 165.874 257.471 166.451C257.767 167.029 256.853 175.819 256.853 175.819L256.035 186.627L258.956 187.006C259.376 186.735 259.437 186.427 259.19 186.087C259.19 186.087 259.789 185.326 259.458 185.029C259.128 184.733 259.725 184.609 259.757 183.852L261.643 176.43L262.267 174.771L262.104 173.905L262.578 172.912L262.806 170.305L263.424 177.155L269.197 184.464L272.04 182.897L272.206 182.497C272.275 182.332 272.287 182.145 272.239 181.972C272.192 181.798 272.089 181.65 271.949 181.554L270.985 180.565C271.067 180.158 269.755 179.137 269.755 179.137L267.559 174.578L268.923 161.811C268.923 161.811 270.985 158.78 268.253 156.038C267.134 154.914 258.542 158.91 258.542 158.91Z" fill="#2F2E41"/>
<path d="M267.274 153.828C267.759 153.034 268.922 154.174 268.534 152.749C268.147 151.323 267.165 151.058 268.044 149.694L269.31 142.893C269.386 141.27 268.886 139.678 267.916 138.454L266.093 136.153L265.819 135.337L262.716 135.195L262.458 136.193C261.531 137.465 260.014 139.1 260.059 141.503C260.146 146.129 259.492 152.284 257.881 160.291C257.881 160.291 261.485 157.188 262.618 158.532C263.751 159.877 267.164 159.511 268.017 158.575C268.564 157.927 268.963 157.145 269.181 156.294C269.181 156.294 266.79 154.622 267.274 153.828Z" fill="#F69E7C"/>
<path d="M269.386 159.216L262.216 157.02L257.512 159.481C259.618 155.222 260.9 148.132 260.495 142.108C260.398 140.828 260.629 139.543 261.163 138.398C261.81 137.045 262.822 136.09 264.307 136.194L266.224 136.004L267.444 136.762C269.209 138.771 269.903 141.768 269.628 144.53C269.325 147.577 268.948 151.28 268.872 151.61C268.827 151.805 268.968 152.146 269.118 152.507C269.37 153.116 269.684 153.875 269.248 154.348C269.116 154.475 269.01 154.631 268.936 154.805C268.862 154.979 268.823 155.167 268.82 155.359C268.831 155.529 268.874 155.695 268.947 155.846C269.02 155.998 269.121 156.131 269.244 156.237C269.801 156.76 269.414 159.054 269.397 159.151L269.386 159.216Z" fill="#2F2E41"/>
<path d="M265.628 143.948L262.057 143.29C261.412 145.211 261.233 147.285 261.538 149.306L257.843 159.7L257.859 159.704C257.708 159.869 257.6 160.076 257.548 160.303C257.495 160.53 257.5 160.769 257.561 160.993C257.623 161.217 257.738 161.419 257.896 161.576C258.053 161.734 258.247 161.841 258.455 161.886C258.664 161.931 258.879 161.913 259.079 161.833C259.279 161.753 259.455 161.614 259.589 161.432C259.723 161.25 259.809 161.031 259.838 160.799C259.867 160.567 259.839 160.33 259.755 160.115L264.438 151.258L265.628 143.948Z" fill="#A0616A"/>
<path d="M261.365 146.124L265.664 145.167L266.366 141.832C266.366 141.145 266.11 140.486 265.655 140.001C265.201 139.515 264.584 139.243 263.942 139.243C263.299 139.243 262.683 139.515 262.228 140.001C261.774 140.486 261.518 141.145 261.518 141.832C261.084 143.688 261.16 144.225 261.365 146.124Z" fill="#F69E7C"/>
<path d="M264.152 134.79C265.986 134.79 267.473 133.159 267.473 131.147C267.473 129.135 265.986 127.504 264.152 127.504C262.319 127.504 260.832 129.135 260.832 131.147C260.832 133.159 262.319 134.79 264.152 134.79Z" fill="#A0616A"/>
<path d="M267.991 128.316C267.741 127.818 266.747 128.455 266.438 127.999C266.194 127.602 265.883 127.262 265.522 126.996C265.223 126.803 264.885 126.699 264.539 126.695C264.193 126.69 263.852 126.786 263.55 126.972C263.328 127.148 263.09 127.298 262.841 127.42C262.581 127.512 262.242 127.442 262.13 127.166C262.209 127.407 262.289 127.649 262.368 127.89C262.158 127.998 261.918 128.015 261.698 127.937C261.477 127.858 261.291 127.691 261.176 127.467C261.162 127.717 261.148 127.967 261.134 128.216C261.115 128.148 261.075 128.089 261.021 128.051C260.967 128.012 260.902 127.997 260.839 128.007C260.759 128.034 260.687 128.083 260.629 128.15C260.571 128.217 260.53 128.3 260.51 128.39C260.307 129.054 260.792 129.829 261.415 129.94C261.8 130.009 262.187 129.871 262.573 129.813C262.96 129.755 263.407 129.804 263.651 130.142C263.891 130.474 263.845 130.948 263.858 131.373C263.872 131.799 264.04 132.31 264.419 132.367C264.68 132.406 264.929 132.203 265.191 132.221C265.565 132.245 265.805 132.724 265.765 133.139C265.725 133.554 265.49 133.909 265.264 134.242C265.638 134.275 266.012 134.308 266.386 134.341L266.241 134.385C267.156 134.335 267.862 133.348 267.971 132.336C268.081 131.324 268.438 129.205 267.991 128.316Z" fill="#2F2E41"/>
<path d="M216.517 157.424H203.083V153.674H208.073C208.378 153.674 208.671 153.54 208.887 153.302C209.103 153.063 209.224 152.74 209.224 152.402V148.34C209.224 148.003 209.103 147.679 208.887 147.441C208.671 147.202 208.378 147.068 208.073 147.068H203.083V145.796C203.083 145.346 202.921 144.915 202.634 144.597C202.346 144.279 201.955 144.1 201.548 144.1C201.141 144.1 200.75 144.279 200.462 144.597C200.174 144.915 200.013 145.346 200.013 145.796V147.068H181.572C181.333 147.068 181.101 147.15 180.906 147.302L178.31 149.333C178.16 149.451 178.037 149.606 177.953 149.787C177.868 149.968 177.824 150.168 177.824 150.371C177.824 150.575 177.868 150.775 177.953 150.956C178.037 151.136 178.16 151.292 178.31 151.41L180.906 153.441C181.101 153.593 181.333 153.674 181.572 153.674H200.013V157.424H186.579C186.273 157.424 185.981 157.558 185.765 157.797C185.549 158.035 185.427 158.359 185.427 158.696V162.758C185.427 163.095 185.549 163.419 185.765 163.658C185.981 163.896 186.273 164.03 186.579 164.03H200.013V178.024C200.013 178.474 200.174 178.905 200.462 179.223C200.75 179.541 201.141 179.72 201.548 179.72C201.955 179.72 202.346 179.541 202.634 179.223C202.921 178.905 203.083 178.474 203.083 178.024V164.03H216.517C216.822 164.03 217.115 163.896 217.331 163.658C217.547 163.419 217.668 163.095 217.668 162.758V158.696C217.668 158.529 217.639 158.364 217.581 158.209C217.523 158.055 217.438 157.915 217.331 157.797C217.224 157.678 217.097 157.585 216.958 157.521C216.818 157.457 216.668 157.424 216.517 157.424Z" fill="#3F3D56"/>
<path d="M194.115 150.576H184.406C184.226 150.576 184.053 150.491 183.926 150.339C183.798 150.187 183.727 149.982 183.727 149.767C183.727 149.552 183.798 149.346 183.926 149.194C184.053 149.043 184.226 148.957 184.406 148.957H194.115C194.295 148.957 194.468 149.043 194.595 149.194C194.723 149.346 194.794 149.552 194.794 149.767C194.794 149.982 194.723 150.187 194.595 150.339C194.468 150.491 194.295 150.576 194.115 150.576Z" fill="#F69E7C"/>
<path d="M205.919 161.101H196.211C196.031 161.101 195.858 161.037 195.73 160.923C195.603 160.809 195.531 160.654 195.531 160.493C195.531 160.332 195.603 160.178 195.73 160.064C195.858 159.95 196.031 159.886 196.211 159.886H205.919C206.1 159.886 206.273 159.95 206.4 160.064C206.527 160.178 206.599 160.332 206.599 160.493C206.599 160.654 206.527 160.809 206.4 160.923C206.273 161.037 206.1 161.101 205.919 161.101Z" fill="white"/>
<path d="M36.0899 86.7778C36.0899 91.4071 28.9134 102.194 26.8162 105.248C26.7529 105.34 26.668 105.415 26.5688 105.468C26.4697 105.52 26.3592 105.547 26.2471 105.547C26.135 105.547 26.0246 105.52 25.9254 105.468C25.8262 105.415 25.7413 105.34 25.6781 105.248C23.5808 102.194 16.4043 91.4071 16.4043 86.7778C16.4043 84.1744 17.4413 81.6775 19.2872 79.8366C21.1331 77.9957 23.6366 76.9614 26.2471 76.9614C28.8576 76.9614 31.3611 77.9957 33.207 79.8366C35.0529 81.6775 36.0899 84.1744 36.0899 86.7778Z" fill="#F69E7C"/>
<path d="M26.7945 91.2542C29.5125 91.2542 31.7159 89.0391 31.7159 86.3066C31.7159 83.5742 29.5125 81.3591 26.7945 81.3591C24.0764 81.3591 21.873 83.5742 21.873 86.3066C21.873 89.0391 24.0764 91.2542 26.7945 91.2542Z" fill="white"/>
<path d="M26.2478 113.243C27.4558 113.243 28.4351 112.259 28.4351 111.044C28.4351 109.83 27.4558 108.845 26.2478 108.845C25.0398 108.845 24.0605 109.83 24.0605 111.044C24.0605 112.259 25.0398 113.243 26.2478 113.243Z" fill="#F69E7C"/>
</g>
<defs>
<clipPath id="clip0_599_2096">
<rect width="327" height="199" fill="white"/>
</clipPath>
</defs>
</svg>
