<svg width="323" height="262" viewBox="0 0 323 262" fill="none" xmlns="http://www.w3.org/2000/svg">
<g clip-path="url(#clip0_599_2216)">
<path d="M56.1328 177.977H55.1055C54.9693 177.977 54.8387 177.922 54.7424 177.825C54.6461 177.729 54.5919 177.598 54.5918 177.461V176.429C54.5919 176.293 54.6461 176.161 54.7424 176.065C54.8387 175.968 54.9693 175.914 55.1055 175.914H56.1328C56.269 175.914 56.3996 175.968 56.4959 176.065C56.5922 176.161 56.6463 176.293 56.6465 176.429V177.461C56.6463 177.598 56.5922 177.729 56.4959 177.825C56.3996 177.922 56.269 177.977 56.1328 177.977Z" fill="#CCCCCC"/>
<path d="M55.6378 176.84C55.6182 176.84 55.5987 176.838 55.5794 176.835C55.5351 176.827 55.4927 176.811 55.4546 176.787C55.4166 176.763 55.3837 176.731 55.3577 176.695C55.3317 176.658 55.3133 176.616 55.3034 176.572C55.2934 176.528 55.2923 176.482 55.2999 176.438L58.6866 156.65C58.7025 156.561 58.753 156.481 58.827 156.429C58.901 156.377 58.9926 156.357 59.0817 156.372C59.1708 156.387 59.2503 156.437 59.3027 156.511C59.3551 156.585 59.3763 156.677 59.3616 156.767L55.9749 176.554C55.9612 176.634 55.9199 176.707 55.8582 176.759C55.7965 176.811 55.7185 176.84 55.6378 176.84Z" fill="#CCCCCC"/>
<path d="M55.6365 176.84C55.5558 176.84 55.4777 176.811 55.4161 176.759C55.3544 176.707 55.3131 176.634 55.2994 176.554L51.9128 156.767C51.898 156.677 51.9192 156.585 51.9716 156.511C52.0241 156.437 52.1035 156.387 52.1926 156.372C52.2818 156.357 52.3733 156.377 52.4474 156.429C52.5214 156.481 52.5719 156.561 52.5878 156.65L55.9744 176.438C55.982 176.482 55.9808 176.528 55.9709 176.572C55.961 176.616 55.9425 176.658 55.9166 176.695C55.8906 176.731 55.8577 176.763 55.8196 176.787C55.7816 176.811 55.7392 176.827 55.6949 176.835C55.6756 176.838 55.6561 176.84 55.6365 176.84Z" fill="#CCCCCC"/>
<path d="M62.9276 153.263C63.2577 150.915 62.0088 148.796 60.1378 148.531C58.2668 148.266 56.4826 149.955 56.1524 152.303C55.874 154.283 56.721 156.096 58.115 156.775L58.0356 157.34L59.7294 157.58L59.8087 157.015C61.3356 156.75 62.6492 155.244 62.9276 153.263Z" fill="#FF6584"/>
<path d="M55.0628 152.194C54.6575 149.858 52.82 148.228 50.9585 148.554C49.0969 148.879 47.9166 151.037 48.3219 153.373C48.6637 155.344 50.0249 156.807 51.5595 157.023L51.6569 157.585L53.3421 157.29L53.2447 156.728C54.6161 156.004 55.4046 154.165 55.0628 152.194Z" fill="#CCCCCC"/>
<path d="M55.6179 176.429C55.527 176.429 55.4399 176.393 55.3757 176.329C55.3115 176.264 55.2754 176.177 55.2754 176.085V155.744C55.275 155.698 55.2836 155.653 55.3006 155.611C55.3176 155.569 55.3428 155.531 55.3746 155.499C55.4065 155.467 55.4443 155.441 55.4861 155.423C55.5278 155.406 55.5726 155.397 55.6178 155.397C55.6631 155.397 55.7079 155.406 55.7496 155.423C55.7913 155.441 55.8292 155.467 55.8611 155.499C55.8929 155.531 55.9181 155.569 55.9351 155.611C55.9521 155.653 55.9607 155.698 55.9603 155.744V176.085C55.9603 176.177 55.9242 176.264 55.86 176.329C55.7958 176.393 55.7087 176.429 55.6179 176.429Z" fill="#CCCCCC"/>
<path d="M58.8287 151.837C58.8287 149.465 57.297 147.542 55.4075 147.542C53.518 147.542 51.9863 149.465 51.9863 151.837C51.9863 153.837 53.0774 155.512 54.5522 155.99V156.56H56.2628V155.99C57.7376 155.512 58.8287 153.837 58.8287 151.837Z" fill="#F69E7C"/>
<path d="M215.087 262L215.018 261.993L107.914 252.003L10.52 261.088C9.18617 261.212 7.84112 261.056 6.57087 260.628C5.30062 260.201 4.13313 259.513 3.14303 258.607C2.15293 257.7 1.36201 256.597 0.820826 255.366C0.279642 254.136 0.00010193 252.806 8.03577e-05 251.46V18.8781C-0.0097511 16.4658 0.882869 14.1377 2.50121 12.3548C4.11956 10.5719 6.34564 9.46411 8.73871 9.25084L107.914 0L107.982 0.00653336L215.087 9.99678L312.48 0.912261C313.814 0.787842 315.159 0.944253 316.429 1.3715C317.7 1.79874 318.867 2.48741 319.857 3.3935C320.847 4.29958 321.638 5.40313 322.179 6.6336C322.721 7.86408 323 9.1944 323 10.5395V243.122C323.01 245.534 322.117 247.862 320.499 249.645C318.881 251.428 316.655 252.536 314.262 252.749L215.087 262ZM107.914 250.509L107.982 250.516L215.087 260.506L314.124 251.268C316.149 251.088 318.033 250.15 319.402 248.642C320.772 247.133 321.527 245.163 321.519 243.122V10.5395C321.519 9.40133 321.282 8.27567 320.824 7.23449C320.366 6.19331 319.697 5.25952 318.859 4.49282C318.022 3.72613 317.034 3.14339 315.959 2.78186C314.884 2.42033 313.746 2.28797 312.617 2.39324L215.087 11.4908L215.018 11.4843L107.914 1.49405L8.87573 10.7318L8.8072 9.99135L8.87573 10.7318C6.85082 10.9124 4.96723 11.8497 3.59787 13.3584C2.22851 14.867 1.47321 16.8369 1.4815 18.8781V251.46C1.48152 252.599 1.71804 253.724 2.17596 254.765C2.63388 255.807 3.30312 256.74 4.14089 257.507C4.97867 258.274 5.96655 258.857 7.04137 259.218C8.1162 259.58 9.25433 259.712 10.383 259.607L107.914 250.509Z" fill="#E6E6E6"/>
<path d="M308.603 59.5258C308.603 52.912 303.26 37.2178 296.669 37.2178C290.078 37.2178 284.734 52.912 284.734 59.5258C284.736 62.7027 285.995 65.7489 288.232 67.9946C290.47 70.2404 293.505 71.5019 296.669 71.5019C299.833 71.5019 302.867 70.2404 305.105 67.9946C307.343 65.7489 308.601 62.7027 308.603 59.5258Z" fill="#3F3D56"/>
<path d="M296.668 86.0619C296.632 86.0619 296.597 86.0475 296.571 86.0218C296.546 85.9961 296.531 85.9612 296.531 85.9249V57.9504C296.531 57.9142 296.546 57.8796 296.571 57.8541C296.597 57.8285 296.632 57.8142 296.668 57.8142C296.704 57.8142 296.738 57.8285 296.764 57.8541C296.789 57.8796 296.804 57.9142 296.804 57.9504V85.9248C296.804 85.9428 296.801 85.9607 296.794 85.9773C296.787 85.9939 296.777 86.009 296.764 86.0217C296.752 86.0345 296.736 86.0446 296.72 86.0515C296.703 86.0583 296.686 86.0619 296.668 86.0619Z" fill="#CCCCCC"/>
<path d="M296.668 63.1771C296.648 63.1772 296.629 63.173 296.611 63.1648C296.594 63.1567 296.578 63.1448 296.565 63.1299L289.701 55.1819C289.677 55.1544 289.666 55.1186 289.668 55.0825C289.671 55.0463 289.688 55.0126 289.715 54.9888C289.742 54.9651 289.778 54.9531 289.814 54.9557C289.85 54.9582 289.884 54.975 289.907 55.0023L296.771 62.9503C296.788 62.9702 296.799 62.9945 296.803 63.0205C296.807 63.0465 296.803 63.0731 296.792 63.097C296.781 63.1209 296.764 63.1411 296.742 63.1553C296.72 63.1696 296.694 63.1771 296.668 63.1772V63.1771Z" fill="#CCCCCC"/>
<path d="M296.668 67.764C296.641 67.764 296.614 67.7559 296.592 67.7409C296.569 67.7258 296.552 67.7044 296.542 67.6794C296.531 67.6544 296.529 67.6268 296.534 67.6002C296.539 67.5736 296.552 67.5492 296.571 67.5301L300.471 63.6139C300.484 63.6011 300.499 63.591 300.516 63.5841C300.532 63.5773 300.55 63.5737 300.568 63.5737C300.586 63.5737 300.603 63.5773 300.62 63.5841C300.637 63.591 300.652 63.6011 300.664 63.6139C300.677 63.6266 300.687 63.6417 300.694 63.6583C300.701 63.6749 300.704 63.6928 300.704 63.7108C300.704 63.7287 300.701 63.7466 300.694 63.7632C300.687 63.7798 300.677 63.7949 300.664 63.8076L296.764 67.7238C296.752 67.7366 296.736 67.7467 296.72 67.7536C296.703 67.7605 296.686 67.764 296.668 67.764Z" fill="#CCCCCC"/>
<path d="M283.742 85.8802C283.742 84.5534 284.267 83.2809 285.201 82.3427C286.136 81.4045 287.403 80.8774 288.725 80.8774C290.046 80.8774 291.313 81.4045 292.248 82.3427C293.182 83.2809 293.707 84.5534 293.707 85.8802" fill="#F2F2F2"/>
<path d="M288.725 85.8804C288.689 85.8804 288.655 85.8662 288.629 85.8408C288.604 85.8155 288.59 85.7811 288.59 85.7452V83.1086C288.59 83.0727 288.604 83.0383 288.629 83.013C288.655 82.9876 288.689 82.9734 288.725 82.9734C288.76 82.9734 288.794 82.9876 288.82 83.013C288.845 83.0383 288.859 83.0727 288.859 83.1086V85.7452C288.859 85.7811 288.845 85.8155 288.82 85.8408C288.794 85.8662 288.76 85.8804 288.725 85.8804Z" fill="#CCCCCC"/>
<path d="M288.725 84.9743C288.693 84.9743 288.662 84.9627 288.638 84.9416L287.022 83.5491C287.008 83.5375 286.997 83.5234 286.989 83.5076C286.981 83.4917 286.976 83.4745 286.975 83.4568C286.974 83.4391 286.976 83.4213 286.981 83.4044C286.987 83.3875 286.996 83.3719 287.007 83.3584C287.019 83.3449 287.033 83.3339 287.048 83.3259C287.064 83.3178 287.081 83.313 287.099 83.3117C287.117 83.3103 287.134 83.3125 287.151 83.318C287.168 83.3235 287.184 83.3323 287.197 83.3439L288.813 84.7365C288.834 84.7545 288.849 84.7784 288.856 84.8052C288.863 84.8319 288.861 84.8601 288.852 84.886C288.842 84.9119 288.825 84.9343 288.802 84.9501C288.78 84.9658 288.753 84.9743 288.725 84.9743H288.725Z" fill="#CCCCCC"/>
<path d="M299.094 85.8802C299.094 84.5534 299.619 83.2809 300.553 82.3427C301.487 81.4045 302.755 80.8774 304.076 80.8774C305.397 80.8774 306.665 81.4045 307.599 82.3427C308.533 83.2809 309.058 84.5534 309.058 85.8802" fill="#F2F2F2"/>
<path d="M304.076 85.8804C304.04 85.8804 304.006 85.8662 303.981 85.8408C303.956 85.8155 303.941 85.7811 303.941 85.7452V83.1086C303.941 83.0727 303.956 83.0383 303.981 83.013C304.006 82.9876 304.04 82.9734 304.076 82.9734C304.112 82.9734 304.146 82.9876 304.171 83.013C304.196 83.0383 304.211 83.0727 304.211 83.1086V85.7452C304.211 85.7811 304.196 85.8155 304.171 85.8408C304.146 85.8662 304.112 85.8804 304.076 85.8804Z" fill="#CCCCCC"/>
<path d="M304.076 84.9743C304.044 84.9743 304.013 84.9628 303.988 84.9417L302.373 83.5491C302.346 83.5257 302.329 83.4925 302.327 83.4569C302.324 83.4213 302.335 83.386 302.359 83.3589C302.382 83.3318 302.415 83.315 302.45 83.3122C302.486 83.3094 302.521 83.3208 302.548 83.3439L304.164 84.7365C304.185 84.7545 304.2 84.7784 304.207 84.8052C304.213 84.8319 304.212 84.8602 304.202 84.8861C304.193 84.912 304.176 84.9343 304.153 84.9501C304.131 84.9658 304.104 84.9743 304.076 84.9743V84.9743Z" fill="#CCCCCC"/>
<path d="M151.626 40.5829C154.9 35.8783 158.866 22.0482 154.178 18.7593C149.489 15.4704 137.921 23.9681 134.648 28.6727C133.076 30.9335 132.463 33.7286 132.943 36.4433C133.423 39.158 134.957 41.5701 137.208 43.1492C139.459 44.7282 142.243 45.3449 144.947 44.8637C147.65 44.3824 150.053 42.8427 151.626 40.5829Z" fill="#F2F2F2"/>
<path d="M130.004 53.504C129.978 53.4859 129.96 53.4583 129.955 53.4273C129.949 53.3962 129.956 53.3643 129.974 53.3384L143.819 33.4392C143.837 33.4134 143.865 33.3958 143.896 33.3903C143.927 33.3847 143.958 33.3918 143.984 33.4099C144.01 33.4279 144.028 33.4555 144.033 33.4866C144.038 33.5176 144.031 33.5496 144.013 33.5754L130.169 53.4746C130.151 53.5004 130.123 53.5181 130.092 53.5236C130.061 53.5291 130.029 53.522 130.004 53.504Z" fill="#CCCCCC"/>
<path d="M141.33 37.2252C141.316 37.2155 141.304 37.2029 141.295 37.1882C141.287 37.1735 141.281 37.1571 141.28 37.1402L140.331 28.0615C140.327 28.0302 140.337 27.9988 140.356 27.9742C140.376 27.9497 140.405 27.9341 140.436 27.9308C140.467 27.9275 140.499 27.9368 140.523 27.9567C140.547 27.9765 140.563 28.0053 140.566 28.0367L141.515 37.1153C141.518 37.138 141.513 37.1609 141.503 37.1812C141.493 37.2016 141.477 37.2185 141.458 37.2301C141.438 37.2417 141.416 37.2474 141.393 37.2465C141.37 37.2457 141.348 37.2383 141.33 37.2252L141.33 37.2252Z" fill="#CCCCCC"/>
<path d="M139.06 40.488C139.041 40.4745 139.026 40.4557 139.018 40.4337C139.009 40.4118 139.008 40.3879 139.013 40.3649C139.018 40.342 139.029 40.321 139.046 40.3047C139.063 40.2885 139.084 40.2776 139.107 40.2735L143.82 39.4338C143.835 39.431 143.851 39.4313 143.866 39.4346C143.882 39.4379 143.896 39.4442 143.909 39.4531C143.922 39.4621 143.933 39.4734 143.941 39.4866C143.949 39.4998 143.955 39.5146 143.958 39.53C143.961 39.5454 143.96 39.5613 143.957 39.5766C143.954 39.5919 143.947 39.6063 143.938 39.6192C143.929 39.632 143.918 39.6429 143.905 39.6513C143.891 39.6596 143.877 39.6653 143.861 39.668L139.149 40.5076C139.134 40.5104 139.118 40.51 139.103 40.5067C139.087 40.5033 139.073 40.497 139.06 40.488Z" fill="#CCCCCC"/>
<path d="M120.898 46.9247C121.556 45.9838 122.559 45.3433 123.686 45.1438C124.814 44.9442 125.974 45.2019 126.913 45.8603C127.851 46.5187 128.491 47.524 128.693 48.6557C128.894 49.7874 128.64 50.953 127.987 51.8969" fill="#F2F2F2"/>
<path d="M124.443 49.4109C124.417 49.3931 124.4 49.3659 124.394 49.3353C124.389 49.3046 124.396 49.2731 124.414 49.2476L125.719 47.3721C125.736 47.3468 125.763 47.3296 125.794 47.3243C125.824 47.3189 125.856 47.3259 125.881 47.3437C125.906 47.3614 125.923 47.3885 125.929 47.419C125.934 47.4495 125.928 47.4809 125.91 47.5064L124.605 49.3819C124.587 49.4075 124.56 49.4248 124.53 49.4303C124.499 49.4357 124.468 49.4288 124.443 49.4109Z" fill="#CCCCCC"/>
<path d="M124.891 48.7664C124.868 48.7504 124.852 48.7267 124.845 48.6995L124.385 46.9026C124.381 46.8877 124.38 46.8721 124.382 46.8568C124.384 46.8415 124.389 46.8268 124.397 46.8135C124.405 46.8001 124.415 46.7885 124.427 46.7792C124.44 46.7699 124.454 46.7632 124.469 46.7593C124.484 46.7555 124.499 46.7546 124.514 46.7568C124.529 46.759 124.544 46.7642 124.557 46.772C124.571 46.7799 124.582 46.7904 124.591 46.8028C124.601 46.8151 124.607 46.8292 124.611 46.8442L125.071 48.6411C125.077 48.6643 125.076 48.6888 125.068 48.7112C125.059 48.7337 125.044 48.7531 125.025 48.7667C125.005 48.7804 124.982 48.7877 124.958 48.7876C124.934 48.7876 124.911 48.7802 124.891 48.7664Z" fill="#CCCCCC"/>
<path d="M131.818 54.5848C132.143 54.116 132.556 53.7161 133.035 53.4081C133.514 53.1 134.048 52.8897 134.608 52.7893C135.168 52.6889 135.742 52.7004 136.297 52.823C136.852 52.9457 137.378 53.1771 137.844 53.5041C138.31 53.831 138.707 54.2471 139.013 54.7285C139.319 55.2098 139.527 55.747 139.626 56.3092C139.725 56.8715 139.712 57.4477 139.588 58.005C139.465 58.5623 139.233 59.0897 138.907 59.557" fill="#F2F2F2"/>
<path d="M135.362 57.0709C135.337 57.0531 135.32 57.0259 135.314 56.9952C135.309 56.9646 135.316 56.9331 135.334 56.9076L136.638 55.0321C136.656 55.0066 136.683 54.9892 136.714 54.9837C136.744 54.9783 136.776 54.9853 136.801 55.0031C136.827 55.0209 136.844 55.0481 136.849 55.0788C136.855 55.1094 136.848 55.1409 136.83 55.1665L135.525 57.042C135.507 57.0675 135.48 57.0848 135.45 57.0903C135.419 57.0957 135.388 57.0888 135.362 57.0709Z" fill="#CCCCCC"/>
<path d="M135.811 56.4263C135.788 56.4102 135.771 56.3865 135.765 56.3593L135.304 54.5624C135.297 54.5324 135.301 54.5005 135.317 54.4739C135.333 54.4472 135.359 54.4279 135.389 54.4202C135.418 54.4125 135.45 54.417 135.477 54.4327C135.503 54.4484 135.523 54.474 135.531 54.504L135.991 56.3009C135.997 56.3241 135.996 56.3486 135.987 56.3711C135.979 56.3935 135.964 56.4129 135.944 56.4265C135.925 56.4402 135.901 56.4475 135.877 56.4474C135.854 56.4474 135.83 56.44 135.811 56.4263Z" fill="#CCCCCC"/>
<path d="M218.784 143.205C221.417 145.634 224.033 148.079 226.631 150.542C225.965 150.58 225.272 150.609 224.561 150.632C223.557 150.665 222.513 150.68 221.417 150.68C209.391 150.68 203.288 148.698 197.392 146.779C191.792 144.961 186.503 143.242 175.644 143.242C164.782 143.242 159.493 144.961 153.897 146.779C147.997 148.698 141.893 150.68 129.868 150.68C117.839 150.68 111.739 148.698 105.839 146.779C100.369 145.001 95.1951 143.321 84.8325 143.246C84.588 143.242 84.3437 143.242 84.0918 143.242V135.805C84.3399 135.805 84.588 135.805 84.8325 135.809C96.3729 135.887 102.343 137.828 108.121 139.702C113.72 141.524 119.009 143.242 129.868 143.242C140.727 143.242 146.016 141.524 151.615 139.702C157.515 137.787 163.615 135.805 175.644 135.805C187.67 135.805 193.77 137.787 199.669 139.702C204.347 141.223 208.81 142.674 216.484 143.109C217.221 143.153 217.983 143.183 218.784 143.205Z" fill="#F69E7C"/>
<path d="M312.973 143.242V150.68C300.943 150.68 294.843 148.698 288.944 146.779C283.344 144.961 278.055 143.242 267.196 143.242C256.334 143.242 251.045 144.961 245.445 146.779C245.142 146.879 244.834 146.976 244.527 147.077C244.001 147.248 243.468 147.419 242.927 147.586C240.882 145.574 238.831 143.58 236.771 141.603C237.345 141.461 237.901 141.312 238.449 141.16C240.082 140.706 241.612 140.208 243.168 139.702C249.067 137.787 255.167 135.805 267.196 135.805C279.226 135.805 285.325 137.787 291.225 139.702C296.825 141.524 302.114 143.242 312.973 143.242Z" fill="#F69E7C"/>
<path d="M149.3 86.044C128.568 70.8826 106.754 56.5057 84.4692 43.3152L83.3508 42.6533V87.3902H151.141L149.3 86.044ZM84.8322 85.9027V45.2601C106.032 57.8519 126.79 71.5147 146.586 85.9027H84.8322ZM254.226 177.984C245.26 168.623 236.062 159.476 226.631 150.543C224.031 148.077 221.415 145.631 218.783 143.205C202.721 128.39 186.13 114.299 169.011 100.934L168.811 100.778H83.3508V179.244H255.434L254.226 177.984ZM84.8322 177.757V102.265H168.303C184.81 115.158 200.87 128.773 216.483 143.109C219.194 145.597 221.887 148.104 224.561 150.632C233.909 159.453 243.038 168.494 251.949 177.757H84.8322ZM254.226 177.984C245.26 168.623 236.062 159.476 226.631 150.543C224.031 148.077 221.415 145.631 218.783 143.205C202.721 128.39 186.13 114.299 169.011 100.934L168.811 100.778H83.3508V179.244H255.434L254.226 177.984ZM84.8322 177.757V102.265H168.303C184.81 115.158 200.87 128.773 216.483 143.109C219.194 145.597 221.887 148.104 224.561 150.632C233.909 159.453 243.038 168.494 251.949 177.757H84.8322ZM149.3 86.044C128.568 70.8826 106.754 56.5057 84.4692 43.3152L83.3508 42.6533V87.3902H151.141L149.3 86.044ZM84.8322 85.9027V45.2601C106.032 57.8519 126.79 71.5147 146.586 85.9027H84.8322ZM149.3 86.044C128.568 70.8826 106.754 56.5057 84.4692 43.3152L83.3508 42.6533V87.3902H151.141L149.3 86.044ZM84.8322 85.9027V45.2601C106.032 57.8519 126.79 71.5147 146.586 85.9027H84.8322ZM254.226 177.984C245.26 168.623 236.062 159.476 226.631 150.543C224.031 148.077 221.415 145.631 218.783 143.205C202.721 128.39 186.13 114.299 169.011 100.934L168.811 100.778H83.3508V179.244H255.434L254.226 177.984ZM84.8322 177.757V102.265H168.303C184.81 115.158 200.87 128.773 216.483 143.109C219.194 145.597 221.887 148.104 224.561 150.632C233.909 159.453 243.038 168.494 251.949 177.757H84.8322ZM10.0273 192.632V194.119H68.5364V215.688H10.0273V217.176H70.0179V192.632H10.0273ZM83.3508 230.563V245.636L84.8322 245.498V232.051H312.973V230.563H83.3508ZM312.973 194.119V192.632H83.3508V217.176H312.973V215.688H84.8322V194.119H312.973ZM174.625 85.9027C146.205 63.8891 116.191 44.0317 84.8322 26.4951V11.4341L83.3508 11.5717V26.7493L84.4915 28.0087C115.722 45.4975 145.615 65.2939 173.922 87.2341L174.122 87.3902H312.973V85.9027H174.625ZM68.5364 85.9027H10.0273V87.3902H70.0179V12.8137L68.5364 12.9513V85.9027ZM312.973 100.778H190.906L192.503 102.094C207.532 114.511 222.288 127.681 236.771 141.603C238.831 143.581 240.882 145.576 242.927 147.586C253.104 157.571 263.083 167.882 272.863 178.519L274.084 179.244H312.973V177.757H274.178C264.504 167.225 254.62 156.998 244.527 147.077C242.508 145.091 240.483 143.119 238.449 141.16C224.279 127.508 209.807 114.544 195.032 102.265H312.973V100.778ZM10.0273 230.563V232.051H68.5364V247.015L70.0179 246.878V230.563H10.0273ZM10.0273 100.778V102.265H68.5364V177.757H10.0273V179.244H70.0179V100.778H10.0273ZM149.3 86.044C128.568 70.8826 106.754 56.5057 84.4692 43.3152L83.3508 42.6533V87.3902H151.141L149.3 86.044ZM84.8322 85.9027V45.2601C106.032 57.8519 126.79 71.5147 146.586 85.9027H84.8322ZM254.226 177.984C245.26 168.623 236.062 159.476 226.631 150.543C224.031 148.077 221.415 145.631 218.783 143.205C202.721 128.39 186.13 114.299 169.011 100.934L168.811 100.778H83.3508V179.244H255.434L254.226 177.984ZM84.8322 177.757V102.265H168.303C184.81 115.158 200.87 128.773 216.483 143.109C219.194 145.597 221.887 148.104 224.561 150.632C233.909 159.453 243.038 168.494 251.949 177.757H84.8322ZM149.3 86.044C128.568 70.8826 106.754 56.5057 84.4692 43.3152L83.3508 42.6533V87.3902H151.141L149.3 86.044ZM84.8322 85.9027V45.2601C106.032 57.8519 126.79 71.5147 146.586 85.9027H84.8322ZM254.226 177.984C245.26 168.623 236.062 159.476 226.631 150.543C224.031 148.077 221.415 145.631 218.783 143.205C202.721 128.39 186.13 114.299 169.011 100.934L168.811 100.778H83.3508V179.244H255.434L254.226 177.984ZM84.8322 177.757V102.265H168.303C184.81 115.158 200.87 128.773 216.483 143.109C219.194 145.597 221.887 148.104 224.561 150.632C233.909 159.453 243.038 168.494 251.949 177.757H84.8322Z" fill="#3F3D56"/>
<path d="M188.047 136.628C188.047 130.079 193.334 114.537 199.857 114.537C206.38 114.537 211.667 130.079 211.667 136.628C211.667 139.773 210.423 142.79 208.208 145.014C205.993 147.237 202.989 148.487 199.857 148.487C196.725 148.487 193.721 147.237 191.506 145.014C189.291 142.79 188.047 139.773 188.047 136.628Z" fill="#F2F2F2"/>
<path d="M199.857 165.479C199.844 165.479 199.831 165.476 199.82 165.472C199.808 165.467 199.797 165.459 199.788 165.45C199.779 165.441 199.772 165.431 199.767 165.419C199.762 165.407 199.76 165.394 199.76 165.381V124.496C199.76 124.471 199.77 124.446 199.788 124.427C199.806 124.409 199.831 124.399 199.857 124.399C199.883 124.399 199.907 124.409 199.926 124.427C199.944 124.446 199.954 124.471 199.954 124.496V165.381C199.954 165.394 199.951 165.407 199.947 165.419C199.942 165.431 199.935 165.441 199.926 165.45C199.917 165.459 199.906 165.467 199.894 165.472C199.882 165.476 199.87 165.479 199.857 165.479Z" fill="#3F3D56"/>
<path d="M199.858 132.39C199.845 132.39 199.832 132.387 199.82 132.382C199.809 132.377 199.798 132.37 199.789 132.361L195.114 127.667C195.105 127.658 195.098 127.648 195.093 127.636C195.088 127.624 195.086 127.611 195.086 127.598C195.086 127.586 195.088 127.573 195.093 127.561C195.098 127.549 195.105 127.539 195.114 127.53C195.123 127.52 195.134 127.513 195.146 127.508C195.158 127.504 195.17 127.501 195.183 127.501C195.196 127.501 195.208 127.504 195.22 127.508C195.232 127.513 195.243 127.52 195.252 127.53L199.926 132.223C199.94 132.237 199.949 132.254 199.953 132.273C199.957 132.292 199.955 132.312 199.947 132.329C199.94 132.347 199.927 132.363 199.912 132.373C199.896 132.384 199.877 132.39 199.858 132.39Z" fill="#3F3D56"/>
<path d="M199.857 140.515C199.838 140.515 199.819 140.509 199.803 140.499C199.787 140.488 199.775 140.473 199.767 140.455C199.76 140.437 199.758 140.418 199.762 140.399C199.765 140.38 199.775 140.362 199.788 140.349L207.616 132.488C207.625 132.479 207.636 132.472 207.648 132.467C207.66 132.462 207.672 132.46 207.685 132.46C207.698 132.46 207.71 132.462 207.722 132.467C207.734 132.472 207.745 132.479 207.754 132.488C207.763 132.497 207.77 132.508 207.775 132.52C207.78 132.532 207.782 132.544 207.782 132.557C207.782 132.57 207.78 132.583 207.775 132.595C207.77 132.606 207.763 132.617 207.754 132.626L199.926 140.487C199.917 140.496 199.906 140.503 199.894 140.508C199.882 140.513 199.87 140.515 199.857 140.515Z" fill="#3F3D56"/>
<path d="M254.268 103.159C254.268 96.6095 259.555 81.0681 266.078 81.0681C272.6 81.0681 277.888 96.6095 277.888 103.159C277.886 106.303 276.641 109.317 274.426 111.54C272.212 113.762 269.209 115.01 266.078 115.01C262.947 115.01 259.944 113.762 257.729 111.54C255.515 109.317 254.27 106.303 254.268 103.159Z" fill="#F69E7C"/>
<path d="M266.078 132.01C266.065 132.01 266.052 132.007 266.04 132.003C266.029 131.998 266.018 131.99 266.009 131.981C266 131.972 265.993 131.962 265.988 131.95C265.983 131.938 265.98 131.925 265.98 131.912V91.0274C265.98 91.0016 265.991 90.9768 266.009 90.9585C266.027 90.9402 266.052 90.9299 266.078 90.9299C266.103 90.9299 266.128 90.9402 266.146 90.9585C266.164 90.9768 266.175 91.0016 266.175 91.0274V131.912C266.175 131.925 266.172 131.938 266.167 131.95C266.162 131.962 266.155 131.972 266.146 131.981C266.137 131.99 266.127 131.998 266.115 132.003C266.103 132.007 266.09 132.01 266.078 132.01Z" fill="#3F3D56"/>
<path d="M266.078 98.9206C266.066 98.9207 266.053 98.9181 266.041 98.9132C266.029 98.9083 266.019 98.9011 266.01 98.8921L261.335 94.1984C261.317 94.1801 261.307 94.1553 261.307 94.1295C261.307 94.1036 261.317 94.0788 261.335 94.0605C261.353 94.0422 261.378 94.032 261.404 94.032C261.43 94.032 261.454 94.0423 261.472 94.0605L266.147 98.7542C266.16 98.7678 266.17 98.7852 266.173 98.8041C266.177 98.823 266.175 98.8426 266.168 98.8605C266.161 98.8783 266.148 98.8935 266.132 98.9042C266.116 98.9149 266.097 98.9206 266.078 98.9206H266.078Z" fill="#3F3D56"/>
<path d="M266.078 107.046C266.058 107.046 266.04 107.041 266.024 107.03C266.008 107.019 265.995 107.004 265.988 106.986C265.981 106.968 265.979 106.949 265.982 106.93C265.986 106.911 265.995 106.893 266.009 106.88L273.837 99.0193C273.855 99.0012 273.88 98.9911 273.906 98.9912C273.931 98.9913 273.956 99.0015 273.974 99.0198C273.992 99.038 274.003 99.0627 274.003 99.0884C274.003 99.1142 273.993 99.1389 273.975 99.1572L266.146 107.018C266.137 107.027 266.127 107.034 266.115 107.039C266.103 107.044 266.09 107.046 266.078 107.046Z" fill="#3F3D56"/>
<path d="M109.27 106.506C109.27 99.9564 114.557 84.415 121.08 84.415C127.602 84.415 132.89 99.9564 132.89 106.506C132.89 109.651 131.646 112.667 129.431 114.891C127.216 117.115 124.212 118.365 121.08 118.365C117.947 118.365 114.944 117.115 112.729 114.891C110.514 112.667 109.27 109.651 109.27 106.506Z" fill="#F69E7C"/>
<path d="M121.08 135.357C121.067 135.357 121.054 135.354 121.042 135.349C121.031 135.345 121.02 135.337 121.011 135.328C121.002 135.319 120.995 135.308 120.99 135.297C120.985 135.285 120.982 135.272 120.982 135.259V94.3744C120.982 94.3485 120.993 94.3237 121.011 94.3054C121.029 94.2871 121.054 94.2769 121.08 94.2769C121.105 94.2769 121.13 94.2871 121.148 94.3054C121.166 94.3237 121.177 94.3485 121.177 94.3744V135.259C121.177 135.272 121.174 135.285 121.169 135.297C121.164 135.308 121.157 135.319 121.148 135.328C121.139 135.337 121.128 135.345 121.117 135.349C121.105 135.354 121.092 135.357 121.08 135.357Z" fill="#3F3D56"/>
<path d="M121.08 102.268C121.067 102.268 121.055 102.265 121.043 102.26C121.031 102.255 121.021 102.248 121.012 102.239L116.337 97.5454C116.328 97.5363 116.321 97.5255 116.316 97.5137C116.311 97.5019 116.309 97.4892 116.309 97.4764C116.309 97.4636 116.311 97.4509 116.316 97.4391C116.321 97.4273 116.328 97.4165 116.337 97.4075C116.346 97.3984 116.357 97.3912 116.369 97.3863C116.38 97.3814 116.393 97.3789 116.406 97.3789C116.418 97.3789 116.431 97.3814 116.443 97.3863C116.455 97.3912 116.465 97.3984 116.474 97.4075L121.149 102.101C121.162 102.115 121.172 102.132 121.175 102.151C121.179 102.17 121.177 102.19 121.17 102.207C121.163 102.225 121.15 102.24 121.134 102.251C121.118 102.262 121.099 102.268 121.08 102.268Z" fill="#3F3D56"/>
<path d="M121.08 110.393C121.06 110.393 121.042 110.387 121.026 110.377C121.01 110.366 120.997 110.351 120.99 110.333C120.982 110.315 120.981 110.296 120.984 110.277C120.988 110.258 120.997 110.24 121.011 110.227L128.839 102.366C128.857 102.348 128.882 102.338 128.908 102.338C128.933 102.338 128.958 102.348 128.976 102.366C128.994 102.385 129.005 102.409 129.005 102.435C129.005 102.461 128.995 102.486 128.976 102.504L121.148 110.365C121.139 110.374 121.128 110.381 121.117 110.386C121.105 110.391 121.092 110.393 121.08 110.393Z" fill="#3F3D56"/>
<path d="M218.232 73.8331C211.524 73.8331 204.967 71.8358 199.389 68.0938C193.812 64.3518 189.465 59.0332 186.898 52.8105C184.331 46.5878 183.659 39.7406 184.968 33.1346C186.277 26.5286 189.507 20.4607 194.25 15.698C198.993 10.9354 205.036 7.69201 211.615 6.378C218.194 5.06399 225.014 5.73839 231.211 8.31591C237.408 10.8934 242.705 15.2583 246.432 20.8586C250.158 26.4588 252.147 33.043 252.147 39.7784C252.137 48.8071 248.561 57.4631 242.202 63.8474C235.844 70.2317 227.224 73.8228 218.232 73.8331ZM218.232 6.18076C211.614 6.18076 205.145 8.15123 199.642 11.843C194.14 15.5347 189.851 20.782 187.319 26.9211C184.786 33.0603 184.124 39.8156 185.415 46.3329C186.706 52.8502 189.892 58.8367 194.572 63.5354C199.251 68.2341 205.213 71.434 211.704 72.7304C218.195 74.0267 224.922 73.3614 231.037 70.8185C237.151 68.2756 242.376 63.9693 246.053 58.4442C249.73 52.9191 251.692 46.4233 251.692 39.7784C251.682 30.8708 248.154 22.331 241.881 16.0324C235.608 9.7338 227.103 6.19084 218.232 6.18078V6.18076Z" fill="#CCCCCC"/>
<path d="M218.232 37.2642C218.171 37.2642 218.113 37.2401 218.071 37.1973C218.028 37.1544 218.004 37.0963 218.004 37.0357V5.95218C218.004 5.89157 218.028 5.83343 218.071 5.79057C218.113 5.74771 218.171 5.72363 218.232 5.72363C218.292 5.72363 218.35 5.74771 218.392 5.79057C218.435 5.83343 218.459 5.89157 218.459 5.95218V37.0357C218.459 37.0963 218.435 37.1544 218.392 37.1973C218.35 37.2401 218.292 37.2642 218.232 37.2642Z" fill="#CCCCCC"/>
<path d="M251.918 40.0069H220.962C220.902 40.0069 220.844 39.9828 220.801 39.94C220.758 39.8971 220.734 39.839 220.734 39.7784C220.734 39.7177 220.758 39.6596 220.801 39.6168C220.844 39.5739 220.902 39.5498 220.962 39.5498H251.918C251.979 39.5498 252.037 39.5739 252.079 39.6168C252.122 39.6596 252.146 39.7177 252.146 39.7784C252.146 39.839 252.122 39.8971 252.079 39.94C252.037 39.9828 251.979 40.0069 251.918 40.0069Z" fill="#CCCCCC"/>
<path d="M215.499 40.0069H184.558C184.497 40.0069 184.439 39.9828 184.397 39.94C184.354 39.8971 184.33 39.839 184.33 39.7784C184.33 39.7177 184.354 39.6596 184.397 39.6168C184.439 39.5739 184.497 39.5498 184.558 39.5498H215.499C215.56 39.5498 215.618 39.5739 215.66 39.6168C215.703 39.6596 215.727 39.7177 215.727 39.7784C215.727 39.839 215.703 39.8971 215.66 39.94C215.618 39.9828 215.56 40.0069 215.499 40.0069Z" fill="#CCCCCC"/>
<path d="M218.232 73.8331C218.171 73.8331 218.113 73.809 218.071 73.7661C218.028 73.7233 218.004 73.6651 218.004 73.6045V42.521C218.004 42.4604 218.028 42.4023 218.071 42.3594C218.113 42.3166 218.171 42.2925 218.232 42.2925C218.292 42.2925 218.35 42.3166 218.392 42.3594C218.435 42.4023 218.459 42.4604 218.459 42.521V73.6045C218.459 73.6651 218.435 73.7233 218.392 73.7661C218.35 73.809 218.292 73.8331 218.232 73.8331Z" fill="#CCCCCC"/>
<path d="M220.239 38.1497C220.194 38.1497 220.15 38.1363 220.113 38.1112C220.075 38.0861 220.046 38.0504 220.029 38.0086C220.012 37.9669 220.007 37.9209 220.016 37.8766C220.025 37.8322 220.047 37.7915 220.078 37.7596L241.872 15.8769C241.914 15.8343 241.972 15.8104 242.032 15.8105C242.092 15.8107 242.15 15.8347 242.193 15.8775C242.235 15.9202 242.259 15.9782 242.259 16.0386C242.26 16.0991 242.236 16.1571 242.193 16.2001L220.4 38.0828C220.379 38.104 220.354 38.1209 220.326 38.1324C220.299 38.1439 220.269 38.1498 220.239 38.1497Z" fill="#CCCCCC"/>
<path d="M216.225 38.1497C216.195 38.1498 216.166 38.1439 216.138 38.1324C216.111 38.1209 216.085 38.104 216.064 38.0828L194.271 16.2001C194.229 16.1571 194.205 16.0991 194.205 16.0386C194.205 15.9782 194.229 15.9202 194.272 15.8775C194.314 15.8347 194.372 15.8107 194.432 15.8105C194.492 15.8104 194.55 15.8343 194.593 15.8769L216.386 37.7596C216.418 37.7915 216.44 37.8322 216.448 37.8766C216.457 37.9209 216.453 37.9669 216.436 38.0086C216.418 38.0504 216.389 38.0861 216.352 38.1112C216.314 38.1363 216.27 38.1497 216.225 38.1497Z" fill="#CCCCCC"/>
<path d="M242.032 63.7469C242.002 63.7469 241.972 63.7411 241.945 63.7296C241.917 63.7181 241.892 63.7012 241.871 63.6799L220.078 41.7972C220.035 41.7543 220.012 41.6963 220.012 41.6358C220.012 41.5754 220.036 41.5174 220.078 41.4747C220.121 41.4319 220.179 41.4078 220.239 41.4077C220.299 41.4076 220.357 41.4315 220.4 41.474L242.193 63.3567C242.225 63.3887 242.246 63.4294 242.255 63.4738C242.264 63.5181 242.259 63.564 242.242 63.6058C242.225 63.6476 242.196 63.6832 242.158 63.7084C242.121 63.7335 242.077 63.7469 242.032 63.7469V63.7469Z" fill="#CCCCCC"/>
<path d="M194.431 63.7468C194.386 63.7467 194.342 63.7333 194.304 63.7082C194.267 63.6831 194.238 63.6474 194.22 63.6057C194.203 63.5639 194.199 63.518 194.207 63.4736C194.216 63.4293 194.238 63.3886 194.27 63.3566L216.063 41.4739C216.106 41.4311 216.164 41.407 216.224 41.407C216.284 41.407 216.342 41.4311 216.385 41.4739C216.428 41.5168 216.452 41.5749 216.452 41.6355C216.452 41.6961 216.428 41.7542 216.385 41.7971L194.592 63.6798C194.571 63.7011 194.545 63.7179 194.518 63.7294C194.49 63.7409 194.461 63.7468 194.431 63.7468Z" fill="#CCCCCC"/>
<path d="M218.231 63.2051C213.617 63.2051 209.106 61.8311 205.269 59.257C201.433 56.6828 198.442 53.024 196.676 48.7433C194.91 44.4626 194.448 39.7522 195.349 35.2079C196.249 30.6635 198.471 26.4892 201.734 23.2129C204.997 19.9366 209.154 17.7054 213.68 16.8015C218.206 15.8975 222.897 16.3615 227.16 18.1346C231.423 19.9077 235.067 22.9104 237.631 26.7629C240.194 30.6155 241.563 35.1448 241.563 39.7782C241.556 45.9893 239.095 51.9439 234.721 56.3358C230.347 60.7276 224.417 63.1981 218.231 63.2051ZM218.231 16.8085C213.707 16.8085 209.284 18.1556 205.522 20.6796C201.76 23.2035 198.828 26.7909 197.097 30.9881C195.366 35.1853 194.913 39.8037 195.795 44.2594C196.678 48.7151 198.857 52.8079 202.056 56.0203C205.255 59.2327 209.331 61.4204 213.769 62.3067C218.206 63.193 222.806 62.7381 226.986 60.9996C231.166 59.261 234.738 56.3169 237.252 52.5396C239.766 48.7622 241.107 44.3212 241.107 39.7782C241.1 33.6884 238.688 27.8499 234.4 23.5437C230.111 19.2376 224.296 16.8153 218.231 16.8085Z" fill="#CCCCCC"/>
<path d="M218.231 42.521C219.74 42.521 220.963 41.293 220.963 39.7783C220.963 38.2636 219.74 37.0356 218.231 37.0356C216.723 37.0356 215.5 38.2636 215.5 39.7783C215.5 41.293 216.723 42.521 218.231 42.521Z" fill="#3F3D56"/>
<path d="M207.657 86.1054L205.258 86.1751L216.97 38.7053L219.147 39.3723L207.657 86.1054Z" fill="#3F3D56"/>
<path d="M228.806 86.1054L231.206 86.1751L219.493 38.7053L217.316 39.3723L228.806 86.1054Z" fill="#3F3D56"/>
<path d="M221.873 12.8088H214.361V16.9228H221.873V12.8088Z" fill="#CCCCCC"/>
<path d="M217.775 13.7231H214.816V16.9229H217.775V13.7231Z" fill="white"/>
<path d="M221.418 13.7231H218.459V16.9229H221.418V13.7231Z" fill="white"/>
<path d="M218.118 21.3796C216.971 21.3783 215.872 20.9204 215.061 20.1063C214.25 19.2922 213.794 18.1884 213.793 17.0371V16.9228C213.793 16.6501 213.901 16.3887 214.093 16.1959C214.285 16.0031 214.546 15.8946 214.817 15.8943H221.418C221.69 15.8946 221.95 16.0031 222.142 16.1959C222.334 16.3887 222.442 16.6501 222.443 16.9228V17.0371C222.441 18.1884 221.985 19.2922 221.174 20.1063C220.364 20.9204 219.264 21.3783 218.118 21.3796Z" fill="#CCCCCC"/>
<path d="M221.592 13.8373H214.643C214.546 13.8373 214.451 13.8125 214.366 13.765C214.281 13.7176 214.21 13.6492 214.159 13.5663C214.108 13.4835 214.079 13.3889 214.075 13.2916C214.07 13.1943 214.091 13.0975 214.134 13.0104L215.5 10.2677C215.547 10.1726 215.62 10.0926 215.71 10.0368C215.8 9.98093 215.903 9.95153 216.009 9.95191H220.226C220.332 9.95154 220.436 9.98093 220.526 10.0368C220.616 10.0926 220.688 10.1726 220.735 10.2677L222.101 13.0104C222.144 13.0975 222.165 13.1943 222.161 13.2916C222.156 13.3889 222.127 13.4835 222.076 13.5663C222.025 13.6492 221.954 13.7176 221.869 13.765C221.784 13.8125 221.689 13.8373 221.592 13.8373H221.592Z" fill="#F69E7C"/>
<path d="M242.133 21.9509H234.621V26.0649H242.133V21.9509Z" fill="#CCCCCC"/>
<path d="M238.035 22.8652H235.076V26.065H238.035V22.8652Z" fill="white"/>
<path d="M241.676 22.8652H238.717V26.065H241.676V22.8652Z" fill="white"/>
<path d="M238.376 30.5219C237.229 30.5206 236.13 30.0627 235.319 29.2486C234.508 28.4345 234.052 27.3307 234.051 26.1794V26.0651C234.051 25.7924 234.159 25.531 234.351 25.3382C234.543 25.1454 234.804 25.0369 235.075 25.0366H241.676C241.948 25.0369 242.208 25.1454 242.4 25.3382C242.592 25.531 242.7 25.7924 242.7 26.0651V26.1794C242.699 27.3307 242.243 28.4345 241.432 29.2486C240.621 30.0627 239.522 30.5206 238.376 30.5219Z" fill="#CCCCCC"/>
<path d="M236.268 19.3225C236.204 19.3223 236.142 19.3399 236.088 19.3734C236.034 19.4069 235.991 19.4549 235.962 19.512L234.597 22.2547C234.571 22.3069 234.558 22.365 234.561 22.4234C234.563 22.4818 234.581 22.5385 234.612 22.5883C234.642 22.638 234.685 22.679 234.736 22.7075C234.787 22.7359 234.844 22.7508 234.902 22.7508H241.851C241.909 22.7508 241.966 22.7359 242.017 22.7075C242.068 22.679 242.111 22.638 242.141 22.5883C242.172 22.5385 242.189 22.4818 242.192 22.4234C242.194 22.365 242.182 22.3069 242.156 22.2547L240.79 19.512C240.762 19.4549 240.719 19.4069 240.665 19.3734C240.611 19.3399 240.548 19.3223 240.485 19.3225H236.268Z" fill="#F69E7C"/>
<path d="M250.097 42.521H242.586V46.635H250.097V42.521Z" fill="#CCCCCC"/>
<path d="M246.002 43.4353H243.043V46.6351H246.002V43.4353Z" fill="white"/>
<path d="M249.643 43.4353H246.684V46.6351H249.643V43.4353Z" fill="white"/>
<path d="M246.342 51.0918C245.196 51.0905 244.096 50.6325 243.286 49.8184C242.475 49.0043 242.019 47.9005 242.018 46.7492V46.6349C242.018 46.3623 242.126 46.1008 242.318 45.908C242.51 45.7152 242.77 45.6068 243.042 45.6064H249.643C249.914 45.6068 250.175 45.7152 250.367 45.908C250.559 46.1008 250.667 46.3623 250.667 46.6349V46.7492C250.666 47.9005 250.21 49.0043 249.399 49.8184C248.588 50.6325 247.489 51.0905 246.342 51.0918Z" fill="#CCCCCC"/>
<path d="M249.817 43.5495H242.868C242.771 43.5495 242.676 43.5246 242.591 43.4772C242.506 43.4298 242.435 43.3614 242.384 43.2785C242.333 43.1957 242.304 43.1011 242.299 43.0038C242.295 42.9065 242.316 42.8097 242.359 42.7225L243.725 39.9799C243.772 39.8847 243.844 39.8047 243.934 39.7489C244.024 39.6931 244.128 39.6637 244.234 39.6641H248.451C248.557 39.6637 248.66 39.6931 248.75 39.7489C248.84 39.8047 248.913 39.8847 248.96 39.9799L250.326 42.7225C250.369 42.8097 250.389 42.9065 250.385 43.0038C250.381 43.1011 250.352 43.1957 250.301 43.2785C250.25 43.3614 250.178 43.4298 250.094 43.4772C250.009 43.5246 249.914 43.5495 249.817 43.5495H249.817Z" fill="#F69E7C"/>
<path d="M241.676 61.7195H234.164V65.8335H241.676V61.7195Z" fill="#CCCCCC"/>
<path d="M237.58 62.6338H234.621V65.8335H237.58V62.6338Z" fill="white"/>
<path d="M241.221 62.6338H238.262V65.8335H241.221V62.6338Z" fill="white"/>
<path d="M237.92 70.2905C236.774 70.2892 235.675 69.8313 234.864 69.0172C234.053 68.203 233.597 67.0993 233.596 65.948V65.8337C233.596 65.561 233.704 65.2996 233.896 65.1068C234.088 64.9139 234.348 64.8055 234.62 64.8052H241.221C241.493 64.8055 241.753 64.9139 241.945 65.1068C242.137 65.2996 242.245 65.561 242.245 65.8337V65.948C242.244 67.0993 241.788 68.203 240.977 69.0172C240.166 69.8313 239.067 70.2892 237.92 70.2905Z" fill="#CCCCCC"/>
<path d="M241.395 62.748H234.446C234.349 62.748 234.254 62.7231 234.169 62.6757C234.084 62.6282 234.013 62.5598 233.962 62.477C233.911 62.3941 233.882 62.2996 233.878 62.2022C233.873 62.1049 233.894 62.0081 233.937 61.921L235.303 59.1784C235.35 59.0832 235.422 59.0032 235.512 58.9474C235.602 58.8916 235.706 58.8622 235.812 58.8626H240.029C240.135 58.8622 240.239 58.8916 240.329 58.9474C240.418 59.0032 240.491 59.0832 240.538 59.1784L241.904 61.921C241.947 62.0081 241.968 62.1049 241.963 62.2022C241.959 62.2996 241.93 62.3941 241.879 62.477C241.828 62.5598 241.757 62.6282 241.672 62.6757C241.587 62.7231 241.492 62.748 241.395 62.748H241.395Z" fill="#F69E7C"/>
<path d="M194.332 26.0649H201.844V21.9509H194.332V26.0649Z" fill="#CCCCCC"/>
<path d="M198.428 26.0649H201.387V22.8652H198.428V26.0649Z" fill="white"/>
<path d="M194.787 26.0649H197.746V22.8652H194.787V26.0649Z" fill="white"/>
<path d="M198.086 30.5219C196.94 30.5206 195.841 30.0627 195.03 29.2486C194.219 28.4345 193.763 27.3307 193.762 26.1794V26.0651C193.762 25.7924 193.87 25.531 194.062 25.3382C194.254 25.1454 194.514 25.0369 194.786 25.0366H201.387C201.659 25.0369 201.919 25.1454 202.111 25.3382C202.303 25.531 202.411 25.7924 202.411 26.0651V26.1794C202.41 27.3307 201.954 28.4345 201.143 29.2486C200.332 30.0627 199.233 30.5206 198.086 30.5219Z" fill="#CCCCCC"/>
<path d="M201.561 22.9794H194.612C194.515 22.9794 194.42 22.9545 194.335 22.9071C194.25 22.8597 194.179 22.7913 194.128 22.7084C194.077 22.6256 194.048 22.531 194.044 22.4337C194.039 22.3364 194.06 22.2396 194.103 22.1525L195.469 19.4098C195.516 19.3147 195.588 19.2347 195.678 19.1788C195.768 19.123 195.872 19.0936 195.978 19.094H200.195C200.301 19.0936 200.405 19.123 200.495 19.1788C200.584 19.2347 200.657 19.3147 200.704 19.4098L202.07 22.1525C202.113 22.2396 202.134 22.3364 202.129 22.4337C202.125 22.531 202.096 22.6256 202.045 22.7084C201.994 22.7913 201.923 22.8597 201.838 22.9071C201.753 22.9545 201.658 22.9794 201.561 22.9794H201.561Z" fill="#F69E7C"/>
<path d="M186.365 46.635H193.877V42.521H186.365V46.635Z" fill="#CCCCCC"/>
<path d="M190.461 46.635H193.42V43.4352H190.461V46.635Z" fill="white"/>
<path d="M186.82 46.635H189.779V43.4352H186.82V46.635Z" fill="white"/>
<path d="M190.12 51.0918C188.973 51.0905 187.874 50.6325 187.063 49.8184C186.252 49.0043 185.796 47.9005 185.795 46.7492V46.6349C185.795 46.3623 185.903 46.1008 186.095 45.908C186.287 45.7152 186.548 45.6068 186.819 45.6064H193.42C193.692 45.6068 193.952 45.7152 194.144 45.908C194.336 46.1008 194.444 46.3623 194.444 46.6349V46.7492C194.443 47.9005 193.987 49.0043 193.176 49.8184C192.366 50.6325 191.266 51.0905 190.12 51.0918Z" fill="#CCCCCC"/>
<path d="M193.594 43.5495H186.645C186.548 43.5495 186.453 43.5246 186.368 43.4772C186.283 43.4298 186.212 43.3614 186.161 43.2785C186.11 43.1957 186.081 43.1011 186.077 43.0038C186.072 42.9065 186.093 42.8097 186.136 42.7225L187.502 39.9799C187.549 39.8847 187.622 39.8047 187.712 39.7489C187.801 39.6931 187.905 39.6637 188.011 39.6641H192.228C192.334 39.6637 192.438 39.6931 192.528 39.7489C192.618 39.8047 192.69 39.8847 192.737 39.9799L194.103 42.7225C194.146 42.8097 194.167 42.9065 194.162 43.0038C194.158 43.1011 194.129 43.1957 194.078 43.2785C194.027 43.3614 193.956 43.4298 193.871 43.4772C193.786 43.5246 193.691 43.5495 193.594 43.5495H193.594Z" fill="#F69E7C"/>
<path d="M194.787 65.8335H202.299V61.7195H194.787V65.8335Z" fill="#CCCCCC"/>
<path d="M198.885 65.8335H201.844V62.6337H198.885V65.8335Z" fill="white"/>
<path d="M195.242 65.8335H198.201V62.6337H195.242V65.8335Z" fill="white"/>
<path d="M198.542 70.2905C197.395 70.2892 196.296 69.8313 195.485 69.0172C194.674 68.203 194.218 67.0993 194.217 65.948V65.8337C194.217 65.561 194.325 65.2996 194.517 65.1068C194.709 64.9139 194.97 64.8055 195.241 64.8052H201.842C202.114 64.8055 202.374 64.9139 202.566 65.1068C202.758 65.2996 202.866 65.561 202.866 65.8337V65.948C202.865 67.0993 202.409 68.203 201.598 69.0172C200.787 69.8313 199.688 70.2892 198.542 70.2905Z" fill="#CCCCCC"/>
<path d="M202.016 62.748H195.067C194.97 62.748 194.875 62.7231 194.79 62.6757C194.705 62.6282 194.634 62.5598 194.583 62.477C194.532 62.3941 194.503 62.2996 194.499 62.2022C194.494 62.1049 194.515 62.0081 194.558 61.921L195.924 59.1784C195.971 59.0832 196.043 59.0032 196.133 58.9474C196.223 58.8916 196.327 58.8622 196.433 58.8626H200.65C200.756 58.8622 200.86 58.8916 200.95 58.9474C201.04 59.0032 201.112 59.0832 201.159 59.1784L202.525 61.921C202.568 62.0081 202.589 62.1049 202.584 62.2022C202.58 62.2996 202.551 62.3941 202.5 62.477C202.449 62.5598 202.378 62.6282 202.293 62.6757C202.208 62.7231 202.113 62.748 202.016 62.748H202.016Z" fill="#F69E7C"/>
<path d="M221.873 70.4048H214.361V74.5188H221.873V70.4048Z" fill="#CCCCCC"/>
<path d="M217.775 71.3188H214.816V74.5186H217.775V71.3188Z" fill="white"/>
<path d="M221.418 71.3188H218.459V74.5186H221.418V71.3188Z" fill="white"/>
<path d="M214.816 73.7188C214.605 73.719 214.402 73.8034 214.253 73.9533C214.104 74.1033 214.02 74.3066 214.02 74.5187V74.633C214.019 75.1736 214.125 75.709 214.33 76.2086C214.536 76.7083 214.838 77.1623 215.218 77.5448C215.599 77.9272 216.05 78.2307 216.548 78.4377C217.045 78.6447 217.578 78.7513 218.117 78.7513C218.655 78.7513 219.188 78.6447 219.686 78.4377C220.183 78.2307 220.635 77.9272 221.015 77.5448C221.396 77.1623 221.698 76.7083 221.903 76.2086C222.109 75.709 222.214 75.1736 222.214 74.633V74.5187C222.214 74.3066 222.13 74.1033 221.98 73.9533C221.831 73.8034 221.628 73.719 221.417 73.7188H214.816Z" fill="#CCCCCC"/>
<path d="M216.01 67.7764C215.946 67.7762 215.884 67.7938 215.83 67.8273C215.776 67.8608 215.733 67.9088 215.705 67.9659L214.339 70.7085C214.313 70.7608 214.3 70.8189 214.303 70.8773C214.306 70.9356 214.323 70.9924 214.354 71.0421C214.384 71.0918 214.427 71.1328 214.478 71.1613C214.529 71.1898 214.586 71.2047 214.644 71.2047H221.593C221.651 71.2047 221.708 71.1898 221.759 71.1613C221.81 71.1328 221.853 71.0918 221.883 71.0421C221.914 70.9924 221.931 70.9356 221.934 70.8773C221.937 70.8189 221.924 70.7608 221.898 70.7085L220.533 67.9659C220.504 67.9088 220.461 67.8608 220.407 67.8273C220.353 67.7938 220.291 67.7762 220.227 67.7764H216.01Z" fill="#F69E7C"/>
<path d="M117.908 127.442C117.976 127.442 118.042 127.415 118.09 127.367C118.138 127.318 118.165 127.253 118.165 127.184C118.165 127.116 118.138 127.05 118.09 127.002C118.042 126.954 117.976 126.927 117.908 126.927H115.468V125.895H117.908C117.976 125.895 118.042 125.868 118.09 125.819C118.138 125.771 118.165 125.705 118.165 125.637C118.165 125.569 118.138 125.503 118.09 125.455C118.042 125.406 117.976 125.379 117.908 125.379H97.1045C97.0364 125.379 96.971 125.406 96.9229 125.455C96.8747 125.503 96.8477 125.569 96.8477 125.637C96.8477 125.705 96.8747 125.771 96.9229 125.819C96.971 125.868 97.0364 125.895 97.1045 125.895H99.5444V126.927H97.1045C97.0364 126.927 96.971 126.954 96.9229 127.002C96.8747 127.05 96.8477 127.116 96.8477 127.184C96.8477 127.253 96.8747 127.318 96.9229 127.367C96.971 127.415 97.0364 127.442 97.1045 127.442H99.5444V128.474H97.1045C97.0364 128.474 96.971 128.501 96.9229 128.549C96.8747 128.598 96.8477 128.663 96.8477 128.732C96.8477 128.8 96.8747 128.866 96.9229 128.914C96.971 128.962 97.0364 128.99 97.1045 128.99H99.5444V130.021H97.3613C97.2251 130.021 97.0944 130.076 96.9981 130.172C96.9018 130.269 96.8477 130.4 96.8477 130.537C96.8477 130.674 96.9018 130.805 96.9981 130.902C97.0944 130.998 97.2251 131.053 97.3613 131.053H99.4396C99.4244 131.094 99.4165 131.138 99.416 131.182V134.792C99.416 134.895 99.4566 134.993 99.5289 135.066C99.6011 135.138 99.6991 135.179 99.8013 135.179C99.9034 135.179 100.001 135.138 100.074 135.066C100.146 134.993 100.187 134.895 100.187 134.792V131.182C100.186 131.138 100.178 131.094 100.163 131.053H114.85C114.835 131.094 114.827 131.138 114.826 131.182V134.792C114.826 134.895 114.867 134.993 114.939 135.066C115.011 135.138 115.109 135.179 115.211 135.179C115.314 135.179 115.412 135.138 115.484 135.066C115.556 134.993 115.597 134.895 115.597 134.792V131.182C115.596 131.138 115.588 131.094 115.573 131.053H117.651C117.788 131.053 117.918 130.998 118.015 130.902C118.111 130.805 118.165 130.674 118.165 130.537C118.165 130.4 118.111 130.269 118.015 130.172C117.918 130.076 117.788 130.021 117.651 130.021H115.468V128.99H117.908C117.976 128.99 118.042 128.962 118.09 128.914C118.138 128.866 118.165 128.8 118.165 128.732C118.165 128.663 118.138 128.598 118.09 128.549C118.042 128.501 117.976 128.474 117.908 128.474H115.468V127.442H117.908ZM100.058 125.895H114.955V126.927H100.058V125.895ZM114.955 130.021H100.058V128.99H114.955V130.021ZM114.955 128.474H100.058V127.442H114.955V128.474Z" fill="#3F3D56"/>
<path d="M198.166 158.308C198.234 158.308 198.3 158.281 198.348 158.233C198.396 158.184 198.423 158.119 198.423 158.05C198.423 157.982 198.396 157.916 198.348 157.868C198.3 157.82 198.234 157.792 198.166 157.792H195.726V156.761H198.166C198.234 156.761 198.3 156.734 198.348 156.685C198.396 156.637 198.423 156.571 198.423 156.503C198.423 156.435 198.396 156.369 198.348 156.321C198.3 156.272 198.234 156.245 198.166 156.245H177.362C177.294 156.245 177.229 156.272 177.181 156.321C177.133 156.369 177.105 156.435 177.105 156.503C177.105 156.571 177.133 156.637 177.181 156.685C177.229 156.734 177.294 156.761 177.362 156.761H179.802V157.792H177.362C177.294 157.792 177.229 157.82 177.181 157.868C177.133 157.916 177.105 157.982 177.105 158.05C177.105 158.119 177.133 158.184 177.181 158.233C177.229 158.281 177.294 158.308 177.362 158.308H179.802V159.34H177.362C177.294 159.34 177.229 159.367 177.181 159.415C177.133 159.464 177.105 159.529 177.105 159.598C177.105 159.666 177.133 159.732 177.181 159.78C177.229 159.828 177.294 159.856 177.362 159.856H179.802V160.887H177.619C177.483 160.887 177.352 160.941 177.256 161.038C177.16 161.135 177.105 161.266 177.105 161.403C177.105 161.54 177.16 161.671 177.256 161.768C177.352 161.864 177.483 161.919 177.619 161.919H179.697C179.682 161.96 179.674 162.004 179.674 162.048V165.658C179.674 165.709 179.683 165.759 179.703 165.807C179.722 165.854 179.75 165.896 179.786 165.933C179.822 165.969 179.865 165.997 179.911 166.017C179.958 166.036 180.008 166.046 180.059 166.046C180.11 166.046 180.16 166.036 180.207 166.017C180.254 165.997 180.296 165.969 180.332 165.933C180.368 165.896 180.396 165.854 180.415 165.807C180.435 165.759 180.445 165.709 180.444 165.658V162.048C180.444 162.004 180.436 161.96 180.421 161.919H195.108C195.092 161.96 195.084 162.004 195.084 162.048V165.658C195.084 165.761 195.125 165.859 195.197 165.932C195.269 166.004 195.367 166.045 195.469 166.045C195.571 166.045 195.669 166.004 195.742 165.932C195.814 165.859 195.855 165.761 195.855 165.658V162.048C195.854 162.004 195.846 161.96 195.831 161.919H197.909C198.045 161.919 198.176 161.864 198.272 161.768C198.369 161.671 198.423 161.54 198.423 161.403C198.423 161.266 198.369 161.135 198.272 161.038C198.176 160.941 198.045 160.887 197.909 160.887H195.726V159.856H198.166C198.234 159.856 198.299 159.828 198.348 159.78C198.396 159.732 198.423 159.666 198.423 159.598C198.423 159.529 198.396 159.464 198.348 159.415C198.299 159.367 198.234 159.34 198.166 159.34H195.726V158.308L198.166 158.308ZM180.316 156.761H195.212V157.792H180.316V156.761ZM195.212 160.887H180.316V159.856H195.212V160.887ZM195.212 159.34H180.316V158.308H195.212V159.34Z" fill="#3F3D56"/>
<path d="M262.906 124.467C262.974 124.467 263.04 124.44 263.088 124.392C263.136 124.344 263.163 124.278 263.163 124.21C263.163 124.141 263.136 124.076 263.088 124.027C263.04 123.979 262.974 123.952 262.906 123.952H260.466V122.92H262.906C262.974 122.92 263.04 122.893 263.088 122.845C263.136 122.796 263.163 122.731 263.163 122.662C263.163 122.594 263.136 122.528 263.088 122.48C263.04 122.431 262.974 122.404 262.906 122.404H242.103C242.034 122.404 241.969 122.431 241.921 122.48C241.873 122.528 241.846 122.594 241.846 122.662C241.846 122.731 241.873 122.796 241.921 122.845C241.969 122.893 242.034 122.92 242.103 122.92H244.542V123.952H242.103C242.034 123.952 241.969 123.979 241.921 124.027C241.873 124.076 241.846 124.141 241.846 124.21C241.846 124.278 241.873 124.344 241.921 124.392C241.969 124.44 242.034 124.467 242.103 124.467H244.542V125.499H242.103C242.034 125.499 241.969 125.526 241.921 125.575C241.873 125.623 241.846 125.688 241.846 125.757C241.846 125.825 241.873 125.891 241.921 125.939C241.969 125.988 242.034 126.015 242.103 126.015H244.542V127.046H242.359C242.223 127.047 242.093 127.101 241.997 127.198C241.901 127.295 241.847 127.426 241.847 127.562C241.847 127.699 241.901 127.83 241.997 127.926C242.093 128.023 242.223 128.077 242.359 128.078H244.438C244.422 128.119 244.415 128.163 244.414 128.207V131.817C244.414 131.92 244.455 132.018 244.527 132.091C244.599 132.163 244.697 132.204 244.799 132.204C244.902 132.204 244.999 132.163 245.072 132.091C245.144 132.018 245.185 131.92 245.185 131.817V128.207C245.184 128.163 245.176 128.119 245.161 128.078H259.848C259.833 128.119 259.825 128.163 259.824 128.207V131.817C259.824 131.92 259.865 132.018 259.937 132.091C260.009 132.163 260.107 132.204 260.209 132.204C260.312 132.204 260.41 132.163 260.482 132.091C260.554 132.018 260.595 131.92 260.595 131.817V128.207C260.594 128.163 260.586 128.119 260.571 128.078H262.649C262.717 128.078 262.784 128.065 262.846 128.039C262.909 128.013 262.966 127.975 263.014 127.927C263.061 127.879 263.099 127.823 263.125 127.76C263.151 127.697 263.165 127.63 263.165 127.562C263.165 127.494 263.151 127.427 263.125 127.364C263.099 127.302 263.061 127.245 263.014 127.197C262.966 127.149 262.909 127.111 262.846 127.085C262.784 127.059 262.717 127.046 262.649 127.046H260.466V126.015H262.906C262.974 126.015 263.04 125.988 263.088 125.939C263.136 125.891 263.163 125.825 263.163 125.757C263.163 125.688 263.136 125.623 263.088 125.575C263.04 125.526 262.974 125.499 262.906 125.499H260.466V124.467H262.906ZM245.056 122.92H259.953V123.952H245.056V122.92ZM259.953 127.046H245.056V126.015H259.953V127.046ZM259.953 125.499H245.056V124.467H259.953V125.499Z" fill="#3F3D56"/>
<path d="M165.404 189.311C165.404 182.697 160.061 167.003 153.47 167.003C146.878 167.003 141.535 182.697 141.535 189.311C141.537 192.488 142.795 195.534 145.033 197.78C147.271 200.026 150.306 201.287 153.47 201.287C156.634 201.287 159.668 200.026 161.906 197.78C164.144 195.534 165.402 192.488 165.404 189.311Z" fill="#F2F2F2"/>
<path d="M153.47 215.847C153.434 215.847 153.4 215.833 153.374 215.807C153.348 215.782 153.334 215.747 153.334 215.71V187.736C153.334 187.718 153.337 187.7 153.344 187.683C153.351 187.667 153.361 187.651 153.374 187.639C153.386 187.626 153.401 187.616 153.418 187.609C153.435 187.602 153.452 187.598 153.47 187.598C153.488 187.598 153.506 187.602 153.523 187.609C153.539 187.616 153.555 187.626 153.567 187.639C153.58 187.651 153.59 187.667 153.597 187.683C153.604 187.7 153.607 187.718 153.607 187.736V215.71C153.607 215.747 153.593 215.782 153.567 215.807C153.541 215.833 153.507 215.847 153.47 215.847Z" fill="#CCCCCC"/>
<path d="M153.471 192.963C153.451 192.963 153.432 192.959 153.414 192.95C153.396 192.942 153.38 192.93 153.367 192.916L146.504 184.967C146.48 184.94 146.468 184.904 146.471 184.868C146.474 184.832 146.491 184.798 146.518 184.775C146.545 184.751 146.581 184.739 146.617 184.742C146.653 184.744 146.686 184.761 146.71 184.788L153.574 192.736C153.591 192.756 153.602 192.78 153.606 192.806C153.609 192.832 153.605 192.859 153.595 192.883C153.584 192.906 153.566 192.927 153.544 192.941C153.522 192.955 153.497 192.963 153.471 192.963Z" fill="#CCCCCC"/>
<path d="M153.47 197.55C153.443 197.55 153.417 197.542 153.395 197.526C153.372 197.511 153.355 197.49 153.344 197.465C153.334 197.44 153.331 197.412 153.337 197.386C153.342 197.359 153.355 197.335 153.374 197.316L157.274 193.399C157.3 193.374 157.334 193.359 157.371 193.359C157.407 193.359 157.441 193.374 157.467 193.4C157.493 193.425 157.507 193.46 157.507 193.496C157.507 193.533 157.493 193.567 157.467 193.593L153.567 197.509C153.554 197.522 153.539 197.532 153.523 197.539C153.506 197.546 153.488 197.55 153.47 197.55Z" fill="#CCCCCC"/>
<path d="M51.574 59.5258C51.574 52.912 46.2308 37.2178 39.6395 37.2178C33.0483 37.2178 27.7051 52.912 27.7051 59.5258C27.707 62.7027 28.9652 65.7489 31.2032 67.9946C33.4411 70.2404 36.4756 71.5019 39.6395 71.5019C42.8035 71.5019 45.8379 70.2404 48.0759 67.9946C50.3138 65.7489 51.572 62.7027 51.574 59.5258Z" fill="#3F3D56"/>
<path d="M39.6404 86.0619C39.6042 86.0619 39.5695 86.0475 39.5439 86.0218C39.5183 85.9961 39.5039 85.9612 39.5039 85.9249V57.9504C39.5041 57.9142 39.5186 57.8796 39.5441 57.8541C39.5697 57.8285 39.6043 57.8142 39.6404 57.8142C39.6764 57.8142 39.711 57.8285 39.7366 57.8541C39.7622 57.8796 39.7766 57.9142 39.7769 57.9504V85.9248C39.7769 85.9428 39.7733 85.9607 39.7665 85.9773C39.7596 85.9939 39.7496 86.009 39.7369 86.0217C39.7242 86.0345 39.7092 86.0446 39.6926 86.0515C39.6761 86.0583 39.6583 86.0619 39.6404 86.0619Z" fill="#CCCCCC"/>
<path d="M39.6407 63.1771C39.6211 63.1772 39.6018 63.173 39.584 63.1648C39.5662 63.1567 39.5503 63.1448 39.5375 63.1299L32.6737 55.1819C32.6502 55.1544 32.6384 55.1186 32.641 55.0825C32.6436 55.0463 32.6604 55.0126 32.6877 54.9888C32.715 54.9651 32.7506 54.9531 32.7866 54.9557C32.8227 54.9582 32.8562 54.975 32.88 55.0023L39.7438 62.9503C39.7609 62.9702 39.772 62.9945 39.7757 63.0205C39.7794 63.0465 39.7756 63.0731 39.7648 63.097C39.7539 63.1209 39.7365 63.1411 39.7145 63.1553C39.6925 63.1696 39.6669 63.1771 39.6407 63.1772V63.1771Z" fill="#CCCCCC"/>
<path d="M39.6404 67.764C39.6134 67.764 39.587 67.7559 39.5646 67.7409C39.5421 67.7258 39.5246 67.7044 39.5143 67.6794C39.504 67.6544 39.5013 67.6268 39.5065 67.6002C39.5118 67.5736 39.5248 67.5492 39.5439 67.5301L43.444 63.6139C43.4567 63.6011 43.4717 63.591 43.4883 63.5841C43.5048 63.5773 43.5226 63.5737 43.5405 63.5737C43.5584 63.5737 43.5761 63.5773 43.5927 63.5841C43.6092 63.591 43.6243 63.6011 43.637 63.6139C43.6496 63.6266 43.6597 63.6417 43.6665 63.6583C43.6734 63.6749 43.6769 63.6928 43.6769 63.7108C43.6769 63.7287 43.6734 63.7466 43.6665 63.7632C43.6597 63.7798 43.6496 63.7949 43.637 63.8076L39.7369 67.7238C39.7242 67.7366 39.7092 67.7467 39.6926 67.7536C39.676 67.7605 39.6583 67.764 39.6404 67.764Z" fill="#CCCCCC"/>
<path d="M26.7148 85.8802C26.7148 84.5534 27.2398 83.2809 28.1741 82.3427C29.1085 81.4045 30.3758 80.8774 31.6972 80.8774C33.0186 80.8774 34.2859 81.4045 35.2202 82.3427C36.1546 83.2809 36.6795 84.5534 36.6795 85.8802" fill="#F2F2F2"/>
<path d="M31.6972 85.8804C31.6614 85.8804 31.6272 85.8662 31.6019 85.8408C31.5767 85.8155 31.5625 85.7811 31.5625 85.7452V83.1086C31.5625 83.0727 31.5767 83.0383 31.6019 83.013C31.6272 82.9876 31.6614 82.9734 31.6972 82.9734C31.7329 82.9734 31.7671 82.9876 31.7924 83.013C31.8176 83.0383 31.8318 83.0727 31.8318 83.1086V85.7452C31.8318 85.7811 31.8176 85.8155 31.7924 85.8408C31.7671 85.8662 31.7329 85.8804 31.6972 85.8804Z" fill="#CCCCCC"/>
<path d="M31.6958 84.9743C31.6636 84.9743 31.6325 84.9627 31.6081 84.9416L29.9923 83.5491C29.9789 83.5375 29.9678 83.5234 29.9598 83.5076C29.9518 83.4917 29.947 83.4745 29.9457 83.4568C29.9444 83.4391 29.9465 83.4213 29.952 83.4044C29.9575 83.3875 29.9663 83.3719 29.9778 83.3584C29.9893 83.3449 30.0034 83.3339 30.0191 83.3259C30.0349 83.3178 30.0521 83.313 30.0697 83.3117C30.0874 83.3103 30.1051 83.3125 30.1219 83.318C30.1387 83.3235 30.1542 83.3323 30.1677 83.3439L31.7836 84.7365C31.8044 84.7545 31.8193 84.7784 31.8262 84.8052C31.8331 84.8319 31.8317 84.8602 31.8221 84.8861C31.8126 84.912 31.7953 84.9343 31.7727 84.9501C31.7501 84.9658 31.7233 84.9743 31.6958 84.9743H31.6958Z" fill="#CCCCCC"/>
<path d="M42.0645 85.8802C42.0645 84.5534 42.5894 83.2809 43.5237 82.3427C44.4581 81.4045 45.7254 80.8774 47.0468 80.8774C48.3682 80.8774 49.6354 81.4045 50.5698 82.3427C51.5042 83.2809 52.0291 84.5534 52.0291 85.8802" fill="#F2F2F2"/>
<path d="M47.0468 85.8804C47.0111 85.8804 46.9768 85.8662 46.9515 85.8408C46.9263 85.8155 46.9121 85.7811 46.9121 85.7452V83.1086C46.9121 83.0727 46.9263 83.0383 46.9515 83.013C46.9768 82.9876 47.0111 82.9734 47.0468 82.9734C47.0825 82.9734 47.1167 82.9876 47.142 83.013C47.1672 83.0383 47.1814 83.0727 47.1814 83.1086V85.7452C47.1814 85.7811 47.1672 85.8155 47.142 85.8408C47.1167 85.8662 47.0825 85.8804 47.0468 85.8804Z" fill="#CCCCCC"/>
<path d="M47.0468 84.9743C47.0147 84.9743 46.9836 84.9628 46.9592 84.9417L45.3433 83.5491C45.3164 83.5257 45.2998 83.4925 45.2972 83.4569C45.2946 83.4213 45.3062 83.386 45.3293 83.3589C45.3525 83.3318 45.3855 83.315 45.4209 83.3122C45.4564 83.3094 45.4916 83.3208 45.5187 83.3439L47.1346 84.7365C47.1555 84.7545 47.1704 84.7784 47.1773 84.8052C47.1842 84.8319 47.1827 84.8602 47.1732 84.8861C47.1636 84.912 47.1464 84.9343 47.1238 84.9501C47.1012 84.9658 47.0743 84.9743 47.0468 84.9743V84.9743Z" fill="#CCCCCC"/>
<path d="M302.306 188.939C302.306 182.326 296.963 166.631 290.372 166.631C283.781 166.631 278.438 182.326 278.438 188.939C278.439 192.116 279.698 195.162 281.936 197.408C284.174 199.654 287.208 200.916 290.372 200.916C293.536 200.916 296.57 199.654 298.808 197.408C301.046 195.162 302.304 192.116 302.306 188.939Z" fill="#F69E7C"/>
<path d="M290.373 215.476C290.337 215.476 290.302 215.461 290.276 215.435C290.251 215.41 290.236 215.375 290.236 215.338V187.364C290.236 187.346 290.24 187.328 290.246 187.311C290.253 187.295 290.263 187.28 290.276 187.267C290.289 187.254 290.304 187.244 290.32 187.237C290.337 187.23 290.355 187.226 290.373 187.226C290.391 187.226 290.409 187.23 290.425 187.237C290.442 187.244 290.457 187.254 290.47 187.267C290.482 187.28 290.492 187.295 290.499 187.311C290.506 187.328 290.509 187.346 290.509 187.364V215.339C290.509 215.375 290.495 215.41 290.469 215.435C290.444 215.461 290.409 215.476 290.373 215.476Z" fill="#CCCCCC"/>
<path d="M290.373 192.591C290.353 192.591 290.334 192.587 290.316 192.578C290.298 192.57 290.282 192.558 290.27 192.543L283.406 184.595C283.382 184.568 283.371 184.532 283.373 184.496C283.376 184.46 283.393 184.426 283.42 184.403C283.447 184.379 283.483 184.367 283.519 184.369C283.555 184.372 283.588 184.389 283.612 184.416L290.476 192.364C290.493 192.384 290.504 192.408 290.508 192.434C290.512 192.46 290.508 192.487 290.497 192.511C290.486 192.534 290.469 192.555 290.447 192.569C290.425 192.583 290.399 192.591 290.373 192.591V192.591Z" fill="#CCCCCC"/>
<path d="M290.373 197.178C290.346 197.178 290.319 197.17 290.297 197.155C290.275 197.14 290.257 197.118 290.247 197.093C290.236 197.068 290.234 197.041 290.239 197.014C290.244 196.987 290.257 196.963 290.276 196.944L294.176 193.028C294.189 193.015 294.204 193.005 294.221 192.998C294.237 192.991 294.255 192.988 294.273 192.988C294.291 192.988 294.309 192.991 294.325 192.998C294.342 193.005 294.357 193.015 294.369 193.028C294.382 193.04 294.392 193.056 294.399 193.072C294.406 193.089 294.409 193.107 294.409 193.125C294.409 193.143 294.406 193.16 294.399 193.177C294.392 193.194 294.382 193.209 294.369 193.221L290.469 197.138C290.457 197.15 290.442 197.161 290.425 197.167C290.408 197.174 290.391 197.178 290.373 197.178Z" fill="#CCCCCC"/>
<path d="M114.967 191.036H112.654C112.482 191.036 112.317 190.967 112.195 190.845C112.073 190.722 112.004 190.556 112.004 190.383V187.335C112.004 187.162 112.073 186.996 112.195 186.873C112.317 186.751 112.482 186.682 112.654 186.682H114.967C115.14 186.682 115.305 186.751 115.427 186.873C115.549 186.996 115.618 187.162 115.618 187.335V190.383C115.618 190.556 115.549 190.722 115.427 190.845C115.305 190.967 115.14 191.036 114.967 191.036Z" fill="#3F3D56"/>
<path d="M134.483 215.857H122.629C122.303 215.856 121.991 215.726 121.761 215.495C121.53 215.264 121.401 214.95 121.4 214.623V191.544C121.401 191.217 121.53 190.904 121.761 190.672C121.991 190.441 122.303 190.311 122.629 190.311H134.483C134.808 190.311 135.121 190.441 135.351 190.672C135.581 190.904 135.711 191.217 135.711 191.544V214.623C135.711 214.95 135.581 215.264 135.351 215.495C135.121 215.726 134.808 215.856 134.483 215.857Z" fill="#3F3D56"/>
<path d="M127.4 215.857H106.873C106.547 215.856 106.235 215.726 106.005 215.495C105.774 215.264 105.645 214.95 105.645 214.623V191.544C105.645 191.217 105.774 190.904 106.005 190.672C106.235 190.441 106.547 190.311 106.873 190.311H127.4C127.726 190.311 128.038 190.441 128.268 190.672C128.499 190.904 128.628 191.217 128.629 191.544V214.623C128.628 214.95 128.499 215.264 128.268 215.495C128.038 215.726 127.726 215.856 127.4 215.857Z" fill="#F69E7C"/>
<path d="M112.799 191.036H110.486C110.314 191.036 110.149 190.967 110.027 190.845C109.905 190.722 109.836 190.556 109.836 190.383V187.335C109.836 187.162 109.905 186.996 110.027 186.873C110.149 186.751 110.314 186.682 110.486 186.682H112.799C112.972 186.682 113.137 186.751 113.259 186.873C113.381 186.996 113.45 187.162 113.45 187.335V190.383C113.45 190.556 113.381 190.722 113.259 190.845C113.137 190.967 112.972 191.036 112.799 191.036Z" fill="#F69E7C"/>
<path d="M115.834 201.705H113.088C112.992 201.704 112.9 201.666 112.833 201.598C112.765 201.53 112.727 201.438 112.727 201.342V197.132C112.727 197.036 112.765 196.944 112.833 196.876C112.9 196.808 112.992 196.77 113.088 196.77H115.834C115.93 196.77 116.022 196.808 116.09 196.876C116.158 196.944 116.196 197.036 116.196 197.132V201.342C116.196 201.438 116.158 201.53 116.09 201.598C116.022 201.666 115.93 201.704 115.834 201.705Z" fill="white"/>
<path d="M121.184 201.705H118.438C118.342 201.704 118.25 201.666 118.182 201.598C118.114 201.53 118.076 201.438 118.076 201.342V197.132C118.076 197.036 118.114 196.944 118.182 196.876C118.25 196.808 118.342 196.77 118.438 196.77H121.184C121.28 196.77 121.372 196.808 121.44 196.876C121.507 196.944 121.545 197.036 121.546 197.132V201.342C121.545 201.438 121.507 201.53 121.44 201.598C121.372 201.666 121.28 201.704 121.184 201.705Z" fill="white"/>
<path d="M115.834 209.397H113.088C112.992 209.397 112.9 209.359 112.833 209.291C112.765 209.223 112.727 209.131 112.727 209.035V204.825C112.727 204.729 112.765 204.637 112.833 204.569C112.9 204.501 112.992 204.463 113.088 204.462H115.834C115.93 204.463 116.022 204.501 116.09 204.569C116.158 204.637 116.196 204.729 116.196 204.825V209.035C116.196 209.131 116.158 209.223 116.09 209.291C116.022 209.359 115.93 209.397 115.834 209.397Z" fill="white"/>
<path d="M121.184 209.397H118.438C118.342 209.397 118.25 209.359 118.182 209.291C118.114 209.223 118.076 209.131 118.076 209.035V204.825C118.076 204.729 118.114 204.637 118.182 204.569C118.25 204.501 118.342 204.463 118.438 204.462H121.184C121.28 204.463 121.372 204.501 121.44 204.569C121.507 204.637 121.545 204.729 121.546 204.825V209.035C121.545 209.131 121.507 209.223 121.44 209.291C121.372 209.359 121.28 209.397 121.184 209.397Z" fill="white"/>
<path d="M32.6925 118.694H29.9645C29.7611 118.693 29.5661 118.612 29.4222 118.468C29.2784 118.323 29.1975 118.128 29.1973 117.923V111.589C29.1975 111.385 29.2784 111.189 29.4222 111.044C29.5661 110.9 29.7611 110.819 29.9645 110.819H32.6925C32.8959 110.819 33.0909 110.9 33.2347 111.044C33.3786 111.189 33.4595 111.385 33.4597 111.589V117.923C33.4595 118.128 33.3786 118.323 33.2347 118.468C33.0909 118.612 32.8959 118.693 32.6925 118.694Z" fill="#3F3D56"/>
<path d="M43.4339 177.757H29.4531C29.0689 177.756 28.7005 177.603 28.4289 177.33C28.1572 177.057 28.0043 176.687 28.0039 176.301V119.635C28.0043 119.249 28.1572 118.879 28.4289 118.607C28.7005 118.334 29.0689 118.18 29.4531 118.18H43.4339C43.8181 118.18 44.1865 118.334 44.4582 118.607C44.7299 118.879 44.8827 119.249 44.8831 119.635V176.301C44.8827 176.687 44.7299 177.057 44.4582 177.33C44.1865 177.603 43.8181 177.756 43.4339 177.757Z" fill="#3F3D56"/>
<path d="M35.0804 177.757H21.0996C20.7154 177.756 20.347 177.603 20.0753 177.33C19.8036 177.057 19.6508 176.687 19.6504 176.301V119.635C19.6508 119.249 19.8036 118.879 20.0753 118.607C20.347 118.334 20.7154 118.18 21.0996 118.18H35.0804C35.4646 118.18 35.833 118.334 36.1047 118.607C36.3764 118.879 36.5292 119.249 36.5296 119.635V176.301C36.5292 176.687 36.3764 177.057 36.1047 177.33C35.833 177.603 35.4646 177.756 35.0804 177.757Z" fill="#F69E7C"/>
<path d="M30.1358 118.694H27.4079C27.2044 118.693 27.0094 118.612 26.8656 118.468C26.7218 118.323 26.6409 118.128 26.6406 117.923V111.589C26.6409 111.385 26.7218 111.189 26.8656 111.044C27.0094 110.9 27.2044 110.819 27.4079 110.819H30.1358C30.3392 110.819 30.5343 110.9 30.6781 111.044C30.8219 111.189 30.9028 111.385 30.9031 111.589V117.923C30.9028 118.128 30.8219 118.323 30.6781 118.468C30.5343 118.612 30.3392 118.693 30.1358 118.694Z" fill="#F69E7C"/>
<path d="M26.5544 131.02H23.3149C23.2019 131.02 23.0936 130.974 23.0137 130.894C22.9337 130.814 22.8888 130.705 22.8887 130.592V125.627C22.8888 125.514 22.9337 125.405 23.0137 125.324C23.0936 125.244 23.2019 125.199 23.3149 125.199H26.5544C26.6674 125.199 26.7757 125.244 26.8556 125.324C26.9355 125.405 26.9805 125.514 26.9806 125.627V130.592C26.9805 130.705 26.9355 130.814 26.8556 130.894C26.7757 130.974 26.6674 131.02 26.5544 131.02Z" fill="white"/>
<path d="M32.863 131.02H29.6235C29.5105 131.02 29.4022 130.974 29.3223 130.894C29.2424 130.814 29.1974 130.705 29.1973 130.592V125.627C29.1974 125.514 29.2424 125.405 29.3223 125.324C29.4022 125.244 29.5105 125.199 29.6235 125.199H32.863C32.976 125.199 33.0843 125.244 33.1642 125.324C33.2441 125.405 33.2891 125.514 33.2892 125.627V130.592C33.2891 130.705 33.2441 130.814 33.1642 130.894C33.0843 130.974 32.976 131.02 32.863 131.02Z" fill="white"/>
<path d="M26.5544 140.093H23.3149C23.2019 140.093 23.0936 140.048 23.0137 139.968C22.9337 139.887 22.8888 139.779 22.8887 139.665V134.7C22.8888 134.587 22.9337 134.478 23.0137 134.398C23.0936 134.318 23.2019 134.273 23.3149 134.272H26.5544C26.6674 134.273 26.7757 134.318 26.8556 134.398C26.9355 134.478 26.9805 134.587 26.9806 134.7V139.665C26.9805 139.779 26.9355 139.887 26.8556 139.968C26.7757 140.048 26.6674 140.093 26.5544 140.093Z" fill="white"/>
<path d="M32.863 140.093H29.6235C29.5105 140.093 29.4022 140.048 29.3223 139.968C29.2424 139.887 29.1974 139.779 29.1973 139.665V134.7C29.1974 134.587 29.2424 134.478 29.3223 134.398C29.4022 134.318 29.5105 134.273 29.6235 134.272H32.863C32.976 134.273 33.0843 134.318 33.1642 134.398C33.2441 134.478 33.2891 134.587 33.2892 134.7V139.665C33.2891 139.779 33.2441 139.887 33.1642 139.968C33.0843 140.048 32.976 140.093 32.863 140.093Z" fill="white"/>
<path d="M26.5544 149.167H23.3149C23.2019 149.166 23.0936 149.121 23.0137 149.041C22.9337 148.961 22.8888 148.852 22.8887 148.739V143.774C22.8888 143.66 22.9337 143.552 23.0137 143.471C23.0936 143.391 23.2019 143.346 23.3149 143.346H26.5544C26.6674 143.346 26.7757 143.391 26.8556 143.471C26.9355 143.552 26.9805 143.66 26.9806 143.774V148.739C26.9805 148.852 26.9355 148.961 26.8556 149.041C26.7757 149.121 26.6674 149.166 26.5544 149.167Z" fill="white"/>
<path d="M32.863 149.167H29.6235C29.5105 149.166 29.4022 149.121 29.3223 149.041C29.2424 148.961 29.1974 148.852 29.1973 148.739V143.774C29.1974 143.66 29.2424 143.552 29.3223 143.471C29.4022 143.391 29.5105 143.346 29.6235 143.346H32.863C32.976 143.346 33.0843 143.391 33.1642 143.471C33.2441 143.552 33.2891 143.66 33.2892 143.774V148.739C33.2891 148.852 33.2441 148.961 33.1642 149.041C33.0843 149.121 32.976 149.166 32.863 149.167Z" fill="white"/>
<path d="M26.5544 158.24H23.3149C23.2019 158.24 23.0936 158.195 23.0137 158.115C22.9337 158.034 22.8888 157.926 22.8887 157.812V152.847C22.8888 152.734 22.9337 152.625 23.0137 152.545C23.0936 152.465 23.2019 152.42 23.3149 152.419H26.5544C26.6674 152.42 26.7757 152.465 26.8556 152.545C26.9355 152.625 26.9805 152.734 26.9806 152.847V157.812C26.9805 157.926 26.9355 158.034 26.8556 158.115C26.7757 158.195 26.6674 158.24 26.5544 158.24Z" fill="white"/>
<path d="M32.863 158.24H29.6235C29.5105 158.24 29.4022 158.195 29.3223 158.115C29.2424 158.034 29.1974 157.926 29.1973 157.812V152.847C29.1974 152.734 29.2424 152.625 29.3223 152.545C29.4022 152.465 29.5105 152.42 29.6235 152.419H32.863C32.976 152.42 33.0843 152.465 33.1642 152.545C33.2441 152.625 33.2891 152.734 33.2892 152.847V157.812C33.2891 157.926 33.2441 158.034 33.1642 158.115C33.0843 158.195 32.976 158.24 32.863 158.24Z" fill="white"/>
<path d="M26.5544 167.314H23.3149C23.2019 167.313 23.0936 167.268 23.0137 167.188C22.9337 167.108 22.8888 166.999 22.8887 166.886V161.921C22.8888 161.807 22.9337 161.699 23.0137 161.618C23.0936 161.538 23.2019 161.493 23.3149 161.493H26.5544C26.6674 161.493 26.7757 161.538 26.8556 161.618C26.9355 161.699 26.9805 161.807 26.9806 161.921V166.886C26.9805 166.999 26.9355 167.108 26.8556 167.188C26.7757 167.268 26.6674 167.313 26.5544 167.314Z" fill="white"/>
<path d="M32.863 167.314H29.6235C29.5105 167.313 29.4022 167.268 29.3223 167.188C29.2424 167.108 29.1974 166.999 29.1973 166.886V161.921C29.1974 161.807 29.2424 161.699 29.3223 161.618C29.4022 161.538 29.5105 161.493 29.6235 161.493H32.863C32.976 161.493 33.0843 161.538 33.1642 161.618C33.2441 161.699 33.2891 161.807 33.2892 161.921V166.886C33.2891 166.999 33.2441 167.108 33.1642 167.188C33.0843 167.268 32.976 167.313 32.863 167.314Z" fill="white"/>
<path d="M249.667 191.114H247.354C247.181 191.114 247.016 191.045 246.894 190.922C246.772 190.8 246.703 190.634 246.703 190.461V187.413C246.703 187.24 246.772 187.073 246.894 186.951C247.016 186.829 247.181 186.76 247.354 186.76H249.667C249.839 186.76 250.004 186.829 250.126 186.951C250.248 187.073 250.317 187.24 250.317 187.413V190.461C250.317 190.634 250.248 190.8 250.126 190.922C250.004 191.045 249.839 191.114 249.667 191.114Z" fill="#3F3D56"/>
<path d="M269.18 215.934H257.326C257.001 215.934 256.688 215.804 256.458 215.573C256.228 215.341 256.098 215.028 256.098 214.701V191.622C256.098 191.295 256.228 190.981 256.458 190.75C256.688 190.519 257.001 190.389 257.326 190.388H269.18C269.506 190.389 269.818 190.519 270.048 190.75C270.279 190.981 270.408 191.295 270.409 191.622V214.701C270.408 215.028 270.279 215.341 270.048 215.573C269.818 215.804 269.506 215.934 269.18 215.934Z" fill="#3F3D56"/>
<path d="M262.097 215.934H241.571C241.245 215.934 240.932 215.804 240.702 215.573C240.472 215.341 240.342 215.028 240.342 214.701V191.622C240.342 191.295 240.472 190.981 240.702 190.75C240.932 190.519 241.245 190.389 241.571 190.388H262.097C262.423 190.389 262.735 190.519 262.966 190.75C263.196 190.981 263.326 191.295 263.326 191.622V214.701C263.326 215.028 263.196 215.341 262.966 215.573C262.735 215.804 262.423 215.934 262.097 215.934Z" fill="#F69E7C"/>
<path d="M247.497 191.114H245.184C245.011 191.114 244.846 191.045 244.724 190.922C244.602 190.8 244.533 190.634 244.533 190.461V187.413C244.533 187.24 244.602 187.073 244.724 186.951C244.846 186.829 245.011 186.76 245.184 186.76H247.497C247.669 186.76 247.834 186.829 247.956 186.951C248.078 187.073 248.147 187.24 248.147 187.413V190.461C248.147 190.634 248.078 190.8 247.956 190.922C247.834 191.045 247.669 191.114 247.497 191.114Z" fill="#F69E7C"/>
<path d="M250.534 201.782H247.787C247.691 201.782 247.6 201.744 247.532 201.676C247.464 201.608 247.426 201.516 247.426 201.42V197.21C247.426 197.114 247.464 197.022 247.532 196.954C247.6 196.886 247.691 196.848 247.787 196.847H250.534C250.63 196.848 250.721 196.886 250.789 196.954C250.857 197.022 250.895 197.114 250.895 197.21V201.42C250.895 201.516 250.857 201.608 250.789 201.676C250.721 201.744 250.63 201.782 250.534 201.782Z" fill="white"/>
<path d="M255.881 201.782H253.135C253.039 201.782 252.947 201.744 252.879 201.676C252.812 201.608 252.774 201.516 252.773 201.42V197.21C252.774 197.114 252.812 197.022 252.879 196.954C252.947 196.886 253.039 196.848 253.135 196.847H255.881C255.977 196.848 256.069 196.886 256.137 196.954C256.205 197.022 256.243 197.114 256.243 197.21V201.42C256.243 201.516 256.205 201.608 256.137 201.676C256.069 201.744 255.977 201.782 255.881 201.782Z" fill="white"/>
<path d="M250.534 209.475H247.787C247.691 209.475 247.6 209.437 247.532 209.369C247.464 209.301 247.426 209.209 247.426 209.112V204.903C247.426 204.807 247.464 204.715 247.532 204.647C247.6 204.579 247.691 204.54 247.787 204.54H250.534C250.63 204.54 250.721 204.579 250.789 204.647C250.857 204.715 250.895 204.807 250.895 204.903V209.112C250.895 209.209 250.857 209.301 250.789 209.369C250.721 209.437 250.63 209.475 250.534 209.475Z" fill="white"/>
<path d="M255.881 209.475H253.135C253.039 209.475 252.947 209.437 252.879 209.369C252.812 209.301 252.774 209.209 252.773 209.112V204.903C252.774 204.807 252.812 204.715 252.879 204.647C252.947 204.579 253.039 204.54 253.135 204.54H255.881C255.977 204.54 256.069 204.579 256.137 204.647C256.205 204.715 256.243 204.807 256.243 204.903V209.112C256.243 209.209 256.205 209.301 256.137 209.369C256.069 209.437 255.977 209.475 255.881 209.475Z" fill="white"/>
</g>
<defs>
<clipPath id="clip0_599_2216">
<rect width="323" height="262" fill="white"/>
</clipPath>
</defs>
</svg>
