<svg width="293" height="263" viewBox="0 0 293 263" fill="none" xmlns="http://www.w3.org/2000/svg">
<path d="M64.5436 171.433C63.9907 171.459 63.4433 171.313 62.9756 171.016C62.508 170.718 62.1427 170.284 61.9291 169.771C61.7156 169.258 61.6642 168.692 61.7819 168.149C61.8996 167.606 62.1807 167.113 62.5872 166.735C62.6552 166.464 62.7041 166.269 62.7721 165.997C62.7478 165.938 62.7233 165.879 62.6986 165.82C60.2134 159.869 51.7906 159.911 49.3265 165.87C47.1394 171.158 44.3548 176.456 43.6692 182.049C43.3673 184.52 43.4946 187.026 44.0457 189.454C38.9088 178.203 36.2414 165.975 36.2242 153.598C36.2231 150.492 36.395 147.389 36.739 144.302C37.0233 141.772 37.4177 139.26 37.9222 136.765C40.6755 123.231 46.5869 110.546 55.1708 99.7519C59.3255 97.4758 62.6854 93.9757 64.7978 89.7232C65.5631 88.1946 66.104 86.5628 66.4036 84.8786C65.935 84.9403 65.4586 84.9789 64.9899 85.0097C64.8439 85.0174 64.6903 85.0251 64.5443 85.0329L64.4892 85.0354C63.9741 85.0586 63.4634 84.9318 63.0184 84.6703C62.5734 84.4088 62.2132 84.0237 61.9811 83.5615C61.749 83.0992 61.6549 82.5794 61.7102 82.0647C61.7654 81.55 61.9677 81.0623 62.2926 80.6603C62.495 80.4103 62.6975 80.1604 62.9001 79.9106C63.2075 79.5248 63.5224 79.1468 63.8297 78.7611C63.8652 78.7245 63.8986 78.6858 63.9296 78.6454C64.2831 78.2056 64.6365 77.7737 64.9899 77.3339C64.3448 76.3286 63.4771 75.4864 62.4545 74.8731C58.9125 72.7902 54.0261 74.2328 51.4676 77.4497C48.9014 80.6665 48.4174 85.1795 49.3086 89.1986C50.0693 92.6392 51.7288 95.7944 53.5958 98.7952C53.4037 99.0421 53.2039 99.2813 53.0119 99.5282C49.5006 104.061 46.4404 108.929 43.8749 114.062C44.6007 108.369 43.5291 101.511 41.7023 97.0904C39.6227 92.0533 35.7249 87.8111 32.2924 83.4565C28.1694 78.2261 19.7149 80.5088 18.9885 87.1392C18.9815 87.2034 18.9746 87.2676 18.9679 87.3317C19.4777 87.6205 19.9768 87.9271 20.4651 88.2513C21.0786 88.6628 21.5539 89.2508 21.8288 89.9382C22.1037 90.6256 22.1655 91.3804 22.0059 92.1036C21.8463 92.8268 21.4729 93.4847 20.9345 93.9912C20.3961 94.4977 19.7179 94.8291 18.9888 94.9419L18.9141 94.9535C19.0958 96.7985 19.4168 98.6269 19.8745 100.423C21.2008 105.437 23.5444 110.122 26.7584 114.184C29.9724 118.246 33.9876 121.598 38.5522 124.029C38.8518 124.183 39.1438 124.337 39.4435 124.484C36.866 131.818 35.2492 139.458 34.6338 147.211C34.2855 151.784 34.306 156.379 34.6953 160.95C34.6876 160.896 34.6799 160.842 34.6722 160.788C33.6887 155.705 30.9885 151.119 27.0275 147.805C21.1445 142.952 12.8328 141.165 6.48605 137.265C3.43089 135.387 -0.484061 137.814 0.0491462 141.37C0.0576638 141.427 0.0663135 141.484 0.0751009 141.541C1.02121 141.927 1.9424 142.373 2.83332 142.875C3.34316 143.164 3.84223 143.47 4.33053 143.795C4.94396 144.206 5.41928 144.794 5.69421 145.482C5.96914 146.169 6.03086 146.924 5.87128 147.647C5.7117 148.37 5.33827 149.028 4.79991 149.535C4.26154 150.041 3.58336 150.372 2.85422 150.485L2.77949 150.497C2.72573 150.505 2.67961 150.512 2.62591 150.52C4.24247 154.396 6.51137 157.963 9.33324 161.065C12.8192 164.821 17.0324 167.822 21.7146 169.885C26.3968 171.948 31.4493 173.029 36.5623 173.061H36.57C37.9579 179.117 39.9689 185.012 42.5705 190.65H64.0064C64.0833 190.411 64.1525 190.164 64.2216 189.925C62.2375 190.05 60.2455 189.931 58.2902 189.57C59.8806 187.611 61.471 185.636 63.0614 183.676C63.0969 183.64 63.1303 183.601 63.1613 183.561C63.968 182.558 64.7825 181.563 65.5892 180.56L65.5896 180.558C65.6326 177.484 65.2813 174.418 64.5443 171.434L64.5436 171.433Z" fill="#8991A7"/>
<path d="M270.354 193.146C255.835 193.763 247.625 193.314 237.04 184.089C229.834 183.897 224.106 178.664 224.271 172.425C224.436 166.186 230.434 161.266 237.64 161.459L263.805 162.704C271.011 162.897 284.412 162.452 284.247 168.691C284.166 171.754 284.164 175.727 283.882 179.888C283.649 183.383 282.139 186.668 279.643 189.115C277.147 191.561 273.839 192.997 270.354 193.146Z" fill="#2F2E41"/>
<path d="M223.716 251.55L216.22 252.78L207.928 224.332L218.992 222.517L223.716 251.55Z" fill="#FFB6B6"/>
<path d="M220.738 192.231C234.715 195.681 245.036 191.795 253.537 192.299C258.369 184.112 273.794 173.713 265.378 169.336C260.691 166.899 213.045 161.279 206.791 167.765C190.707 184.442 210.676 237.109 210.676 237.109L221.783 236.965L225.332 231.879L222.473 226.337L225.177 221.805L222.083 217.137L220.738 192.231Z" fill="#2F2E41"/>
<path d="M228.873 257.234L223.962 258.555L221.844 254.134L220.84 259.394L207.814 262.896C207.189 263.064 206.528 263.027 205.926 262.791C205.324 262.554 204.813 262.131 204.467 261.582C204.122 261.034 203.96 260.389 204.006 259.741C204.051 259.094 204.302 258.478 204.72 257.984L213.199 247.974L211.944 243.267L223.06 240.981L228.873 257.234Z" fill="#2F2E41"/>
<path d="M285.152 242.278L279.681 247.569L256.752 228.899L264.827 221.09L285.152 242.278Z" fill="#FFB6B6"/>
<path d="M241.048 183.455C253.86 188.41 265.066 182.9 276.137 176.512C275.477 167.018 275.108 153.33 265.706 154.533C260.47 155.203 217.194 162.383 215.721 171.289C211.931 194.189 266.247 237.841 266.247 237.841L275.303 231.383L275.343 225.174L269.854 222.245L269.512 216.974L264.324 214.9L241.048 183.455Z" fill="#2F2E41"/>
<path d="M292.613 244.011L289.32 247.901L285.075 245.474L287.227 250.374L278.493 260.69C278.075 261.185 277.51 261.532 276.881 261.681C276.251 261.83 275.591 261.774 274.997 261.52C274.402 261.266 273.903 260.827 273.574 260.269C273.245 259.71 273.103 259.06 273.167 258.415L274.475 245.34L270.777 242.184L278.628 233.958L292.613 244.011Z" fill="#2F2E41"/>
<path d="M234.291 164.567C233.389 164.567 232.876 164.389 232.678 164.008C232.386 163.449 230.526 162.718 231.112 161.872C231.52 161.282 232.505 160.492 232.126 160.038C230.665 158.286 227.017 108.039 226.157 101.184C225.946 99.0621 226.232 96.9202 226.993 94.9296C229.402 88.0793 232.688 85.9739 239.237 81.7802C239.768 81.4397 240.322 81.0841 240.897 80.7134C241.641 80.2331 241.6 81.3548 241.556 79.6684C241.507 77.7941 241.457 75.8558 242.371 74.6443L242.431 74.5653L242.527 74.5429C244.739 74.0295 252.178 73.0763 256.584 74.5498L256.645 74.5707L256.69 74.616C257.737 75.6668 257.832 77.7023 257.925 79.6705C258 81.2865 258.072 80.0981 258.664 80.7609C260.927 83.294 264.337 84.7576 267.182 85.588C268.965 86.1022 270.526 87.199 271.618 88.7047C272.71 90.2104 273.271 92.0389 273.211 93.9006C272.902 103.278 273.145 118.107 271.551 128.556C268.898 145.948 293.12 171.064 279.246 171.58C279.282 171.635 279.301 171.698 279.303 171.763C279.305 171.828 279.289 171.893 279.257 171.949C278.267 173.807 237.693 164.567 234.291 164.567Z" fill="#8991A7"/>
<path d="M248.333 73.147C257.466 73.147 264.871 65.7127 264.871 56.542C264.871 47.3713 257.466 39.937 248.333 39.937C239.199 39.937 231.795 47.3713 231.795 56.542C231.795 65.7127 239.199 73.147 248.333 73.147Z" fill="#2F2E41"/>
<path d="M249.665 74.5176C256.226 74.331 261.394 68.8391 261.208 62.2512C261.022 55.6633 255.553 50.4741 248.991 50.6608C242.43 50.8475 237.262 56.3393 237.448 62.9272C237.634 69.5151 243.103 74.7043 249.665 74.5176Z" fill="#FFB6B6"/>
<path d="M249.443 44.3904L244.626 44.5274C241.589 44.6163 238.712 45.9109 236.626 48.1273C234.539 50.3437 233.414 53.3007 233.496 56.3493L233.499 56.4565L233.587 56.5117C236.206 58.2514 239.297 59.1344 242.435 59.0394L242.706 59.0317L245.368 58.9106C245.816 57.7529 245.966 56.5005 245.804 55.2693C246.206 56.4364 246.519 57.6323 246.742 58.8468L258.687 58.3008C259.382 58.2662 260.036 57.9603 260.509 57.4484C260.983 56.9365 261.238 56.259 261.222 55.5606C261.132 52.5121 259.842 49.6238 257.633 47.5296C255.425 45.4355 252.48 44.3064 249.443 44.3904Z" fill="#2F2E41"/>
<path d="M239.843 41.3958C238.756 42.7423 237.009 43.3033 235.44 44.0325C232.672 45.3469 230.265 47.3194 228.428 49.7789C226.591 52.2385 225.379 55.1109 224.898 58.147C224.528 60.6194 224.657 63.1642 224.031 65.5821C223.41 67.9998 221.769 70.4012 219.331 70.887C217.681 71.2185 216.001 70.623 214.423 70.0328C213.556 69.7111 212.688 69.388 211.821 69.0635C212.652 66.7842 213.481 64.5049 214.31 62.2256C212.936 64.3935 211.324 66.3994 209.505 68.2057C206.396 67.0488 203.284 65.8919 200.17 64.7351C207.746 64.5484 206.245 57.2014 207.731 49.7446C208.548 45.6471 216.403 42.6648 217.849 38.7473C218.63 36.6226 220.001 34.767 221.799 33.4003C223.598 32.0335 225.749 31.2127 227.998 31.0351C230.247 30.8574 232.499 31.3303 234.488 32.3979C236.478 33.4654 238.121 35.0829 239.223 37.0588C240.796 37.6367 240.91 40.0665 239.843 41.3958Z" fill="#2F2E41"/>
<path d="M240.6 46.3343C244.001 46.3343 246.758 43.566 246.758 40.1512C246.758 36.7363 244.001 33.968 240.6 33.968C237.199 33.968 234.441 36.7363 234.441 40.1512C234.441 43.566 237.199 46.3343 240.6 46.3343Z" fill="#2F2E41"/>
<path d="M262.475 135.551H234.045C233.071 135.55 232.138 135.161 231.45 134.47C230.761 133.779 230.374 132.841 230.373 131.864V101.18C230.374 100.203 230.761 99.2657 231.45 98.5745C232.138 97.8833 233.071 97.4945 234.045 97.4934H262.475C263.449 97.4945 264.382 97.8833 265.07 98.5745C265.759 99.2657 266.146 100.203 266.147 101.18V131.864C266.146 132.841 265.759 133.779 265.07 134.47C264.382 135.161 263.449 135.55 262.475 135.551Z" fill="#3F3D56"/>
<path d="M234.844 104.122C236.02 104.122 236.974 103.164 236.974 101.984C236.974 100.803 236.02 99.8455 234.844 99.8455C233.668 99.8455 232.715 100.803 232.715 101.984C232.715 103.164 233.668 104.122 234.844 104.122Z" fill="#E6E6E6"/>
<path d="M234.844 103.266C235.55 103.266 236.122 102.692 236.122 101.984C236.122 101.275 235.55 100.701 234.844 100.701C234.138 100.701 233.566 101.275 233.566 101.984C233.566 102.692 234.138 103.266 234.844 103.266Z" fill="#3F3D56"/>
<path d="M243.774 134.061L224.246 129.089L221.211 139.177C221.211 139.177 242.22 140.739 243.005 140.747C243.592 141.581 244.418 142.217 245.373 142.57C246.328 142.923 247.367 142.976 248.353 142.724C249.339 142.471 250.225 141.923 250.894 141.154C251.564 140.384 251.985 139.429 252.101 138.414C252.218 137.399 252.025 136.372 251.548 135.47C251.071 134.567 250.333 133.832 249.43 133.36C248.527 132.888 247.503 132.702 246.494 132.828C245.484 132.953 244.535 133.383 243.774 134.061V134.061Z" fill="#FFB6B6"/>
<path d="M230.743 88.312C216.82 95.7826 210.718 112.437 202.176 127.072C201.999 128.672 202.157 130.29 202.639 131.824C203.121 133.359 203.916 134.775 204.975 135.983C206.033 137.191 207.331 138.164 208.785 138.84C210.239 139.516 211.817 139.88 213.42 139.908L230.131 140.295L228.037 129.941L222.447 126.753L229.054 110.705L230.743 88.312Z" fill="#8991A7"/>
<path d="M251.382 104.487L264.71 120.726L259.206 129.482C259.206 129.482 245.805 108.446 245.503 107.719C244.512 107.487 243.614 106.958 242.929 106.203C242.244 105.447 241.803 104.501 241.665 103.489C241.528 102.476 241.699 101.446 242.157 100.534C242.615 99.6213 243.338 98.8701 244.231 98.3795C245.124 97.8888 246.143 97.6817 247.156 97.7857C248.168 97.8897 249.125 98.2998 249.9 98.9617C250.675 99.6237 251.232 100.506 251.497 101.493C251.761 102.479 251.721 103.523 251.382 104.487V104.487Z" fill="#FFB6B6"/>
<path d="M271.47 88.7275C275.493 86.4954 287.227 120.919 274.88 140.497C273.471 141.263 271.918 141.726 270.321 141.855C268.724 141.984 267.117 141.778 265.604 141.248C264.091 140.718 262.705 139.878 261.534 138.779C260.363 137.681 259.433 136.35 258.804 134.87L252.412 119.164L262.653 115.885L267.544 121.52L266.863 110.31L272.684 94.376L271.47 88.7275Z" fill="#8991A7"/>
<path d="M148.908 38.4565C159.485 38.4565 168.059 29.8477 168.059 19.2283C168.059 8.60878 159.485 0 148.908 0C138.332 0 129.758 8.60878 129.758 19.2283C129.758 29.8477 138.332 38.4565 148.908 38.4565Z" fill="#F69E7C"/>
<path d="M155.586 9.86206H141.914C141.34 9.86206 140.79 10.1027 140.384 10.531C139.978 10.9593 139.75 11.5403 139.75 12.146V26.5781C139.75 27.1838 139.978 27.7648 140.384 28.1931C140.79 28.6214 141.34 28.8621 141.914 28.8621H155.586C156.16 28.8621 156.71 28.6214 157.116 28.1931C157.522 27.7648 157.75 27.1838 157.75 26.5781V12.146C157.75 11.5403 157.522 10.9593 157.116 10.531C156.71 10.1027 156.16 9.86206 155.586 9.86206ZM148.75 24.4287C147.801 24.4287 146.873 24.1316 146.083 23.5748C145.294 23.0181 144.679 22.2268 144.315 21.301C143.952 20.3752 143.857 19.3564 144.042 18.3736C144.227 17.3908 144.685 16.488 145.356 15.7794C146.027 15.0708 146.882 14.5882 147.814 14.3927C148.745 14.1972 149.71 14.2976 150.587 14.6811C151.464 15.0646 152.214 15.714 152.741 16.5472C153.268 17.3804 153.55 18.36 153.55 19.3621C153.55 20.7058 153.044 21.9945 152.144 22.9447C151.244 23.8949 150.023 24.4287 148.75 24.4287ZM154.15 14.2954C153.913 14.2954 153.681 14.2211 153.483 14.0819C153.286 13.9427 153.132 13.7449 153.041 13.5135C152.951 13.282 152.927 13.0273 152.973 12.7816C153.019 12.5359 153.134 12.3102 153.301 12.1331C153.469 11.9559 153.683 11.8353 153.916 11.7864C154.149 11.7375 154.39 11.7626 154.609 11.8585C154.828 11.9544 155.016 12.1167 155.148 12.325C155.28 12.5333 155.35 12.7782 155.35 13.0287C155.35 13.3647 155.224 13.6868 154.999 13.9244C154.773 14.1619 154.468 14.2954 154.15 14.2954Z" fill="white"/>
<path d="M154.897 148.587C165.473 148.587 174.047 139.978 174.047 129.359C174.047 118.739 165.473 110.13 154.897 110.13C144.32 110.13 135.746 118.739 135.746 129.359C135.746 139.978 144.32 148.587 154.897 148.587Z" fill="#F69E7C"/>
<path d="M152.503 138.862C150.109 138.864 147.766 138.159 145.76 136.833L144.75 136.167L145.947 136.302C146.26 136.337 146.598 136.358 146.95 136.363C148.564 136.364 150.143 135.893 151.5 135.006C150.694 134.829 149.947 134.441 149.334 133.881C148.722 133.321 148.263 132.608 148.005 131.814L147.855 131.345L148.331 131.44C148.548 131.483 148.768 131.508 148.988 131.515C148.233 131.12 147.599 130.523 147.156 129.787C146.713 129.052 146.477 128.207 146.475 127.345V126.849L146.901 127.04C147.154 127.184 147.422 127.3 147.699 127.384C147.042 126.636 146.635 125.697 146.534 124.701C146.433 123.704 146.643 122.701 147.136 121.833L147.344 121.469L147.605 121.796C149.507 124.184 152.232 125.75 155.228 126.175C155.31 126.187 155.394 126.181 155.474 126.157C155.553 126.133 155.627 126.091 155.689 126.036C155.753 125.979 155.804 125.91 155.839 125.832C155.874 125.754 155.892 125.669 155.892 125.584C155.885 124.657 156.15 123.749 156.653 122.976C157.156 122.202 157.875 121.598 158.718 121.241C159.56 120.884 160.489 120.79 161.384 120.97C162.28 121.151 163.103 121.598 163.747 122.254C164.629 122.059 165.474 121.722 166.251 121.256L166.907 120.862L166.668 121.596C166.447 122.278 166.075 122.899 165.582 123.413C166.02 123.297 166.447 123.146 166.862 122.962L167.75 122.565L167.215 123.387C166.648 124.259 165.939 125.027 165.119 125.658V126.077C165.119 132.362 160.41 138.862 152.529 138.862H152.503Z" fill="white"/>
<path d="M110 93.0652C120.493 93.0652 129 84.5586 129 74.0652C129 63.5718 120.493 55.0652 110 55.0652C99.5066 55.0652 91 63.5718 91 74.0652C91 84.5586 99.5066 93.0652 110 93.0652Z" fill="#F69E7C"/>
<path d="M116.586 64.8621H102.914C102.34 64.8621 101.79 65.09 101.384 65.4958C100.978 65.9016 100.75 66.4519 100.75 67.0258V80.6983C100.75 81.2721 100.978 81.8225 101.384 82.2283C101.79 82.6341 102.34 82.8621 102.914 82.8621H116.586C117.16 82.8621 117.71 82.6341 118.116 82.2283C118.522 81.8225 118.75 81.2721 118.75 80.6983V67.0258C118.75 66.4519 118.522 65.9016 118.116 65.4958C117.71 65.09 117.16 64.8621 116.586 64.8621ZM114.019 69.478H112.451C111.38 69.478 111.172 69.9849 111.172 70.7333V72.3202H113.725L113.394 74.8117H111.167V81.3088C110.215 81.4874 109.238 81.4851 108.287 81.3019V74.8117H106.246V72.3202H108.325V70.4776C108.325 68.2749 109.855 67.0718 111.826 67.0718C112.773 67.0718 113.787 67.1428 114.019 67.1759L114.019 69.478Z" fill="white"/>
</svg>
