<svg width="58" height="58" viewBox="0 0 58 58" fill="none" xmlns="http://www.w3.org/2000/svg">
<g filter="url(#filter0_d_629_1942)">
<circle cx="27" cy="27" r="23" fill="white"/>
<circle cx="27" cy="27" r="23" fill="url(#paint0_linear_629_1942)" fill-opacity="0.2"/>
<circle cx="27" cy="27" r="22.5983" stroke="white" stroke-width="0.803496"/>
</g>
<path d="M35.468 30.7182C34.4347 29.5987 33.1808 28.7053 31.7853 28.0943C30.3898 27.4832 28.8828 27.1677 27.3594 27.1677C25.8359 27.1677 24.329 27.4832 22.9334 28.0943C21.5379 28.7053 20.284 29.5987 19.2508 30.7182C19.0913 30.8946 19.002 31.1234 19 31.3613V35.2194C19.0034 35.473 19.1065 35.7151 19.287 35.8932C19.4675 36.0713 19.7109 36.1711 19.9645 36.1711H34.7542C35.01 36.1711 35.2554 36.0695 35.4362 35.8886C35.6171 35.7077 35.7188 35.4624 35.7188 35.2066V31.3484C35.7136 31.115 35.6246 30.8913 35.468 30.7182Z" fill="#393C6A"/>
<path d="M27.3586 25.8825C29.8446 25.8825 31.8598 23.8673 31.8598 21.3813C31.8598 18.8954 29.8446 16.8801 27.3586 16.8801C24.8727 16.8801 22.8574 18.8954 22.8574 21.3813C22.8574 23.8673 24.8727 25.8825 27.3586 25.8825Z" fill="#393C6A"/>
<defs>
<filter id="filter0_d_629_1942" x="0" y="0" width="58" height="58" filterUnits="userSpaceOnUse" color-interpolation-filters="sRGB">
<feFlood flood-opacity="0" result="BackgroundImageFix"/>
<feColorMatrix in="SourceAlpha" type="matrix" values="0 0 0 0 0 0 0 0 0 0 0 0 0 0 0 0 0 0 127 0" result="hardAlpha"/>
<feOffset dx="2" dy="2"/>
<feGaussianBlur stdDeviation="3"/>
<feComposite in2="hardAlpha" operator="out"/>
<feColorMatrix type="matrix" values="0 0 0 0 0.65 0 0 0 0 0.65 0 0 0 0 0.65 0 0 0 1 0"/>
<feBlend mode="normal" in2="BackgroundImageFix" result="effect1_dropShadow_629_1942"/>
<feBlend mode="normal" in="SourceGraphic" in2="effect1_dropShadow_629_1942" result="shape"/>
</filter>
<linearGradient id="paint0_linear_629_1942" x1="4" y1="4" x2="50" y2="50" gradientUnits="userSpaceOnUse">
<stop stop-color="white" stop-opacity="0.21"/>
<stop offset="1" stop-color="white" stop-opacity="0"/>
</linearGradient>
</defs>
</svg>
