<svg width="58" height="58" viewBox="0 0 58 58" fill="none" xmlns="http://www.w3.org/2000/svg">
<g filter="url(#filter0_d_629_1943)">
<circle cx="27" cy="27" r="23" fill="white"/>
<circle cx="27" cy="27" r="23" fill="url(#paint0_linear_629_1943)" fill-opacity="0.2"/>
<circle cx="27" cy="27" r="22.5983" stroke="white" stroke-width="0.803496"/>
</g>
<path d="M24.4301 17.8H19.2214C18.4368 17.8 17.8008 18.4361 17.8008 19.2207V24.4295C17.8008 25.2141 18.4368 25.8502 19.2214 25.8502H24.4301C25.2147 25.8502 25.8507 25.2141 25.8507 24.4295V19.2207C25.8507 18.4361 25.2147 17.8 24.4301 17.8Z" fill="#393C6A"/>
<path d="M34.7797 17.8H29.571C28.7864 17.8 28.1504 18.4361 28.1504 19.2207V24.4295C28.1504 25.2141 28.7864 25.8502 29.571 25.8502H34.7797C35.5643 25.8502 36.2003 25.2141 36.2003 24.4295V19.2207C36.2003 18.4361 35.5643 17.8 34.7797 17.8Z" fill="#393C6A"/>
<path d="M24.4301 28.1501H19.2214C18.4368 28.1501 17.8008 28.7862 17.8008 29.5708V34.7796C17.8008 35.5642 18.4368 36.2003 19.2214 36.2003H24.4301C25.2147 36.2003 25.8507 35.5642 25.8507 34.7796V29.5708C25.8507 28.7862 25.2147 28.1501 24.4301 28.1501Z" fill="#393C6A"/>
<path d="M32.1753 36.2003C34.3983 36.2003 36.2003 34.3982 36.2003 32.1752C36.2003 29.9522 34.3983 28.1501 32.1753 28.1501C29.9524 28.1501 28.1504 29.9522 28.1504 32.1752C28.1504 34.3982 29.9524 36.2003 32.1753 36.2003Z" fill="#393C6A"/>
<defs>
<filter id="filter0_d_629_1943" x="0" y="0" width="58" height="58" filterUnits="userSpaceOnUse" color-interpolation-filters="sRGB">
<feFlood flood-opacity="0" result="BackgroundImageFix"/>
<feColorMatrix in="SourceAlpha" type="matrix" values="0 0 0 0 0 0 0 0 0 0 0 0 0 0 0 0 0 0 127 0" result="hardAlpha"/>
<feOffset dx="2" dy="2"/>
<feGaussianBlur stdDeviation="3"/>
<feComposite in2="hardAlpha" operator="out"/>
<feColorMatrix type="matrix" values="0 0 0 0 0.65 0 0 0 0 0.65 0 0 0 0 0.65 0 0 0 1 0"/>
<feBlend mode="normal" in2="BackgroundImageFix" result="effect1_dropShadow_629_1943"/>
<feBlend mode="normal" in="SourceGraphic" in2="effect1_dropShadow_629_1943" result="shape"/>
</filter>
<linearGradient id="paint0_linear_629_1943" x1="4" y1="4" x2="50" y2="50" gradientUnits="userSpaceOnUse">
<stop stop-color="white" stop-opacity="0.21"/>
<stop offset="1" stop-color="white" stop-opacity="0"/>
</linearGradient>
</defs>
</svg>
