<svg width="58" height="58" viewBox="0 0 58 58" fill="none" xmlns="http://www.w3.org/2000/svg">
<g filter="url(#filter0_d_629_1933)">
<circle cx="27" cy="27" r="23" fill="white"/>
<circle cx="27" cy="27" r="23" fill="url(#paint0_linear_629_1933)" fill-opacity="0.2"/>
<circle cx="27" cy="27" r="22.5983" stroke="white" stroke-width="0.803496"/>
</g>
<path d="M29.2365 35.6888H25.785C25.3394 35.6888 24.9539 35.388 24.8585 34.9657L24.4726 33.2324C23.9578 33.0136 23.4696 32.7399 23.0171 32.4164L21.2752 32.9546C20.8504 33.086 20.3886 32.9125 20.1658 32.5378L18.4362 29.6389C18.2159 29.264 18.2918 28.7911 18.6192 28.499L19.9705 27.303C19.909 26.7612 19.909 26.2146 19.9705 25.6728L18.6192 24.4795C18.2913 24.1873 18.2153 23.7138 18.4362 23.3387L20.162 20.438C20.3848 20.0633 20.8466 19.8898 21.2714 20.0212L23.0133 20.5594C23.2447 20.393 23.4856 20.2395 23.7349 20.0994C23.9742 19.9685 24.2204 19.85 24.4726 19.7443L24.8595 18.0129C24.9544 17.5905 25.3395 17.2893 25.785 17.2888H29.2365C29.682 17.2893 30.0671 17.5905 30.162 18.0129L30.5526 19.7452C30.8189 19.8589 31.0782 19.9873 31.3292 20.1298C31.5637 20.2611 31.7904 20.4052 32.0081 20.5613L33.751 20.0231C34.1755 19.8921 34.6367 20.0655 34.8594 20.4398L36.5852 23.3406C36.8056 23.7155 36.7297 24.1884 36.4022 24.4805L35.051 25.6765C35.1124 26.2182 35.1124 26.7649 35.051 27.3067L36.4022 28.5027C36.7297 28.7948 36.8056 29.2677 36.5852 29.6426L34.8594 32.5433C34.6367 32.9176 34.1755 33.091 33.751 32.9601L32.0081 32.4219C31.7876 32.5795 31.5584 32.7254 31.3216 32.8589C31.073 32.9987 30.8166 33.1249 30.5536 33.237L30.162 34.9657C30.0667 35.3876 29.6817 35.6885 29.2365 35.6888ZM27.5069 22.8088C25.4122 22.8088 23.714 24.4564 23.714 26.4888C23.714 28.5212 25.4122 30.1688 27.5069 30.1688C29.6017 30.1688 31.2998 28.5212 31.2998 26.4888C31.2998 24.4564 29.6017 22.8088 27.5069 22.8088Z" fill="#393C6A"/>
<defs>
<filter id="filter0_d_629_1933" x="0" y="0" width="58" height="58" filterUnits="userSpaceOnUse" color-interpolation-filters="sRGB">
<feFlood flood-opacity="0" result="BackgroundImageFix"/>
<feColorMatrix in="SourceAlpha" type="matrix" values="0 0 0 0 0 0 0 0 0 0 0 0 0 0 0 0 0 0 127 0" result="hardAlpha"/>
<feOffset dx="2" dy="2"/>
<feGaussianBlur stdDeviation="3"/>
<feComposite in2="hardAlpha" operator="out"/>
<feColorMatrix type="matrix" values="0 0 0 0 0.65 0 0 0 0 0.65 0 0 0 0 0.65 0 0 0 1 0"/>
<feBlend mode="normal" in2="BackgroundImageFix" result="effect1_dropShadow_629_1933"/>
<feBlend mode="normal" in="SourceGraphic" in2="effect1_dropShadow_629_1933" result="shape"/>
</filter>
<linearGradient id="paint0_linear_629_1933" x1="4" y1="4" x2="50" y2="50" gradientUnits="userSpaceOnUse">
<stop stop-color="white" stop-opacity="0.21"/>
<stop offset="1" stop-color="white" stop-opacity="0"/>
</linearGradient>
</defs>
</svg>
