<svg width="18" height="17" viewBox="0 0 18 17" fill="none" xmlns="http://www.w3.org/2000/svg">
<path d="M15.7183 16.915L9.75951 11.1561C7.06428 12.8748 3.46077 12.3431 1.41867 9.92543C-0.623442 7.50773 -0.441626 3.98838 1.83951 1.77939C4.12427 -0.426549 7.76539 -0.603067 10.267 1.37084C12.7686 3.34474 13.3189 6.82853 11.5408 9.43418L17.497 15.1955L15.7183 16.915ZM6.28951 2.43188C4.48857 2.43078 2.93761 3.65958 2.58511 5.36682C2.23262 7.07405 3.17677 8.78425 4.84016 9.45152C6.50356 10.1188 8.42293 9.55733 9.42449 8.11047C10.426 6.66361 10.2308 4.73433 8.95826 3.50248C8.25232 2.81535 7.29131 2.42983 6.28951 2.43188Z" fill="#393C6A"/>
</svg>
