<svg width="15" height="27" viewBox="0 0 15 27" fill="none" xmlns="http://www.w3.org/2000/svg">
<path fill-rule="evenodd" clip-rule="evenodd" d="M0.179464 26.3799C0.545982 26.9135 1.24918 27.1482 1.74505 26.9024C1.98737 26.7823 14.7521 14.2714 14.8878 14.0211C14.9495 13.9072 15 13.6728 15 13.5C15 13.3272 14.9495 13.0928 14.8878 12.9789C14.7521 12.7286 1.98737 0.217684 1.74505 0.0976028C1.24918 -0.148228 0.545982 0.0864906 0.179464 0.620071C-0.0159812 0.904524 -0.05996 1.43573 0.0880688 1.72309C0.135485 1.81513 2.83328 4.50256 6.0832 7.69523L11.9922 13.5L6.0832 19.3048C2.83328 22.4974 0.135485 25.1849 0.0880691 25.2769C-0.0599597 25.5643 -0.0159809 26.0955 0.179464 26.3799Z" fill="white"/>
</svg>
