<svg width="58" height="58" viewBox="0 0 58 58" fill="none" xmlns="http://www.w3.org/2000/svg">
<g filter="url(#filter0_d_629_1923)">
<circle cx="27" cy="27" r="23" fill="white"/>
<circle cx="27" cy="27" r="23" fill="url(#paint0_linear_629_1923)" fill-opacity="0.2"/>
<circle cx="27" cy="27" r="22.5983" stroke="white" stroke-width="0.803496"/>
</g>
<path fill-rule="evenodd" clip-rule="evenodd" d="M20.7131 17.3477C19.806 17.5469 18.9807 18.2233 18.5814 19.0948C18.2971 19.7152 18.3009 19.6379 18.3161 24.5821C18.3315 29.5886 18.309 29.2269 18.6478 29.912C19.0169 30.6586 19.7663 31.2683 20.6064 31.5056C20.8988 31.5882 21.1996 31.5936 25.473 31.5936H30.028L30.3876 31.4818C30.914 31.3181 31.3264 31.07 31.7101 30.6862C32.0937 30.3024 32.3417 29.8899 32.5053 29.3632L32.6171 29.0034V24.4465C32.6171 19.3551 32.6346 19.6352 32.275 18.9491C31.8839 18.2028 31.2491 17.678 30.3876 17.3889C30.1395 17.3057 29.8542 17.2999 25.5689 17.291C21.851 17.2834 20.9587 17.2938 20.7131 17.3477ZM35.2245 20.4794C35.0378 20.5769 34.9286 20.677 34.8234 20.8473L34.6788 21.0813L34.6549 26.1456L34.6309 31.2099L34.5242 31.5217C34.2113 32.4369 33.46 33.1886 32.5452 33.5016L32.2335 33.6083L27.1751 33.6323L22.1168 33.6562L21.8903 33.7894C21.4907 34.0244 21.2965 34.5108 21.4196 34.9681C21.4946 35.2467 21.8105 35.5613 22.0944 35.64C22.2599 35.6859 23.4509 35.696 27.343 35.6844L32.3774 35.6695L32.8462 35.5407C34.7002 35.0314 36.0535 33.6783 36.5617 31.8257L36.6912 31.3538L36.7062 26.3173C36.7177 22.4235 36.7076 21.2321 36.6617 21.0664C36.5865 20.7948 36.2837 20.4844 36.0158 20.4043C35.7118 20.3134 35.5042 20.3332 35.2245 20.4794ZM25.7261 21.409C26.0333 21.4864 26.3702 21.8234 26.4476 22.1307C26.4785 22.2538 26.5039 22.5931 26.5039 22.8849V23.4152L27.1152 23.4163C27.8148 23.4175 28.0095 23.4765 28.2613 23.7633C28.6934 24.2557 28.5619 25.0119 27.9881 25.3339C27.7962 25.4417 27.7103 25.4555 27.1438 25.4704L26.5131 25.487L26.4965 26.118C26.4816 26.6848 26.4677 26.7707 26.3601 26.9627C26.1799 27.284 25.899 27.4597 25.528 27.4833C25.187 27.5051 24.9484 27.4134 24.7204 27.1731C24.4918 26.9321 24.4422 26.7371 24.4422 26.079V25.4778H23.912C23.1971 25.4778 22.9891 25.4198 22.7124 25.143C22.2077 24.638 22.3294 23.8564 22.962 23.5411C23.1948 23.425 23.2619 23.4152 23.8283 23.4152H24.4422V22.8011C24.4422 22.2345 24.4519 22.1674 24.5679 21.9345C24.7024 21.6644 24.9461 21.4648 25.2206 21.3996C25.4464 21.346 25.4786 21.3467 25.7261 21.409Z" fill="#393C6A"/>
<defs>
<filter id="filter0_d_629_1923" x="0" y="0" width="58" height="58" filterUnits="userSpaceOnUse" color-interpolation-filters="sRGB">
<feFlood flood-opacity="0" result="BackgroundImageFix"/>
<feColorMatrix in="SourceAlpha" type="matrix" values="0 0 0 0 0 0 0 0 0 0 0 0 0 0 0 0 0 0 127 0" result="hardAlpha"/>
<feOffset dx="2" dy="2"/>
<feGaussianBlur stdDeviation="3"/>
<feComposite in2="hardAlpha" operator="out"/>
<feColorMatrix type="matrix" values="0 0 0 0 0.65 0 0 0 0 0.65 0 0 0 0 0.65 0 0 0 1 0"/>
<feBlend mode="normal" in2="BackgroundImageFix" result="effect1_dropShadow_629_1923"/>
<feBlend mode="normal" in="SourceGraphic" in2="effect1_dropShadow_629_1923" result="shape"/>
</filter>
<linearGradient id="paint0_linear_629_1923" x1="4" y1="4" x2="50" y2="50" gradientUnits="userSpaceOnUse">
<stop stop-color="white"/>
<stop offset="1" stop-color="white" stop-opacity="0"/>
</linearGradient>
</defs>
</svg>
