<svg width="30" height="50" viewBox="0 0 44 55" fill="none" xmlns="http://www.w3.org/2000/svg">
<path d="M21.9999 55C18.0303 51.7087 14.3508 48.1005 10.9999 44.2131C5.9714 38.3751 2.77721e-06 29.6808 2.77721e-06 21.3958C-0.00445428 12.7429 5.35618 4.94013 13.5804 1.62861C21.8047 -1.68291 31.2715 0.149547 37.5632 6.27088C41.7007 10.2747 44.0184 15.721 43.9999 21.3958C43.9999 29.6808 38.0284 38.3751 32.9998 44.2131C29.649 48.1005 25.9695 51.7087 21.9999 55ZM21.9999 12.231C18.6314 12.231 15.5188 13.9778 13.8346 16.8134C12.1503 19.649 12.1503 23.1426 13.8346 25.9782C15.5188 28.8138 18.6314 30.5606 21.9999 30.5606C27.2071 30.5606 31.4284 26.4574 31.4284 21.3958C31.4284 16.3343 27.2071 12.231 21.9999 12.231Z" fill="#F79E7C"/>
</svg>
