<svg width="50" height="75" viewBox="0 0 50 75" fill="none" xmlns="http://www.w3.org/2000/svg">
<path d="M8.98631 71V61.8711H12.5428C13.088 61.8711 13.5529 61.9831 13.9375 62.2071C14.3263 62.4311 14.6221 62.7269 14.825 63.0946C15.0321 63.4581 15.1356 63.8512 15.1356 64.2738C15.1356 64.7683 15.0088 65.2015 14.7553 65.5734C14.5017 65.9453 14.1593 66.201 13.7283 66.3405L13.7156 66.0298C14.303 66.1862 14.7595 66.4736 15.0849 66.892C15.4103 67.3104 15.5731 67.8091 15.5731 68.3881C15.5731 68.9206 15.4632 69.3813 15.2434 69.7701C15.0279 70.159 14.7151 70.4611 14.3052 70.6767C13.8994 70.8922 13.4176 71 12.8597 71H8.98631ZM10.1274 69.9223H12.6442C12.9823 69.9223 13.2845 69.861 13.5508 69.7384C13.817 69.6116 14.0262 69.4341 14.1784 69.2059C14.3347 68.9777 14.4129 68.703 14.4129 68.3818C14.4129 68.0733 14.3432 67.7964 14.2037 67.5513C14.0685 67.3062 13.8762 67.1118 13.6268 66.9681C13.3817 66.8202 13.0964 66.7462 12.771 66.7462H10.1274V69.9223ZM10.1274 65.6812H12.5301C12.8006 65.6812 13.0436 65.6241 13.2591 65.51C13.4789 65.3917 13.6522 65.2268 13.779 65.0155C13.91 64.8042 13.9755 64.5569 13.9755 64.2738C13.9755 63.8807 13.8424 63.5595 13.5761 63.3102C13.3099 63.0608 12.9612 62.9361 12.5301 62.9361H10.1274V65.6812ZM18.7826 71.1902C18.2712 71.1902 17.8423 71.0972 17.4957 70.9112C17.1534 70.7211 16.8935 70.4717 16.716 70.1632C16.5427 69.8547 16.456 69.5166 16.456 69.1489C16.456 68.7896 16.5237 68.479 16.6589 68.217C16.7984 67.9507 16.9928 67.7309 17.2421 67.5576C17.4915 67.3801 17.7894 67.2407 18.136 67.1392C18.4614 67.0505 18.8249 66.9744 19.2264 66.911C19.6321 66.8434 20.0421 66.7821 20.4563 66.7272C20.8704 66.6722 21.2571 66.6194 21.6164 66.5687L21.2107 66.8032C21.2233 66.1947 21.1008 65.7445 20.843 65.4529C20.5894 65.1613 20.1498 65.0155 19.5244 65.0155C19.1102 65.0155 18.7467 65.1106 18.434 65.3008C18.1254 65.4867 17.9078 65.791 17.781 66.2137L16.7096 65.8904C16.8744 65.2902 17.1935 64.819 17.6669 64.4766C18.1402 64.1343 18.7636 63.9631 19.537 63.9631C20.1583 63.9631 20.6908 64.0751 21.1346 64.2991C21.5826 64.5189 21.9038 64.8528 22.0982 65.3008C22.1954 65.5121 22.2567 65.7424 22.282 65.9918C22.3074 66.2369 22.3201 66.4947 22.3201 66.7652V71H21.3184V69.3581L21.553 69.5102C21.2952 70.0639 20.9338 70.4823 20.4689 70.7654C20.0083 71.0486 19.4462 71.1902 18.7826 71.1902ZM18.9538 70.2456C19.3595 70.2456 19.7103 70.1738 20.0062 70.0301C20.3062 69.8821 20.5471 69.6898 20.7289 69.4532C20.9106 69.2123 21.0289 68.9502 21.0839 68.6671C21.1473 68.4557 21.1811 68.2212 21.1853 67.9634C21.1938 67.7013 21.198 67.5006 21.198 67.3611L21.591 67.5323C21.2233 67.583 20.862 67.6316 20.507 67.6781C20.152 67.7246 19.816 67.7753 19.499 67.8302C19.182 67.881 18.8967 67.9422 18.6432 68.0141C18.4572 68.0733 18.2818 68.1493 18.117 68.2423C17.9564 68.3353 17.8254 68.4557 17.7239 68.6037C17.6267 68.7474 17.5781 68.927 17.5781 69.1425C17.5781 69.3285 17.6246 69.506 17.7176 69.675C17.8148 69.8441 17.9627 69.9815 18.1614 70.0871C18.3642 70.1928 18.6284 70.2456 18.9538 70.2456ZM23.9683 71V64.1533H24.9763V65.8079L24.8115 65.5924C24.8918 65.3811 24.9953 65.1867 25.1221 65.0092C25.2532 64.8317 25.399 64.6859 25.5596 64.5717C25.7371 64.428 25.9378 64.3182 26.1618 64.2421C26.3858 64.166 26.614 64.1216 26.8465 64.109C27.0789 64.0921 27.2966 64.1068 27.4994 64.1533V65.212C27.2628 65.1486 27.0029 65.1317 26.7197 65.1613C26.4365 65.1909 26.1745 65.2944 25.9336 65.472C25.7138 65.6283 25.5427 65.8185 25.4201 66.0425C25.3018 66.2665 25.2193 66.5095 25.1729 66.7715C25.1264 67.0294 25.1031 67.2935 25.1031 67.564V71H23.9683ZM31.5413 71.1902C30.8693 71.1902 30.2818 71.0423 29.7789 70.7464C29.2802 70.4463 28.8914 70.0301 28.6124 69.4975C28.3335 68.9608 28.194 68.3353 28.194 67.621C28.194 66.873 28.3314 66.2264 28.6061 65.6812C28.8808 65.1317 29.2633 64.7091 29.7535 64.4133C30.248 64.1132 30.827 63.9631 31.4906 63.9631C32.1795 63.9631 32.7648 64.1216 33.2466 64.4386C33.7326 64.7556 34.0961 65.2078 34.337 65.7953C34.5821 66.3827 34.6878 67.0822 34.654 67.8936H33.5129V67.4879C33.5002 66.6469 33.329 66.0193 32.9994 65.6051C32.6697 65.1867 32.1795 64.9775 31.5286 64.9775C30.8313 64.9775 30.3009 65.2015 29.9374 65.6495C29.5739 66.0974 29.3922 66.7399 29.3922 67.5767C29.3922 68.3839 29.5739 69.0094 29.9374 69.4532C30.3009 69.8969 30.8186 70.1188 31.4906 70.1188C31.9428 70.1188 32.3358 70.0153 32.6697 69.8082C33.0036 69.6011 33.2656 69.3031 33.4558 68.9143L34.5399 69.2883C34.2736 69.8927 33.8721 70.3618 33.3354 70.6957C32.8028 71.0254 32.2048 71.1902 31.5413 71.1902ZM29.0118 67.8936V66.9871H34.0707V67.8936H29.0118ZM38.6519 71.1838C37.8362 71.1838 37.1664 71.0063 36.6423 70.6513C36.1225 70.2921 35.8034 69.7913 35.685 69.1489L36.8388 68.965C36.9318 69.3369 37.1452 69.6328 37.4791 69.8525C37.813 70.0681 38.2272 70.1759 38.7217 70.1759C39.1908 70.1759 39.5585 70.0787 39.8247 69.8842C40.091 69.6898 40.2241 69.4257 40.2241 69.0918C40.2241 68.8974 40.1797 68.741 40.091 68.6227C40.0022 68.5001 39.8184 68.386 39.5395 68.2804C39.2647 68.1747 38.8485 68.0479 38.2906 67.9C37.6862 67.7394 37.2107 67.5724 36.8642 67.3992C36.5176 67.2259 36.2704 67.0251 36.1225 66.7969C35.9745 66.5687 35.9006 66.2919 35.9006 65.9664C35.9006 65.5649 36.0105 65.2141 36.2302 64.9141C36.45 64.6098 36.7564 64.3752 37.1495 64.2104C37.5467 64.0456 38.0074 63.9631 38.5315 63.9631C39.0513 63.9631 39.5162 64.0456 39.9262 64.2104C40.3361 64.3752 40.6658 64.6098 40.9151 64.9141C41.1687 65.2141 41.3187 65.5649 41.3652 65.9664L40.2114 66.1756C40.1565 65.8079 39.979 65.5184 39.6789 65.3071C39.3831 65.0958 39.0006 64.9838 38.5315 64.9711C38.0877 64.9542 37.7264 65.0324 37.4474 65.2057C37.1727 65.379 37.0354 65.6135 37.0354 65.9094C37.0354 66.0742 37.0861 66.2158 37.1875 66.3341C37.2932 66.4525 37.4855 66.5645 37.7644 66.6701C38.0476 66.7758 38.4575 66.8962 38.9943 67.0315C39.5986 67.1836 40.0741 67.3506 40.4206 67.5323C40.7714 67.7098 41.0208 67.9211 41.1687 68.1662C41.3166 68.4071 41.3906 68.7051 41.3906 69.0601C41.3906 69.7194 41.1476 70.2393 40.6615 70.6196C40.1755 70.9958 39.5056 71.1838 38.6519 71.1838Z" fill="#F85EDF"/>
<circle cx="25" cy="25" r="25" fill="#F85EDF" fill-opacity="0.2"/>
<path d="M37.9527 35.2063C37.9121 35.0757 37.8461 34.9543 37.7586 34.8492C37.6711 34.744 37.5637 34.6571 37.4426 34.5935C37.3215 34.5298 37.1891 34.4907 37.0528 34.4782C36.9166 34.4658 36.7792 34.4803 36.6486 34.5209L35.2945 34.9376L34.3248 32.0867C35.3433 31.5152 36.1378 30.6149 36.5783 29.5332C37.0188 28.4515 37.0792 27.2524 36.7496 26.1319L34.83 20.4291C34.5883 19.6505 34.0542 18.996 33.3399 18.6032C32.6256 18.2105 31.7868 18.11 31 18.323L26.9877 19.4416C26.4123 19.6017 25.8957 19.9252 25.5003 20.3728C25.1049 19.9252 24.5883 19.6017 24.0129 19.4416L19.9996 18.323C19.2185 18.1075 18.3842 18.203 17.672 18.5895C16.9598 18.976 16.4251 19.6234 16.18 20.3958L14.2354 26.1839C13.9187 27.3036 13.9896 28.4974 14.4366 29.5716C14.8836 30.6459 15.6803 31.5377 16.6977 32.1023L15.7144 34.9438L14.3551 34.5209C14.2245 34.4799 14.0871 34.465 13.9507 34.4771C13.8143 34.4891 13.6816 34.528 13.5602 34.5913C13.4388 34.6547 13.3311 34.7413 13.2432 34.8463C13.1553 34.9513 13.089 35.0725 13.0479 35.2032C13.0069 35.3338 12.992 35.4712 13.0041 35.6076C13.0161 35.744 13.055 35.8767 13.1183 35.9981C13.1817 36.1195 13.2683 36.2272 13.3733 36.3151C13.4783 36.403 13.5995 36.4694 13.7302 36.5104L15.98 37.2093C15.9957 37.2093 16.005 37.227 16.0207 37.2333C16.0363 37.2395 16.0748 37.2395 16.1019 37.2468L18.3736 37.952C18.6375 38.034 18.9231 38.0079 19.1676 37.8794C19.4122 37.7508 19.5957 37.5304 19.6777 37.2666C19.7598 37.0028 19.7337 36.7172 19.6051 36.4726C19.4766 36.228 19.2562 36.0445 18.9924 35.9625L17.7049 35.5615L18.6788 32.7492C18.872 32.774 19.0664 32.7879 19.2611 32.7908C20.3872 32.788 21.4821 32.4203 22.3817 31.7428C23.2812 31.0652 23.9369 30.1144 24.2504 29.0327L25.5003 25.3288L26.7325 28.9744C27.0362 30.0698 27.69 31.0357 28.5941 31.7248C29.4981 32.4139 30.6028 32.7883 31.7395 32.7908C31.9419 32.7889 32.144 32.775 32.3447 32.7492L33.3009 35.5615L32.0051 35.9635C31.7413 36.0456 31.5209 36.2291 31.3923 36.4736C31.2638 36.7182 31.2377 37.0038 31.3197 37.2676C31.4018 37.5315 31.5853 37.7519 31.8298 37.8804C32.0744 38.0089 32.36 38.0351 32.6238 37.953L34.8893 37.2499C34.9164 37.2426 34.9445 37.2499 34.9716 37.2364C34.9987 37.2228 34.9987 37.2166 35.0154 37.2103L37.2673 36.5114C37.3981 36.4708 37.5195 36.4048 37.6248 36.3172C37.73 36.2297 37.8169 36.1222 37.8806 36.001C37.9442 35.8797 37.9834 35.7472 37.9957 35.6108C38.0081 35.4745 37.9935 35.337 37.9527 35.2063ZM26.9138 21.9498C26.98 21.8278 27.0703 21.7204 27.1791 21.6341C27.2879 21.5478 27.4131 21.4844 27.5471 21.4478L31.5583 20.3301C31.6478 20.3051 31.7403 20.2921 31.8333 20.2916C32.0623 20.294 32.2845 20.3702 32.4669 20.5089C32.6493 20.6475 32.7821 20.8412 32.8457 21.0613L33.6384 23.4164H27.0523L26.8283 22.7529C26.7884 22.6201 26.7754 22.4807 26.7901 22.3427C26.8047 22.2048 26.8468 22.0713 26.9138 21.9498ZM19.1653 20.2916C19.2585 20.2918 19.3514 20.3044 19.4413 20.3291L23.4535 21.4478C23.7186 21.5209 23.944 21.6958 24.0806 21.9345C24.2172 22.1731 24.2539 22.4561 24.1827 22.7217L23.9483 23.4164H17.3622L18.1643 21.0311C18.2305 20.8172 18.3633 20.6301 18.5434 20.4971C18.7235 20.364 18.9414 20.292 19.1653 20.2916ZM22.263 28.4161C22.0966 29.0106 21.7579 29.5426 21.2894 29.9448C20.821 30.347 20.244 30.6014 19.6311 30.676C19.0182 30.7505 18.397 30.6419 17.8458 30.3637C17.2946 30.0855 16.8382 29.6503 16.5342 29.1129C16.1316 28.411 16.0223 27.5785 16.23 26.7964L16.6613 25.4996H23.2463L22.263 28.4161ZM30.2125 30.2993C29.8475 30.0922 29.5277 29.8142 29.2717 29.4817C29.0157 29.1491 28.8288 28.7688 28.722 28.363L27.7543 25.4996H34.3404L34.757 26.7433C34.9233 27.3389 34.909 27.9704 34.7162 28.558C34.5233 29.1455 34.1604 29.6626 33.6735 30.0438C33.1866 30.425 32.5975 30.6531 31.9809 30.6994C31.3642 30.7456 30.7477 30.6078 30.2094 30.3035L30.2125 30.2993Z" fill="#F85EDF"/>
<path d="M29.2012 17.0627C29.3242 17.1245 29.4582 17.1614 29.5955 17.1711C29.7328 17.1808 29.8707 17.1632 30.0012 17.1194C30.1316 17.0755 30.2521 17.0062 30.3556 16.9155C30.4591 16.8247 30.5437 16.7144 30.6043 16.5908L31.6459 14.5076C31.7694 14.2604 31.7896 13.9742 31.7021 13.7121C31.6146 13.4499 31.4265 13.2333 31.1792 13.1098C30.932 12.9863 30.6458 12.9661 30.3837 13.0536C30.1215 13.1411 29.9049 13.3292 29.7814 13.5764L28.7398 15.6596C28.6776 15.782 28.6402 15.9154 28.6297 16.0523C28.6193 16.1891 28.636 16.3267 28.6788 16.4571C28.7217 16.5875 28.7899 16.7081 28.8796 16.812C28.9692 16.916 29.0785 17.0011 29.2012 17.0627Z" fill="#F85EDF"/>
<path d="M20.4018 16.5908C20.5253 16.8388 20.7422 17.0275 21.0048 17.1155C21.1349 17.1591 21.2722 17.1766 21.409 17.1671C21.5458 17.1576 21.6795 17.1212 21.8022 17.0601C21.925 16.9989 22.0345 16.9142 22.1245 16.8107C22.2145 16.7073 22.2833 16.5871 22.3269 16.457C22.3705 16.327 22.388 16.1897 22.3785 16.0528C22.369 15.916 22.3326 15.7824 22.2715 15.6596L21.2299 13.5764C21.1687 13.454 21.0841 13.3448 20.9807 13.2551C20.8774 13.1654 20.7574 13.097 20.6276 13.0536C20.3654 12.9661 20.0793 12.9863 19.832 13.1098C19.5848 13.2333 19.3967 13.4499 19.3092 13.7121C19.2217 13.9742 19.2419 14.2604 19.3654 14.5076L20.4018 16.5908Z" fill="#F85EDF"/>
<path d="M25.5005 17.167C25.7768 17.167 26.0417 17.0572 26.237 16.8619C26.4324 16.6666 26.5421 16.4016 26.5421 16.1254V14.0422C26.5421 13.7659 26.4324 13.501 26.237 13.3057C26.0417 13.1103 25.7768 13.0006 25.5005 13.0006C25.2243 13.0006 24.9593 13.1103 24.764 13.3057C24.5686 13.501 24.4589 13.7659 24.4589 14.0422V16.1254C24.4589 16.4016 24.5686 16.6666 24.764 16.8619C24.9593 17.0572 25.2243 17.167 25.5005 17.167Z" fill="#F85EDF"/>
</svg>
