<svg width="77" height="75" viewBox="0 0 77 75" fill="none" xmlns="http://www.w3.org/2000/svg">
<path d="M22.9863 71V61.8711H26.5428C27.088 61.8711 27.5529 61.9831 27.9375 62.2071C28.3263 62.4311 28.6221 62.7269 28.825 63.0946C29.0321 63.4581 29.1356 63.8512 29.1356 64.2738C29.1356 64.7683 29.0088 65.2015 28.7553 65.5734C28.5017 65.9453 28.1593 66.201 27.7283 66.3405L27.7156 66.0298C28.303 66.1862 28.7595 66.4736 29.0849 66.892C29.4103 67.3104 29.5731 67.8091 29.5731 68.3881C29.5731 68.9206 29.4632 69.3813 29.2434 69.7701C29.0279 70.159 28.7151 70.4611 28.3052 70.6767C27.8994 70.8922 27.4176 71 26.8597 71H22.9863ZM24.1274 69.9223H26.6442C26.9823 69.9223 27.2845 69.861 27.5508 69.7384C27.817 69.6116 28.0262 69.4341 28.1784 69.2059C28.3347 68.9777 28.4129 68.703 28.4129 68.3818C28.4129 68.0733 28.3432 67.7964 28.2037 67.5513C28.0685 67.3062 27.8762 67.1118 27.6268 66.9681C27.3817 66.8202 27.0964 66.7462 26.771 66.7462H24.1274V69.9223ZM24.1274 65.6812H26.5301C26.8006 65.6812 27.0436 65.6241 27.2591 65.51C27.4789 65.3917 27.6522 65.2268 27.779 65.0155C27.91 64.8042 27.9755 64.5569 27.9755 64.2738C27.9755 63.8807 27.8424 63.5595 27.5761 63.3102C27.3099 63.0608 26.9612 62.9361 26.5301 62.9361H24.1274V65.6812ZM32.7826 71.1902C32.2712 71.1902 31.8423 71.0972 31.4957 70.9112C31.1534 70.7211 30.8935 70.4717 30.716 70.1632C30.5427 69.8547 30.456 69.5166 30.456 69.1489C30.456 68.7896 30.5237 68.479 30.6589 68.217C30.7984 67.9507 30.9928 67.7309 31.2421 67.5576C31.4915 67.3801 31.7894 67.2407 32.136 67.1392C32.4614 67.0505 32.8249 66.9744 33.2264 66.911C33.6321 66.8434 34.0421 66.7821 34.4563 66.7272C34.8704 66.6722 35.2571 66.6194 35.6164 66.5687L35.2107 66.8032C35.2233 66.1947 35.1008 65.7445 34.843 65.4529C34.5894 65.1613 34.1498 65.0155 33.5244 65.0155C33.1102 65.0155 32.7467 65.1106 32.434 65.3008C32.1254 65.4867 31.9078 65.791 31.781 66.2137L30.7096 65.8904C30.8744 65.2902 31.1935 64.819 31.6669 64.4766C32.1402 64.1343 32.7636 63.9631 33.537 63.9631C34.1583 63.9631 34.6908 64.0751 35.1346 64.2991C35.5826 64.5189 35.9038 64.8528 36.0982 65.3008C36.1954 65.5121 36.2567 65.7424 36.282 65.9918C36.3074 66.2369 36.3201 66.4947 36.3201 66.7652V71H35.3184V69.3581L35.553 69.5102C35.2952 70.0639 34.9338 70.4823 34.4689 70.7654C34.0083 71.0486 33.4462 71.1902 32.7826 71.1902ZM32.9538 70.2456C33.3595 70.2456 33.7103 70.1738 34.0062 70.0301C34.3062 69.8821 34.5471 69.6898 34.7289 69.4532C34.9106 69.2123 35.0289 68.9502 35.0839 68.6671C35.1473 68.4557 35.1811 68.2212 35.1853 67.9634C35.1938 67.7013 35.198 67.5006 35.198 67.3611L35.591 67.5323C35.2233 67.583 34.862 67.6316 34.507 67.6781C34.152 67.7246 33.816 67.7753 33.499 67.8302C33.182 67.881 32.8967 67.9422 32.6432 68.0141C32.4572 68.0733 32.2818 68.1493 32.117 68.2423C31.9564 68.3353 31.8254 68.4557 31.7239 68.6037C31.6267 68.7474 31.5781 68.927 31.5781 69.1425C31.5781 69.3285 31.6246 69.506 31.7176 69.675C31.8148 69.8441 31.9627 69.9815 32.1614 70.0871C32.3642 70.1928 32.6284 70.2456 32.9538 70.2456ZM37.9683 71V64.1533H38.9763V65.8079L38.8115 65.5924C38.8918 65.3811 38.9953 65.1867 39.1221 65.0092C39.2532 64.8317 39.399 64.6859 39.5596 64.5717C39.7371 64.428 39.9378 64.3182 40.1618 64.2421C40.3858 64.166 40.614 64.1216 40.8465 64.109C41.0789 64.0921 41.2966 64.1068 41.4994 64.1533V65.212C41.2628 65.1486 41.0029 65.1317 40.7197 65.1613C40.4365 65.1909 40.1745 65.2944 39.9336 65.472C39.7138 65.6283 39.5427 65.8185 39.4201 66.0425C39.3018 66.2665 39.2193 66.5095 39.1729 66.7715C39.1264 67.0294 39.1031 67.2935 39.1031 67.564V71H37.9683ZM45.5413 71.1902C44.8693 71.1902 44.2818 71.0423 43.7789 70.7464C43.2802 70.4463 42.8914 70.0301 42.6124 69.4975C42.3335 68.9608 42.194 68.3353 42.194 67.621C42.194 66.873 42.3314 66.2264 42.6061 65.6812C42.8808 65.1317 43.2633 64.7091 43.7535 64.4133C44.248 64.1132 44.827 63.9631 45.4906 63.9631C46.1795 63.9631 46.7648 64.1216 47.2466 64.4386C47.7326 64.7556 48.0961 65.2078 48.337 65.7953C48.5821 66.3827 48.6878 67.0822 48.654 67.8936H47.5129V67.4879C47.5002 66.6469 47.329 66.0193 46.9994 65.6051C46.6697 65.1867 46.1795 64.9775 45.5286 64.9775C44.8313 64.9775 44.3009 65.2015 43.9374 65.6495C43.5739 66.0974 43.3922 66.7399 43.3922 67.5767C43.3922 68.3839 43.5739 69.0094 43.9374 69.4532C44.3009 69.8969 44.8186 70.1188 45.4906 70.1188C45.9428 70.1188 46.3358 70.0153 46.6697 69.8082C47.0036 69.6011 47.2656 69.3031 47.4558 68.9143L48.5399 69.2883C48.2736 69.8927 47.8721 70.3618 47.3354 70.6957C46.8028 71.0254 46.2048 71.1902 45.5413 71.1902ZM43.0118 67.8936V66.9871H48.0707V67.8936H43.0118ZM52.6519 71.1838C51.8362 71.1838 51.1664 71.0063 50.6423 70.6513C50.1225 70.2921 49.8034 69.7913 49.685 69.1489L50.8388 68.965C50.9318 69.3369 51.1452 69.6328 51.4791 69.8525C51.813 70.0681 52.2272 70.1759 52.7217 70.1759C53.1908 70.1759 53.5585 70.0787 53.8247 69.8842C54.091 69.6898 54.2241 69.4257 54.2241 69.0918C54.2241 68.8974 54.1797 68.741 54.091 68.6227C54.0022 68.5001 53.8184 68.386 53.5395 68.2804C53.2647 68.1747 52.8485 68.0479 52.2906 67.9C51.6862 67.7394 51.2107 67.5724 50.8642 67.3992C50.5176 67.2259 50.2704 67.0251 50.1225 66.7969C49.9745 66.5687 49.9006 66.2919 49.9006 65.9664C49.9006 65.5649 50.0105 65.2141 50.2302 64.9141C50.45 64.6098 50.7564 64.3752 51.1495 64.2104C51.5467 64.0456 52.0074 63.9631 52.5315 63.9631C53.0513 63.9631 53.5162 64.0456 53.9262 64.2104C54.3361 64.3752 54.6658 64.6098 54.9151 64.9141C55.1687 65.2141 55.3187 65.5649 55.3652 65.9664L54.2114 66.1756C54.1565 65.8079 53.979 65.5184 53.6789 65.3071C53.3831 65.0958 53.0006 64.9838 52.5315 64.9711C52.0877 64.9542 51.7264 65.0324 51.4474 65.2057C51.1727 65.379 51.0354 65.6135 51.0354 65.9094C51.0354 66.0742 51.0861 66.2158 51.1875 66.3341C51.2932 66.4525 51.4855 66.5645 51.7644 66.6701C52.0476 66.7758 52.4575 66.8962 52.9943 67.0315C53.5986 67.1836 54.0741 67.3506 54.4206 67.5323C54.7714 67.7098 55.0208 67.9211 55.1687 68.1662C55.3166 68.4071 55.3906 68.7051 55.3906 69.0601C55.3906 69.7194 55.1476 70.2393 54.6615 70.6196C54.1755 70.9958 53.5056 71.1838 52.6519 71.1838Z" fill="#F85EDF"/>
<circle cx="39" cy="25" r="25" fill="#F85EDF" fill-opacity="0.2"/>
<path d="M51.9527 35.2063C51.9121 35.0757 51.8461 34.9543 51.7586 34.8492C51.6711 34.744 51.5637 34.6571 51.4426 34.5935C51.3215 34.5298 51.1891 34.4907 51.0528 34.4782C50.9166 34.4658 50.7792 34.4803 50.6486 34.5209L49.2945 34.9376L48.3248 32.0867C49.3433 31.5152 50.1378 30.6149 50.5783 29.5332C51.0188 28.4515 51.0792 27.2524 50.7496 26.1319L48.83 20.4291C48.5883 19.6505 48.0542 18.996 47.3399 18.6032C46.6256 18.2105 45.7868 18.11 45 18.323L40.9877 19.4416C40.4123 19.6017 39.8957 19.9252 39.5003 20.3728C39.1049 19.9252 38.5883 19.6017 38.0129 19.4416L33.9996 18.323C33.2185 18.1075 32.3842 18.203 31.672 18.5895C30.9598 18.976 30.4251 19.6234 30.18 20.3958L28.2354 26.1839C27.9187 27.3036 27.9896 28.4974 28.4366 29.5716C28.8836 30.6459 29.6803 31.5377 30.6977 32.1023L29.7144 34.9438L28.3551 34.5209C28.2245 34.4799 28.0871 34.465 27.9507 34.4771C27.8143 34.4891 27.6816 34.528 27.5602 34.5913C27.4388 34.6547 27.3311 34.7413 27.2432 34.8463C27.1553 34.9513 27.089 35.0725 27.0479 35.2032C27.0069 35.3338 26.992 35.4712 27.0041 35.6076C27.0161 35.744 27.055 35.8767 27.1183 35.9981C27.1817 36.1195 27.2683 36.2272 27.3733 36.3151C27.4783 36.403 27.5995 36.4694 27.7302 36.5104L29.98 37.2093C29.9957 37.2093 30.005 37.227 30.0207 37.2333C30.0363 37.2395 30.0748 37.2395 30.1019 37.2468L32.3736 37.952C32.6375 38.034 32.9231 38.0079 33.1676 37.8794C33.4122 37.7508 33.5957 37.5304 33.6777 37.2666C33.7598 37.0028 33.7337 36.7172 33.6051 36.4726C33.4766 36.228 33.2562 36.0445 32.9924 35.9625L31.7049 35.5615L32.6788 32.7492C32.872 32.774 33.0664 32.7879 33.2611 32.7908C34.3872 32.788 35.4821 32.4203 36.3817 31.7428C37.2812 31.0652 37.9369 30.1144 38.2504 29.0327L39.5003 25.3288L40.7325 28.9744C41.0362 30.0698 41.69 31.0357 42.5941 31.7248C43.4981 32.4139 44.6028 32.7883 45.7395 32.7908C45.9419 32.7889 46.144 32.775 46.3447 32.7492L47.3009 35.5615L46.0051 35.9635C45.7413 36.0456 45.5209 36.2291 45.3923 36.4736C45.2638 36.7182 45.2377 37.0038 45.3197 37.2676C45.4018 37.5315 45.5853 37.7519 45.8298 37.8804C46.0744 38.0089 46.36 38.0351 46.6238 37.953L48.8893 37.2499C48.9164 37.2426 48.9445 37.2499 48.9716 37.2364C48.9987 37.2228 48.9987 37.2166 49.0154 37.2103L51.2673 36.5114C51.3981 36.4708 51.5195 36.4048 51.6248 36.3172C51.73 36.2297 51.8169 36.1222 51.8806 36.001C51.9442 35.8797 51.9834 35.7472 51.9957 35.6108C52.0081 35.4745 51.9935 35.337 51.9527 35.2063ZM40.9138 21.9498C40.98 21.8278 41.0703 21.7204 41.1791 21.6341C41.2879 21.5478 41.4131 21.4844 41.5471 21.4478L45.5583 20.3301C45.6478 20.3051 45.7403 20.2921 45.8333 20.2916C46.0623 20.294 46.2845 20.3702 46.4669 20.5089C46.6493 20.6475 46.7821 20.8412 46.8457 21.0613L47.6384 23.4164H41.0523L40.8283 22.7529C40.7884 22.6201 40.7754 22.4807 40.7901 22.3427C40.8047 22.2048 40.8468 22.0713 40.9138 21.9498ZM33.1653 20.2916C33.2585 20.2918 33.3514 20.3044 33.4413 20.3291L37.4535 21.4478C37.7186 21.5209 37.944 21.6958 38.0806 21.9345C38.2172 22.1731 38.2539 22.4561 38.1827 22.7217L37.9483 23.4164H31.3622L32.1643 21.0311C32.2305 20.8172 32.3633 20.6301 32.5434 20.4971C32.7235 20.364 32.9414 20.292 33.1653 20.2916ZM36.263 28.4161C36.0966 29.0106 35.7579 29.5426 35.2894 29.9448C34.821 30.347 34.244 30.6014 33.6311 30.676C33.0182 30.7505 32.397 30.6419 31.8458 30.3637C31.2946 30.0855 30.8382 29.6503 30.5342 29.1129C30.1316 28.411 30.0223 27.5785 30.23 26.7964L30.6613 25.4996H37.2463L36.263 28.4161ZM44.2125 30.2993C43.8475 30.0922 43.5277 29.8142 43.2717 29.4817C43.0157 29.1491 42.8288 28.7688 42.722 28.363L41.7543 25.4996H48.3404L48.757 26.7433C48.9233 27.3389 48.909 27.9704 48.7162 28.558C48.5233 29.1455 48.1604 29.6626 47.6735 30.0438C47.1866 30.425 46.5975 30.6531 45.9809 30.6994C45.3642 30.7456 44.7477 30.6078 44.2094 30.3035L44.2125 30.2993Z" fill="#F85EDF"/>
<path d="M43.2012 17.0627C43.3242 17.1245 43.4582 17.1614 43.5955 17.1711C43.7328 17.1808 43.8707 17.1632 44.0012 17.1194C44.1316 17.0755 44.2521 17.0062 44.3556 16.9155C44.4591 16.8247 44.5437 16.7144 44.6043 16.5908L45.6459 14.5076C45.7694 14.2604 45.7896 13.9742 45.7021 13.7121C45.6146 13.4499 45.4265 13.2333 45.1792 13.1098C44.932 12.9863 44.6458 12.9661 44.3837 13.0536C44.1215 13.1411 43.9049 13.3292 43.7814 13.5764L42.7398 15.6596C42.6776 15.782 42.6402 15.9154 42.6297 16.0523C42.6193 16.1891 42.636 16.3267 42.6788 16.4571C42.7217 16.5875 42.7899 16.7081 42.8796 16.812C42.9692 16.916 43.0785 17.0011 43.2012 17.0627Z" fill="#F85EDF"/>
<path d="M34.4018 16.5908C34.5253 16.8388 34.7422 17.0275 35.0048 17.1155C35.1349 17.1591 35.2722 17.1766 35.409 17.1671C35.5458 17.1576 35.6795 17.1212 35.8022 17.0601C35.925 16.9989 36.0345 16.9142 36.1245 16.8107C36.2145 16.7073 36.2833 16.5871 36.3269 16.457C36.3705 16.327 36.388 16.1897 36.3785 16.0528C36.369 15.916 36.3326 15.7824 36.2715 15.6596L35.2299 13.5764C35.1687 13.454 35.0841 13.3448 34.9807 13.2551C34.8774 13.1654 34.7574 13.097 34.6276 13.0536C34.3654 12.9661 34.0793 12.9863 33.832 13.1098C33.5848 13.2333 33.3967 13.4499 33.3092 13.7121C33.2217 13.9742 33.2419 14.2604 33.3654 14.5076L34.4018 16.5908Z" fill="#F85EDF"/>
<path d="M39.5005 17.167C39.7768 17.167 40.0417 17.0572 40.237 16.8619C40.4324 16.6666 40.5421 16.4016 40.5421 16.1254V14.0422C40.5421 13.7659 40.4324 13.501 40.237 13.3057C40.0417 13.1103 39.7768 13.0006 39.5005 13.0006C39.2243 13.0006 38.9593 13.1103 38.764 13.3057C38.5686 13.501 38.4589 13.7659 38.4589 14.0422V16.1254C38.4589 16.4016 38.5686 16.6666 38.764 16.8619C38.9593 17.0572 39.2243 17.167 39.5005 17.167Z" fill="#F85EDF"/>
</svg>
