<svg width="50" height="75" viewBox="0 0 50 75" fill="none" xmlns="http://www.w3.org/2000/svg">
<path d="M7.89034 71.1902C6.98168 71.1902 6.21037 70.9894 5.57642 70.5879C4.94247 70.1864 4.45855 69.6286 4.12467 68.9143C3.79502 68.2001 3.63019 67.3738 3.63019 66.4356C3.63019 65.4973 3.79502 64.6711 4.12467 63.9568C4.45855 63.2426 4.94247 62.6847 5.57642 62.2832C6.21037 61.8817 6.98168 61.6809 7.89034 61.6809C8.94692 61.6809 9.81544 61.9493 10.4959 62.486C11.1805 63.0228 11.6518 63.7455 11.9096 64.6542L10.7621 64.9585C10.5762 64.278 10.2444 63.7413 9.76683 63.3482C9.28926 62.9552 8.66376 62.7586 7.89034 62.7586C7.2099 62.7586 6.64357 62.9129 6.19135 63.2214C5.73914 63.5299 5.39891 63.961 5.17069 64.5147C4.94247 65.0641 4.82625 65.7044 4.82202 66.4356C4.81779 67.1625 4.92979 67.8028 5.15801 68.3564C5.38624 68.9059 5.72857 69.3369 6.18501 69.6497C6.64146 69.9582 7.2099 70.1125 7.89034 70.1125C8.66376 70.1125 9.28926 69.9159 9.76683 69.5229C10.2444 69.1256 10.5762 68.5889 10.7621 67.9127L11.9096 68.217C11.6518 69.1214 11.1805 69.8441 10.4959 70.3851C9.81544 70.9218 8.94692 71.1902 7.89034 71.1902ZM15.8991 71.1775C15.4596 71.1775 15.0813 71.1078 14.7643 70.9683C14.4516 70.8288 14.1917 70.6429 13.9846 70.4104C13.7775 70.178 13.6148 69.9202 13.4964 69.637C13.3781 69.3538 13.2936 69.0643 13.2429 68.7685C13.1964 68.4727 13.1731 68.1958 13.1731 67.938V64.1533H14.3142V67.583C14.3142 67.9042 14.3438 68.2148 14.403 68.5149C14.4622 68.815 14.5615 69.0855 14.701 69.3264C14.8446 69.5673 15.0348 69.7575 15.2715 69.8969C15.5124 70.0364 15.8125 70.1061 16.1717 70.1061C16.4549 70.1061 16.7127 70.0575 16.9451 69.9603C17.1776 69.8631 17.3762 69.7194 17.541 69.5292C17.7059 69.3348 17.8327 69.0897 17.9214 68.7939C18.0102 68.498 18.0545 68.1536 18.0545 67.7605L18.7963 67.9887C18.7963 68.648 18.6758 69.2165 18.4349 69.6941C18.1982 70.1716 17.8623 70.5393 17.4269 70.7971C16.9959 71.0507 16.4866 71.1775 15.8991 71.1775ZM18.1813 71V69.1679H18.0545V64.1533H19.1893V71H18.1813ZM21.0911 71V61.6809H22.2195V71H21.0911ZM27.9444 71C27.5386 71.0803 27.1371 71.112 26.7399 71.0951C26.3468 71.0824 25.996 71.0042 25.6875 70.8605C25.379 70.7126 25.1444 70.4844 24.9838 70.1759C24.8486 69.9054 24.7746 69.6328 24.7619 69.3581C24.7535 69.0791 24.7493 68.7643 24.7493 68.4135V62.2515H25.8777V68.3628C25.8777 68.6417 25.8798 68.8805 25.884 69.0791C25.8925 69.2778 25.9369 69.4489 26.0172 69.5926C26.1693 69.8631 26.4102 70.0216 26.7399 70.0681C27.0738 70.1146 27.4753 70.1019 27.9444 70.0301V71ZM23.3609 65.0852V64.1533H27.9444V65.0852H23.3609ZM31.9336 71.1775C31.4941 71.1775 31.1158 71.1078 30.7988 70.9683C30.4861 70.8288 30.2262 70.6429 30.0191 70.4104C29.812 70.178 29.6493 69.9202 29.5309 69.637C29.4126 69.3538 29.3281 69.0643 29.2774 68.7685C29.2309 68.4727 29.2076 68.1958 29.2076 67.938V64.1533H30.3487V67.583C30.3487 67.9042 30.3783 68.2148 30.4375 68.5149C30.4967 68.815 30.596 69.0855 30.7354 69.3264C30.8791 69.5673 31.0693 69.7575 31.306 69.8969C31.5469 70.0364 31.847 70.1061 32.2062 70.1061C32.4894 70.1061 32.7472 70.0575 32.9796 69.9603C33.2121 69.8631 33.4107 69.7194 33.5755 69.5292C33.7404 69.3348 33.8672 69.0897 33.9559 68.7939C34.0447 68.498 34.089 68.1536 34.089 67.7605L34.8308 67.9887C34.8308 68.648 34.7103 69.2165 34.4694 69.6941C34.2327 70.1716 33.8967 70.5393 33.4614 70.7971C33.0303 71.0507 32.5211 71.1775 31.9336 71.1775ZM34.2158 71V69.1679H34.089V64.1533H35.2238V71H34.2158ZM36.9988 71V64.1533H38.0068V65.8079L37.8419 65.5924C37.9222 65.3811 38.0258 65.1867 38.1526 65.0092C38.2836 64.8317 38.4294 64.6859 38.59 64.5717C38.7675 64.428 38.9682 64.3182 39.1922 64.2421C39.4162 64.166 39.6445 64.1216 39.8769 64.109C40.1094 64.0921 40.327 64.1068 40.5299 64.1533V65.212C40.2932 65.1486 40.0333 65.1317 39.7501 65.1613C39.467 65.1909 39.2049 65.2944 38.964 65.472C38.7443 65.6283 38.5731 65.8185 38.4505 66.0425C38.3322 66.2665 38.2498 66.5095 38.2033 66.7715C38.1568 67.0294 38.1335 67.2935 38.1335 67.564V71H36.9988ZM43.452 71.1902C42.9406 71.1902 42.5116 71.0972 42.1651 70.9112C41.8227 70.7211 41.5628 70.4717 41.3853 70.1632C41.212 69.8547 41.1254 69.5166 41.1254 69.1489C41.1254 68.7896 41.193 68.479 41.3283 68.217C41.4677 67.9507 41.6621 67.7309 41.9115 67.5576C42.1608 67.3801 42.4588 67.2407 42.8054 67.1392C43.1308 67.0505 43.4943 66.9744 43.8958 66.911C44.3015 66.8434 44.7114 66.7821 45.1256 66.7272C45.5398 66.6722 45.9265 66.6194 46.2858 66.5687L45.88 66.8032C45.8927 66.1947 45.7701 65.7445 45.5123 65.4529C45.2588 65.1613 44.8192 65.0155 44.1937 65.0155C43.7795 65.0155 43.4161 65.1106 43.1033 65.3008C42.7948 65.4867 42.5771 65.791 42.4503 66.2137L41.379 65.8904C41.5438 65.2902 41.8629 64.819 42.3362 64.4766C42.8096 64.1343 43.433 63.9631 44.2064 63.9631C44.8277 63.9631 45.3602 64.0751 45.8039 64.2991C46.2519 64.5189 46.5731 64.8528 46.7676 65.3008C46.8648 65.5121 46.926 65.7424 46.9514 65.9918C46.9768 66.2369 46.9894 66.4947 46.9894 66.7652V71H45.9878V69.3581L46.2224 69.5102C45.9645 70.0639 45.6032 70.4823 45.1383 70.7654C44.6776 71.0486 44.1155 71.1902 43.452 71.1902ZM43.6232 70.2456C44.0289 70.2456 44.3797 70.1738 44.6755 70.0301C44.9756 69.8821 45.2165 69.6898 45.3982 69.4532C45.58 69.2123 45.6983 68.9502 45.7532 68.6671C45.8166 68.4557 45.8504 68.2212 45.8547 67.9634C45.8631 67.7013 45.8673 67.5006 45.8673 67.3611L46.2604 67.5323C45.8927 67.583 45.5313 67.6316 45.1763 67.6781C44.8213 67.7246 44.4853 67.7753 44.1684 67.8302C43.8514 67.881 43.5661 67.9422 43.3125 68.0141C43.1266 68.0733 42.9512 68.1493 42.7863 68.2423C42.6257 68.3353 42.4947 68.4557 42.3933 68.6037C42.2961 68.7474 42.2475 68.927 42.2475 69.1425C42.2475 69.3285 42.294 69.506 42.387 69.675C42.4842 69.8441 42.6321 69.9815 42.8307 70.0871C43.0336 70.1928 43.2977 70.2456 43.6232 70.2456Z" fill="#5D5FEF"/>
<circle cx="25" cy="25" r="25" fill="#5D5FEF" fill-opacity="0.2"/>
<path d="M13 37.25C12.5858 37.25 12.25 37.5858 12.25 38C12.25 38.4142 12.5858 38.75 13 38.75V37.25ZM38.0001 38.75C38.4143 38.75 38.7501 38.4142 38.7501 38C38.7501 37.5858 38.4143 37.25 38.0001 37.25V38.75ZM15.5036 15.7275L15.3062 15.0039C14.9799 15.0929 14.7536 15.3893 14.7536 15.7275H15.5036ZM25.5036 13L25.701 12.2764C25.5718 12.2412 25.4355 12.2412 25.3063 12.2764L25.5036 13ZM35.5036 15.7275H36.2536C36.2536 15.3893 36.0273 15.0929 35.701 15.0039L35.5036 15.7275ZM35.5036 19.25V20C35.9178 20 36.2536 19.6642 36.2536 19.25H35.5036ZM15.5036 19.25H14.7536C14.7536 19.6642 15.0894 20 15.5036 20V19.25ZM17.5019 19.2501C17.5019 18.8358 17.1661 18.5001 16.7519 18.5001C16.3377 18.5001 16.0019 18.8358 16.0019 19.2501H17.5019ZM16.0019 34.2501C16.0019 34.6643 16.3377 35.0001 16.7519 35.0001C17.1661 35.0001 17.5019 34.6643 17.5019 34.2501H16.0019ZM21.8721 19.2501C21.8721 18.8358 21.5363 18.5001 21.1221 18.5001C20.7078 18.5001 20.3721 18.8358 20.3721 19.2501H21.8721ZM20.3721 34.2501C20.3721 34.6643 20.7078 35.0001 21.1221 35.0001C21.5363 35.0001 21.8721 34.6643 21.8721 34.2501H20.3721ZM26.2511 19.2501C26.2511 18.8358 25.9153 18.5001 25.5011 18.5001C25.0869 18.5001 24.7511 18.8358 24.7511 19.2501H26.2511ZM24.7511 34.2501C24.7511 34.6643 25.0869 35.0001 25.5011 35.0001C25.9153 35.0001 26.2511 34.6643 26.2511 34.2501H24.7511ZM30.6222 19.2501C30.6222 18.8358 30.2864 18.5001 29.8722 18.5001C29.458 18.5001 29.1222 18.8358 29.1222 19.2501H30.6222ZM29.1222 34.2501C29.1222 34.6643 29.458 35.0001 29.8722 35.0001C30.2864 35.0001 30.6222 34.6643 30.6222 34.2501H29.1222ZM35.0013 19.2501C35.0013 18.8358 34.6655 18.5001 34.2513 18.5001C33.8371 18.5001 33.5013 18.8358 33.5013 19.2501H35.0013ZM33.5013 34.2501C33.5013 34.6643 33.8371 35.0001 34.2513 35.0001C34.6655 35.0001 35.0013 34.6643 35.0013 34.2501H33.5013ZM14.8755 34.2495V33.4995C14.4612 33.4995 14.1255 33.8353 14.1255 34.2495H14.8755ZM36.1255 34.2495H36.8755C36.8755 33.8353 36.5397 33.4995 36.1255 33.4995V34.2495ZM36.1255 37.9996V38.7496C36.5397 38.7496 36.8755 38.4138 36.8755 37.9996H36.1255ZM14.8755 37.9996H14.1255C14.1255 38.4138 14.4612 38.7496 14.8755 38.7496V37.9996ZM13 38.75H38.0001V37.25H13V38.75ZM15.7009 16.4511L25.701 13.7236L25.3063 12.2764L15.3062 15.0039L15.7009 16.4511ZM25.3063 13.7236L35.3063 16.4511L35.701 15.0039L25.701 12.2764L25.3063 13.7236ZM34.7536 15.7275V19.25H36.2536V15.7275H34.7536ZM35.5036 18.5H15.5036V20H35.5036V18.5ZM16.2536 19.25V15.7275H14.7536V19.25H16.2536ZM16.0019 19.2501V34.2501H17.5019V19.2501H16.0019ZM20.3721 19.2501V34.2501H21.8721V19.2501H20.3721ZM24.7511 19.2501V34.2501H26.2511V19.2501H24.7511ZM29.1222 19.2501V34.2501H30.6222V19.2501H29.1222ZM33.5013 19.2501V34.2501H35.0013V19.2501H33.5013ZM14.8755 34.9995H36.1255V33.4995H14.8755V34.9995ZM35.3755 34.2495V37.9996H36.8755V34.2495H35.3755ZM36.1255 37.2496H14.8755V38.7496H36.1255V37.2496ZM15.6255 37.9996V34.2495H14.1255V37.9996H15.6255Z" fill="#5D5FEF"/>
</svg>
