<svg width="56" height="75" viewBox="0 0 56 75" fill="none" xmlns="http://www.w3.org/2000/svg">
<path d="M1.2203 71V61.8711H4.03504C4.12802 61.8711 4.29073 61.8732 4.52318 61.8775C4.75563 61.8817 4.97751 61.8986 5.18883 61.9282C5.89462 62.0211 6.4842 62.279 6.95755 62.7016C7.43513 63.12 7.79436 63.6525 8.03526 64.2991C8.27617 64.9458 8.39662 65.6579 8.39662 66.4356C8.39662 67.2132 8.27617 67.9253 8.03526 68.572C7.79436 69.2186 7.43513 69.7532 6.95755 70.1759C6.4842 70.5943 5.89462 70.85 5.18883 70.9429C4.97751 70.9683 4.75351 70.9852 4.51684 70.9937C4.28439 70.9979 4.12379 71 4.03504 71H1.2203ZM2.38043 69.9223H4.03504C4.19564 69.9223 4.37526 69.9181 4.57389 69.9096C4.77253 69.8969 4.94581 69.8779 5.09373 69.8525C5.59244 69.7596 5.99606 69.5504 6.30458 69.2249C6.6131 68.8995 6.83921 68.4938 6.98291 68.0078C7.1266 67.5217 7.19845 66.9977 7.19845 66.4356C7.19845 65.8608 7.12449 65.3304 6.97657 64.8443C6.83287 64.3583 6.60676 63.9547 6.29824 63.6335C5.98972 63.3123 5.58822 63.1073 5.09373 63.0186C4.94581 62.989 4.77042 62.97 4.56756 62.9615C4.36469 62.9531 4.18718 62.9488 4.03504 62.9488H2.38043V69.9223ZM12.8173 71.1902C12.1453 71.1902 11.5579 71.0423 11.0549 70.7464C10.5562 70.4463 10.1674 70.0301 9.88848 69.4975C9.60954 68.9608 9.47007 68.3353 9.47007 67.621C9.47007 66.873 9.60743 66.2264 9.88214 65.6812C10.1569 65.1317 10.5393 64.7091 11.0296 64.4133C11.5241 64.1132 12.1031 63.9631 12.7666 63.9631C13.4555 63.9631 14.0409 64.1216 14.5227 64.4386C15.0087 64.7556 15.3722 65.2078 15.6131 65.7953C15.8582 66.3827 15.9638 67.0822 15.93 67.8936H14.7889V67.4879C14.7762 66.6469 14.6051 66.0193 14.2754 65.6051C13.9458 65.1867 13.4555 64.9775 12.8047 64.9775C12.1073 64.9775 11.5769 65.2015 11.2134 65.6495C10.85 66.0974 10.6682 66.7399 10.6682 67.5767C10.6682 68.3839 10.85 69.0094 11.2134 69.4532C11.5769 69.8969 12.0946 70.1188 12.7666 70.1188C13.2188 70.1188 13.6119 70.0153 13.9458 69.8082C14.2796 69.6011 14.5417 69.3031 14.7319 68.9143L15.8159 69.2883C15.5497 69.8927 15.1482 70.3618 14.6114 70.6957C14.0789 71.0254 13.4809 71.1902 12.8173 71.1902ZM10.2879 67.8936V66.9871H15.3468V67.8936H10.2879ZM19.928 71.1838C19.1123 71.1838 18.4424 71.0063 17.9184 70.6513C17.3985 70.2921 17.0794 69.7913 16.9611 69.1489L18.1149 68.965C18.2079 69.3369 18.4213 69.6328 18.7552 69.8525C19.0891 70.0681 19.5032 70.1759 19.9977 70.1759C20.4668 70.1759 20.8345 70.0787 21.1008 69.8842C21.367 69.6898 21.5002 69.4257 21.5002 69.0918C21.5002 68.8974 21.4558 68.741 21.367 68.6227C21.2783 68.5001 21.0944 68.386 20.8155 68.2804C20.5408 68.1747 20.1245 68.0479 19.5666 67.9C18.9623 67.7394 18.4868 67.5724 18.1402 67.3992C17.7937 67.2259 17.5464 67.0251 17.3985 66.7969C17.2506 66.5687 17.1766 66.2919 17.1766 65.9664C17.1766 65.5649 17.2865 65.2141 17.5063 64.9141C17.7261 64.6098 18.0325 64.3752 18.4255 64.2104C18.8228 64.0456 19.2835 63.9631 19.8075 63.9631C20.3274 63.9631 20.7923 64.0456 21.2022 64.2104C21.6122 64.3752 21.9418 64.6098 22.1912 64.9141C22.4448 65.2141 22.5948 65.5649 22.6413 65.9664L21.4875 66.1756C21.4326 65.8079 21.255 65.5184 20.955 65.3071C20.6591 65.0958 20.2767 64.9838 19.8075 64.9711C19.3638 64.9542 19.0024 65.0324 18.7235 65.2057C18.4488 65.379 18.3114 65.6135 18.3114 65.9094C18.3114 66.0742 18.3621 66.2158 18.4636 66.3341C18.5692 66.4525 18.7615 66.5645 19.0404 66.6701C19.3236 66.7758 19.7336 66.8962 20.2703 67.0315C20.8747 67.1836 21.3501 67.3506 21.6967 67.5323C22.0475 67.7098 22.2968 67.9211 22.4448 68.1662C22.5927 68.4071 22.6666 68.7051 22.6666 69.0601C22.6666 69.7194 22.4236 70.2393 21.9376 70.6196C21.4516 70.9958 20.7817 71.1838 19.928 71.1838ZM27.2092 71.1902C26.5668 71.1902 26.0258 71.0317 25.5863 70.7147C25.1467 70.3935 24.8129 69.9603 24.5846 69.4151C24.3606 68.8657 24.2486 68.2508 24.2486 67.5703C24.2486 66.8814 24.3606 66.2644 24.5846 65.7192C24.8129 65.174 25.1467 64.745 25.5863 64.4323C26.03 64.1195 26.5731 63.9631 27.2155 63.9631C27.8495 63.9631 28.3947 64.1216 28.8511 64.4386C29.3118 64.7514 29.6647 65.1803 29.9098 65.7255C30.155 66.2707 30.2775 66.8857 30.2775 67.5703C30.2775 68.255 30.155 68.8699 29.9098 69.4151C29.6647 69.9603 29.3118 70.3935 28.8511 70.7147C28.3947 71.0317 27.8474 71.1902 27.2092 71.1902ZM24.0585 74.043V64.1533H25.0664V69.1932H25.1932V74.043H24.0585ZM27.0697 70.1568C27.5219 70.1568 27.896 70.0427 28.1918 69.8145C28.4877 69.5863 28.7095 69.2778 28.8575 68.8889C29.0054 68.4959 29.0794 68.0564 29.0794 67.5703C29.0794 67.0885 29.0054 66.6532 28.8575 66.2644C28.7138 65.8756 28.4898 65.567 28.1855 65.3388C27.8854 65.1106 27.5029 64.9965 27.038 64.9965C26.5943 64.9965 26.2266 65.1064 25.935 65.3261C25.6433 65.5417 25.4257 65.8439 25.282 66.2327C25.1383 66.6173 25.0664 67.0632 25.0664 67.5703C25.0664 68.069 25.1362 68.5149 25.2756 68.908C25.4193 69.2968 25.6391 69.6032 25.935 69.8272C26.2308 70.047 26.6091 70.1568 27.0697 70.1568ZM34.5834 71.1902C33.903 71.1902 33.3155 71.0359 32.821 70.7274C32.3308 70.4189 31.9525 69.992 31.6863 69.4468C31.42 68.9016 31.2869 68.2761 31.2869 67.5703C31.2869 66.8519 31.4221 66.2221 31.6926 65.6812C31.9631 65.1402 32.3456 64.7197 32.8401 64.4196C33.3345 64.1153 33.9157 63.9631 34.5834 63.9631C35.2681 63.9631 35.8577 64.1174 36.3522 64.4259C36.8466 64.7302 37.2249 65.155 37.4869 65.7002C37.7532 66.2411 37.8863 66.8645 37.8863 67.5703C37.8863 68.2846 37.7532 68.9143 37.4869 69.4595C37.2207 70.0005 36.8403 70.4252 36.3458 70.7337C35.8513 71.038 35.2639 71.1902 34.5834 71.1902ZM34.5834 70.1188C35.2935 70.1188 35.8217 69.8821 36.1683 69.4088C36.5149 68.9354 36.6881 68.3226 36.6881 67.5703C36.6881 66.7969 36.5128 66.182 36.162 65.7255C35.8112 65.2649 35.285 65.0345 34.5834 65.0345C34.1059 65.0345 33.7128 65.1423 33.4043 65.3578C33.0958 65.5734 32.8654 65.8713 32.7133 66.2517C32.5611 66.6321 32.4851 67.0716 32.4851 67.5703C32.4851 68.3395 32.6626 68.9566 33.0176 69.4215C33.3726 69.8864 33.8945 70.1188 34.5834 70.1188ZM39.2821 71V64.1533H40.2901V65.8079L40.1252 65.5924C40.2055 65.3811 40.3091 65.1867 40.4359 65.0092C40.5669 64.8317 40.7127 64.6859 40.8733 64.5717C41.0508 64.428 41.2516 64.3182 41.4756 64.2421C41.6996 64.166 41.9278 64.1216 42.1602 64.109C42.3927 64.0921 42.6103 64.1068 42.8132 64.1533V65.212C42.5765 65.1486 42.3166 65.1317 42.0334 65.1613C41.7503 65.1909 41.4882 65.2944 41.2473 65.472C41.0276 65.6283 40.8564 65.8185 40.7338 66.0425C40.6155 66.2665 40.5331 66.5095 40.4866 66.7715C40.4401 67.0294 40.4169 67.2935 40.4169 67.564V71H39.2821ZM47.8347 71C47.429 71.0803 47.0274 71.112 46.6302 71.0951C46.2371 71.0824 45.8863 71.0042 45.5778 70.8605C45.2693 70.7126 45.0347 70.4844 44.8741 70.1759C44.7389 69.9054 44.6649 69.6328 44.6522 69.3581C44.6438 69.0791 44.6396 68.7643 44.6396 68.4135V62.2515H45.768V68.3628C45.768 68.6417 45.7701 68.8805 45.7743 69.0791C45.7828 69.2778 45.8272 69.4489 45.9075 69.5926C46.0596 69.8631 46.3005 70.0216 46.6302 70.0681C46.9641 70.1146 47.3656 70.1019 47.8347 70.0301V71ZM43.2512 65.0852V64.1533H47.8347V65.0852H43.2512ZM51.8561 71.1902C51.1757 71.1902 50.5882 71.0359 50.0937 70.7274C49.6035 70.4189 49.2252 69.992 48.9589 69.4468C48.6927 68.9016 48.5596 68.2761 48.5596 67.5703C48.5596 66.8519 48.6948 66.2221 48.9653 65.6812C49.2358 65.1402 49.6183 64.7197 50.1127 64.4196C50.6072 64.1153 51.1883 63.9631 51.8561 63.9631C52.5408 63.9631 53.1303 64.1174 53.6248 64.4259C54.1193 64.7302 54.4976 65.155 54.7596 65.7002C55.0259 66.2411 55.159 66.8645 55.159 67.5703C55.159 68.2846 55.0259 68.9143 54.7596 69.4595C54.4933 70.0005 54.113 70.4252 53.6185 70.7337C53.124 71.038 52.5365 71.1902 51.8561 71.1902ZM51.8561 70.1188C52.5661 70.1188 53.0944 69.8821 53.441 69.4088C53.7875 68.9354 53.9608 68.3226 53.9608 67.5703C53.9608 66.7969 53.7854 66.182 53.4346 65.7255C53.0839 65.2649 52.5577 65.0345 51.8561 65.0345C51.3785 65.0345 50.9855 65.1423 50.677 65.3578C50.3684 65.5734 50.1381 65.8713 49.9859 66.2517C49.8338 66.6321 49.7577 67.0716 49.7577 67.5703C49.7577 68.3395 49.9352 68.9566 50.2902 69.4215C50.6453 69.8864 51.1672 70.1188 51.8561 70.1188Z" fill="#68BDFA"/>
<circle cx="28" cy="25" r="25" fill="#68BDFA" fill-opacity="0.2"/>
<path d="M35.5967 25.5787C35.4252 24.9637 35.2317 24.3129 35.0162 23.6128C34.3781 21.8477 33.947 20.014 33.7317 18.1487C33.7317 17.8704 33.8419 17.6034 34.0381 17.4066C34.2342 17.2097 34.5003 17.0992 34.7777 17.0992C35.0551 17.0992 35.3212 17.2097 35.5174 17.4066C35.7135 17.6034 35.8237 17.8704 35.8237 18.1487C35.8237 18.4271 35.9339 18.6941 36.1301 18.8909C36.3262 19.0877 36.5923 19.1983 36.8697 19.1983C37.1471 19.1983 37.4132 19.0877 37.6094 18.8909C37.8055 18.6941 37.9157 18.4271 37.9157 18.1487C37.9157 17.3136 37.5851 16.5127 36.9966 15.9222C36.4081 15.3317 35.61 15 34.7777 15C33.9455 15 33.1473 15.3317 32.5588 15.9222C31.9703 16.5127 31.6397 17.3136 31.6397 18.1487C31.6656 18.9502 31.7775 19.7465 31.9734 20.5239L26.9526 24.4462L21.1494 20.2479H24.3177C24.5951 20.2479 24.8612 20.1373 25.0574 19.9405C25.2535 19.7436 25.3637 19.4767 25.3637 19.1983C25.3637 18.92 25.2535 18.653 25.0574 18.4562C24.8612 18.2593 24.5951 18.1487 24.3177 18.1487H21.1494C20.7148 18.1486 20.2914 18.2864 19.9396 18.5424C19.5878 18.7984 19.3258 19.1594 19.1909 19.5739C19.056 19.9884 19.0553 20.4351 19.1887 20.8501C19.3222 21.265 19.583 21.627 19.9339 21.8842L25.2382 25.7802L23.7341 26.9547C22.7998 26.072 21.5723 25.5686 20.2893 25.5419C19.0064 25.5152 17.7592 25.9672 16.7892 26.8102C15.8192 27.6532 15.1955 28.8274 15.0388 30.1054C14.8821 31.3834 15.2035 32.6743 15.9409 33.7281C16.6782 34.782 17.779 35.5238 19.0302 35.81C20.2813 36.0962 21.5938 35.9064 22.7135 35.2773C23.8332 34.6482 24.6804 33.6247 25.0911 32.4048C25.5019 31.1849 25.447 29.8555 24.937 28.6739L32.5612 22.7239C32.7087 23.2235 33.3217 25.2261 33.4566 25.6868C32.2064 26.0144 31.1215 26.7953 30.4115 27.8787C29.7016 28.9621 29.4171 30.271 29.6129 31.5527C29.8087 32.8343 30.4709 33.9976 31.4717 34.8179C32.4724 35.6381 33.7406 36.057 35.0313 35.9937C36.3219 35.9304 37.5434 35.3894 38.4596 34.4751C39.3759 33.5609 39.9219 32.3383 39.9923 31.0436C40.0626 29.7489 39.6522 28.4741 38.8403 27.4653C38.0285 26.4565 36.8729 25.7855 35.5967 25.5819V25.5787ZM20.1337 33.8924C19.5131 33.8924 18.9064 33.7078 18.3903 33.3618C17.8743 33.0158 17.4721 32.524 17.2346 31.9487C16.9971 31.3733 16.9349 30.7402 17.056 30.1294C17.1771 29.5186 17.476 28.9576 17.9148 28.5172C18.3537 28.0768 18.9128 27.7769 19.5215 27.6555C20.1302 27.534 20.7612 27.5963 21.3346 27.8346C21.908 28.073 22.3981 28.4765 22.7429 28.9943C23.0877 29.5121 23.2717 30.1209 23.2717 30.7437C23.2717 31.5788 22.9411 32.3797 22.3526 32.9702C21.7641 33.5607 20.966 33.8924 20.1337 33.8924ZM34.7777 33.8924C34.1571 33.8924 33.5504 33.7078 33.0343 33.3618C32.5183 33.0158 32.1161 32.524 31.8786 31.9487C31.6411 31.3733 31.5789 30.7402 31.7 30.1294C31.8211 29.5186 32.12 28.9576 32.5588 28.5172C32.9977 28.0768 33.5568 27.7769 34.1655 27.6555C34.7742 27.534 35.4052 27.5963 35.9786 27.8346C36.552 28.073 37.0421 28.4765 37.3869 28.9943C37.7317 29.5121 37.9157 30.1209 37.9157 30.7437C37.9157 31.5788 37.5851 32.3797 36.9966 32.9702C36.4081 33.5607 35.61 33.8924 34.7777 33.8924Z" fill="#68BDFA"/>
</svg>
