<svg width="70" height="75" viewBox="0 0 70 75" fill="none" xmlns="http://www.w3.org/2000/svg">
<path d="M1.29265 71V61.8711H7.0616V62.9425H2.42108V65.8016H6.30086V66.873H2.42108V69.9286H7.0616V71H1.29265ZM7.82482 71L10.443 67.5386L7.88187 64.1533H9.22585L11.1023 66.6638L12.9598 64.1533H14.3038L11.7426 67.5386L14.3672 71H13.0169L11.1023 68.4135L9.17513 71H7.82482ZM18.5276 71.1902C17.8852 71.1902 17.3442 71.0317 16.9047 70.7147C16.4651 70.3935 16.1313 69.9603 15.903 69.4151C15.679 68.8657 15.567 68.2508 15.567 67.5703C15.567 66.8814 15.679 66.2644 15.903 65.7192C16.1313 65.174 16.4651 64.745 16.9047 64.4323C17.3484 64.1195 17.8915 63.9631 18.5339 63.9631C19.1679 63.9631 19.7131 64.1216 20.1695 64.4386C20.6302 64.7514 20.9831 65.1803 21.2282 65.7255C21.4733 66.2707 21.5959 66.8857 21.5959 67.5703C21.5959 68.255 21.4733 68.8699 21.2282 69.4151C20.9831 69.9603 20.6302 70.3935 20.1695 70.7147C19.7131 71.0317 19.1658 71.1902 18.5276 71.1902ZM15.3769 74.043V64.1533H16.3848V69.1932H16.5116V74.043H15.3769ZM18.3881 70.1568C18.8403 70.1568 19.2144 70.0427 19.5102 69.8145C19.8061 69.5863 20.0279 69.2778 20.1759 68.8889C20.3238 68.4959 20.3977 68.0564 20.3977 67.5703C20.3977 67.0885 20.3238 66.6532 20.1759 66.2644C20.0322 65.8756 19.8082 65.567 19.5039 65.3388C19.2038 65.1106 18.8213 64.9965 18.3564 64.9965C17.9127 64.9965 17.545 65.1064 17.2533 65.3261C16.9617 65.5417 16.7441 65.8439 16.6004 66.2327C16.4567 66.6173 16.3848 67.0632 16.3848 67.5703C16.3848 68.069 16.4546 68.5149 16.594 68.908C16.7377 69.2968 16.9575 69.6032 17.2533 69.8272C17.5492 70.047 17.9274 70.1568 18.3881 70.1568ZM25.9525 71.1902C25.2805 71.1902 24.6931 71.0423 24.1902 70.7464C23.6914 70.4463 23.3026 70.0301 23.0237 69.4975C22.7447 68.9608 22.6053 68.3353 22.6053 67.621C22.6053 66.873 22.7426 66.2264 23.0173 65.6812C23.2921 65.1317 23.6745 64.7091 24.1648 64.4133C24.6593 64.1132 25.2383 63.9631 25.9018 63.9631C26.5907 63.9631 27.1761 64.1216 27.6579 64.4386C28.1439 64.7556 28.5074 65.2078 28.7483 65.7953C28.9934 66.3827 29.099 67.0822 29.0652 67.8936H27.9241V67.4879C27.9114 66.6469 27.7403 66.0193 27.4106 65.6051C27.081 65.1867 26.5907 64.9775 25.9399 64.9775C25.2425 64.9775 24.7121 65.2015 24.3486 65.6495C23.9852 66.0974 23.8034 66.7399 23.8034 67.5767C23.8034 68.3839 23.9852 69.0094 24.3486 69.4532C24.7121 69.8969 25.2298 70.1188 25.9018 70.1188C26.354 70.1188 26.7471 70.0153 27.081 69.8082C27.4148 69.6011 27.6769 69.3031 27.8671 68.9143L28.9511 69.2883C28.6849 69.8927 28.2834 70.3618 27.7466 70.6957C27.2141 71.0254 26.6161 71.1902 25.9525 71.1902ZM23.4231 67.8936V66.9871H28.482V67.8936H23.4231ZM30.4767 71V64.1533H31.4846V65.8079L31.3198 65.5924C31.4001 65.3811 31.5037 65.1867 31.6305 65.0092C31.7615 64.8317 31.9073 64.6859 32.0679 64.5717C32.2454 64.428 32.4461 64.3182 32.6701 64.2421C32.8941 64.166 33.1224 64.1216 33.3548 64.109C33.5872 64.0921 33.8049 64.1068 34.0078 64.1533V65.212C33.7711 65.1486 33.5112 65.1317 33.228 65.1613C32.9448 65.1909 32.6828 65.2944 32.4419 65.472C32.2221 65.6283 32.051 65.8185 31.9284 66.0425C31.8101 66.2665 31.7277 66.5095 31.6812 66.7715C31.6347 67.0294 31.6114 67.2935 31.6114 67.564V71H30.4767ZM35.3333 62.9425V61.776H36.4617V62.9425H35.3333ZM35.3333 71V64.1533H36.4617V71H35.3333ZM39.2197 63.1073L40.7666 61.3006H41.7682L43.3151 63.1073H42.2056L41.2674 61.9979L40.3291 63.1073H39.2197ZM41.3308 71.1902C40.6588 71.1902 40.0713 71.0423 39.5684 70.7464C39.0697 70.4463 38.6809 70.0301 38.4019 69.4975C38.123 68.9608 37.9835 68.3353 37.9835 67.621C37.9835 66.873 38.1209 66.2264 38.3956 65.6812C38.6703 65.1317 39.0528 64.7091 39.543 64.4133C40.0375 64.1132 40.6165 63.9631 41.2801 63.9631C41.969 63.9631 42.5543 64.1216 43.0361 64.4386C43.5221 64.7556 43.8856 65.2078 44.1265 65.7953C44.3716 66.3827 44.4773 67.0822 44.4435 67.8936H43.3024V67.4879C43.2897 66.6469 43.1185 66.0193 42.7889 65.6051C42.4592 65.1867 41.969 64.9775 41.3181 64.9775C40.6208 64.9775 40.0904 65.2015 39.7269 65.6495C39.3634 66.0974 39.1817 66.7399 39.1817 67.5767C39.1817 68.3839 39.3634 69.0094 39.7269 69.4532C40.0904 69.8969 40.6081 70.1188 41.2801 70.1188C41.7323 70.1188 42.1253 70.0153 42.4592 69.8082C42.7931 69.6011 43.0551 69.3031 43.2453 68.9143L44.3294 69.2883C44.0631 69.8927 43.6616 70.3618 43.1249 70.6957C42.5923 71.0254 41.9943 71.1902 41.3308 71.1902ZM38.8013 67.8936V66.9871H43.8603V67.8936H38.8013ZM50.5443 71V67.5703C50.5443 67.2449 50.5147 66.9322 50.4555 66.6321C50.4006 66.332 50.3013 66.0636 50.1576 65.827C50.0181 65.5861 49.8279 65.3959 49.587 65.2564C49.3503 65.1169 49.0503 65.0472 48.6868 65.0472C48.4036 65.0472 48.1458 65.0958 47.9134 65.193C47.6852 65.286 47.4886 65.4297 47.3238 65.6241C47.159 65.8185 47.0301 66.0636 46.9371 66.3595C46.8483 66.6511 46.804 66.9955 46.804 67.3928L46.0622 67.1646C46.0622 66.5011 46.1806 65.9326 46.4173 65.4593C46.6582 64.9817 46.9941 64.6161 47.4252 64.3625C47.8605 64.1047 48.3719 63.9758 48.9594 63.9758C49.4032 63.9758 49.7814 64.0456 50.0942 64.185C50.4069 64.3245 50.6668 64.5105 50.8739 64.7429C51.081 64.9711 51.2437 65.2289 51.3621 65.5163C51.4804 65.7995 51.5628 66.089 51.6093 66.3848C51.66 66.6765 51.6854 66.9533 51.6854 67.2153V71H50.5443ZM45.6628 71V64.1533H46.6772V65.9855H46.804V71H45.6628ZM56.1561 71.1902C55.463 71.1902 54.8734 71.0359 54.3874 70.7274C53.9056 70.4147 53.5379 69.9857 53.2843 69.4405C53.0307 68.8953 52.8997 68.274 52.8913 67.5767C52.8997 66.8624 53.0329 66.2348 53.2907 65.6938C53.5527 65.1486 53.9267 64.7239 54.4128 64.4196C54.8988 64.1153 55.4841 63.9631 56.1688 63.9631C56.8915 63.9631 57.5128 64.1407 58.0326 64.4957C58.5567 64.8507 58.9075 65.3367 59.085 65.9538L57.9692 66.2897C57.8255 65.8925 57.591 65.5839 57.2655 65.3642C56.9443 65.1444 56.5745 65.0345 56.1561 65.0345C55.687 65.0345 55.3003 65.1444 54.996 65.3642C54.6917 65.5797 54.4656 65.8798 54.3177 66.2644C54.1697 66.6448 54.0937 67.0822 54.0894 67.5767C54.0979 68.3374 54.2733 68.9523 54.6156 69.4215C54.9622 69.8864 55.4757 70.1188 56.1561 70.1188C56.6041 70.1188 56.976 70.0174 57.2719 69.8145C57.5677 69.6074 57.7917 69.3095 57.9439 68.9206L59.085 69.2186C58.8483 69.8568 58.4785 70.3449 57.9756 70.683C57.4726 71.0211 56.8661 71.1902 56.1561 71.1902ZM60.3199 62.9425V61.776H61.4483V62.9425H60.3199ZM60.3199 71V64.1533H61.4483V71H60.3199ZM65.2967 71.1902C64.7853 71.1902 64.3563 71.0972 64.0098 70.9112C63.6674 70.7211 63.4075 70.4717 63.23 70.1632C63.0567 69.8547 62.9701 69.5166 62.9701 69.1489C62.9701 68.7896 63.0377 68.479 63.173 68.217C63.3124 67.9507 63.5068 67.7309 63.7562 67.5576C64.0055 67.3801 64.3035 67.2407 64.6501 67.1392C64.9755 67.0505 65.339 66.9744 65.7405 66.911C66.1462 66.8434 66.5561 66.7821 66.9703 66.7272C67.3845 66.6722 67.7712 66.6194 68.1305 66.5687L67.7247 66.8032C67.7374 66.1947 67.6148 65.7445 67.357 65.4529C67.1035 65.1613 66.6639 65.0155 66.0384 65.0155C65.6242 65.0155 65.2608 65.1106 64.948 65.3008C64.6395 65.4867 64.4218 65.791 64.295 66.2137L63.2237 65.8904C63.3885 65.2902 63.7076 64.819 64.1809 64.4766C64.6543 64.1343 65.2777 63.9631 66.0511 63.9631C66.6724 63.9631 67.2049 64.0751 67.6486 64.2991C68.0966 64.5189 68.4178 64.8528 68.6123 65.3008C68.7095 65.5121 68.7707 65.7424 68.7961 65.9918C68.8215 66.2369 68.8341 66.4947 68.8341 66.7652V71H67.8325V69.3581L68.0671 69.5102C67.8092 70.0639 67.4479 70.4823 66.983 70.7654C66.5223 71.0486 65.9602 71.1902 65.2967 71.1902ZM65.4679 70.2456C65.8736 70.2456 66.2244 70.1738 66.5202 70.0301C66.8203 69.8821 67.0612 69.6898 67.2429 69.4532C67.4247 69.2123 67.543 68.9502 67.5979 68.6671C67.6613 68.4557 67.6951 68.2212 67.6994 67.9634C67.7078 67.7013 67.712 67.5006 67.712 67.3611L68.1051 67.5323C67.7374 67.583 67.376 67.6316 67.021 67.6781C66.666 67.7246 66.33 67.7753 66.0131 67.8302C65.6961 67.881 65.4108 67.9422 65.1572 68.0141C64.9713 68.0733 64.7959 68.1493 64.631 68.2423C64.4704 68.3353 64.3394 68.4557 64.238 68.6037C64.1408 68.7474 64.0922 68.927 64.0922 69.1425C64.0922 69.3285 64.1387 69.506 64.2317 69.675C64.3289 69.8441 64.4768 69.9815 64.6754 70.0871C64.8783 70.1928 65.1424 70.2456 65.4679 70.2456Z" fill="#316DE2"/>
<circle cx="35" cy="25" r="25" fill="#316DE2" fill-opacity="0.2"/>
<path d="M45.9583 33.8332C45.6821 33.8332 45.4171 33.9429 45.2218 34.1383C45.0264 34.3336 44.9167 34.5986 44.9167 34.8748C44.9167 35.2332 44.2063 35.9165 43.0938 35.9165C42.7812 35.9275 42.4702 35.8688 42.1832 35.7446C41.8962 35.6205 41.6404 35.4341 41.4344 35.1988C41.4751 35.1324 41.5196 35.0684 41.5677 35.0071C43.2665 33.2256 44.4089 30.9874 44.8552 28.5666C44.9873 27.8382 44.8566 27.0866 44.4863 26.4457C44.1161 25.8047 43.5303 25.316 42.8333 25.0666V22.3749C42.8333 21.2699 42.3943 20.2101 41.6129 19.4287C40.8315 18.6473 39.7717 18.2083 38.6667 18.2083V17.1666C38.6667 16.0616 38.2277 15.0018 37.4463 14.2204C36.6649 13.439 35.6051 13 34.5 13C33.3949 13 32.3351 13.439 31.5537 14.2204C30.7723 15.0018 30.3333 16.0616 30.3333 17.1666V18.2083C29.2283 18.2083 28.1685 18.6473 27.3871 19.4287C26.6057 20.2101 26.1667 21.2699 26.1667 22.3749V25.053C25.461 25.2968 24.866 25.7851 24.4892 26.4295C24.1124 27.074 23.9788 27.8321 24.1125 28.5666C24.57 30.9903 25.7235 33.2283 27.4323 35.0071C27.4823 35.07 27.5285 35.1357 27.5708 35.204C27.3646 35.4401 27.1079 35.6267 26.8198 35.75C26.5316 35.8734 26.2194 35.9303 25.9063 35.9165C24.7719 35.9165 24.0833 35.1936 24.0833 34.8748C24.0833 34.5986 23.9736 34.3336 23.7782 34.1383C23.5829 33.9429 23.3179 33.8332 23.0417 33.8332C22.7654 33.8332 22.5004 33.9429 22.3051 34.1383C22.1097 34.3336 22 34.5986 22 34.8748C22 36.5686 23.7896 37.9998 25.9063 37.9998C26.9596 38.0093 27.9811 37.6396 28.7844 36.9582C29.5855 37.6272 30.5954 37.9951 31.6392 37.9982C32.683 38.0012 33.695 37.6392 34.5 36.9748C35.308 37.6386 36.322 38 37.3676 37.997C38.4132 37.9939 39.4251 37.6266 40.2292 36.9582C41.0276 37.6359 42.0423 38.0055 43.0896 37.9998C45.2104 37.9998 47 36.5686 47 34.8748C47 34.5986 46.8903 34.3336 46.6949 34.1383C46.4996 33.9429 46.2346 33.8332 45.9583 33.8332ZM32.4167 17.1666C32.4167 16.6141 32.6362 16.0842 33.0269 15.6935C33.4176 15.3028 33.9475 15.0833 34.5 15.0833C35.0525 15.0833 35.5824 15.3028 35.9731 15.6935C36.3638 16.0842 36.5833 16.6141 36.5833 17.1666V18.2083H32.4167V17.1666ZM30.3333 20.2916H38.6667C39.2192 20.2916 39.7491 20.5111 40.1398 20.9018C40.5305 21.2925 40.75 21.8224 40.75 22.3749V24.3749L35.4875 22.6478C34.8478 22.4374 34.1574 22.4374 33.5177 22.6478L28.25 24.3676V22.3749C28.25 21.8224 28.4695 21.2925 28.8602 20.9018C29.2509 20.5111 29.7808 20.2916 30.3333 20.2916ZM31.6354 35.9165C31.2873 35.9356 30.9401 35.8641 30.6278 35.7091C30.3154 35.5542 30.0485 35.3209 29.8531 35.0321C29.6361 34.512 29.338 34.0296 28.9698 33.603C27.5338 32.1162 26.56 30.2448 26.1667 28.2155C26.1186 27.9659 26.1617 27.7073 26.2883 27.4869C26.4149 27.2664 26.6164 27.0988 26.8563 27.0145L33.4583 24.8572V34.8748C33.4583 35.2332 32.7479 35.9165 31.6354 35.9165ZM37.3646 35.9165C36.2302 35.9165 35.5417 35.1936 35.5417 34.8748V24.8582L42.1094 27.0134C42.35 27.0976 42.5524 27.2653 42.6797 27.4861C42.8071 27.707 42.8509 27.9662 42.8031 28.2166C42.4211 30.2431 41.4577 32.1146 40.0302 33.603C39.6597 34.0302 39.3613 34.5151 39.1469 35.0384C38.9514 35.3267 38.6843 35.5592 38.3719 35.7131C38.0594 35.8671 37.7123 35.9372 37.3646 35.9165Z" fill="#316DE2"/>
</svg>
