<svg width="77" height="75" viewBox="0 0 77 75" fill="none" xmlns="http://www.w3.org/2000/svg">
<path d="M4.67498 71.1902C4.04948 71.1902 3.47892 71.0803 2.96331 70.8605C2.4477 70.6408 2.00393 70.3259 1.63201 69.9159C1.2601 69.5018 0.972706 69.0031 0.769842 68.4198C0.571204 67.8324 0.471885 67.1709 0.471885 66.4356C0.471885 65.4635 0.645165 64.6225 0.991724 63.9124C1.33828 63.2024 1.82643 62.6551 2.45615 62.2705C3.08587 61.8817 3.82548 61.6873 4.67498 61.6873C5.69775 61.6873 6.52189 61.9261 7.14738 62.4036C7.77288 62.877 8.20397 63.5257 8.44064 64.3499L7.29953 64.5844C7.10935 64.0308 6.7966 63.5891 6.36129 63.2595C5.92597 62.9298 5.38289 62.765 4.73203 62.765C4.05159 62.7608 3.48526 62.9129 3.03305 63.2214C2.58505 63.5257 2.24695 63.9547 2.01872 64.5083C1.7905 65.062 1.67428 65.7044 1.67005 66.4356C1.66583 67.1625 1.77782 67.8007 2.00605 68.3501C2.23427 68.8995 2.57449 69.3306 3.02671 69.6433C3.48315 69.9519 4.05159 70.1082 4.73203 70.1125C5.31949 70.1167 5.81397 70.0047 6.21548 69.7765C6.61698 69.5483 6.92761 69.2186 7.14738 68.7875C7.36715 68.3564 7.50028 67.8387 7.54677 67.2343H5.60688V66.3024H8.7386C8.75128 66.387 8.75762 66.4884 8.75762 66.6067C8.76184 66.7208 8.76396 66.799 8.76396 66.8413C8.76396 67.6739 8.60758 68.4198 8.29483 69.0791C7.98631 69.7342 7.52775 70.2498 6.91916 70.626C6.3148 71.0021 5.56673 71.1902 4.67498 71.1902ZM11.9764 71.1902C11.465 71.1902 11.036 71.0972 10.6895 70.9112C10.3471 70.7211 10.0872 70.4717 9.90972 70.1632C9.73644 69.8547 9.6498 69.5166 9.6498 69.1489C9.6498 68.7896 9.71743 68.479 9.85267 68.217C9.99214 67.9507 10.1865 67.7309 10.4359 67.5576C10.6853 67.3801 10.9832 67.2407 11.3298 67.1392C11.6552 67.0505 12.0187 66.9744 12.4202 66.911C12.8259 66.8434 13.2359 66.7821 13.65 66.7272C14.0642 66.6722 14.4509 66.6194 14.8102 66.5687L14.4044 66.8032C14.4171 66.1947 14.2945 65.7445 14.0367 65.4529C13.7832 65.1613 13.3436 65.0155 12.7181 65.0155C12.3039 65.0155 11.9405 65.1106 11.6277 65.3008C11.3192 65.4867 11.1016 65.791 10.9748 66.2137L9.90338 65.8904C10.0682 65.2902 10.3873 64.819 10.8607 64.4766C11.334 64.1343 11.9574 63.9631 12.7308 63.9631C13.3521 63.9631 13.8846 64.0751 14.3284 64.2991C14.7764 64.5189 15.0976 64.8528 15.292 65.3008C15.3892 65.5121 15.4505 65.7424 15.4758 65.9918C15.5012 66.2369 15.5138 66.4947 15.5138 66.7652V71H14.5122V69.3581L14.7468 69.5102C14.489 70.0639 14.1276 70.4823 13.6627 70.7654C13.202 71.0486 12.6399 71.1902 11.9764 71.1902ZM12.1476 70.2456C12.5533 70.2456 12.9041 70.1738 13.1999 70.0301C13.5 69.8821 13.7409 69.6898 13.9226 69.4532C14.1044 69.2123 14.2227 68.9502 14.2776 68.6671C14.341 68.4557 14.3748 68.2212 14.3791 67.9634C14.3875 67.7013 14.3918 67.5006 14.3918 67.3611L14.7848 67.5323C14.4171 67.583 14.0558 67.6316 13.7007 67.6781C13.3457 67.7246 13.0097 67.7753 12.6928 67.8302C12.3758 67.881 12.0905 67.9422 11.8369 68.0141C11.651 68.0733 11.4756 68.1493 11.3108 68.2423C11.1502 68.3353 11.0191 68.4557 10.9177 68.6037C10.8205 68.7474 10.7719 68.927 10.7719 69.1425C10.7719 69.3285 10.8184 69.506 10.9114 69.675C11.0086 69.8441 11.1565 69.9815 11.3551 70.0871C11.558 70.1928 11.8221 70.2456 12.1476 70.2456ZM19.7486 71.1838C18.933 71.1838 18.2631 71.0063 17.739 70.6513C17.2192 70.2921 16.9001 69.7913 16.7817 69.1489L17.9355 68.965C18.0285 69.3369 18.2419 69.6328 18.5758 69.8525C18.9097 70.0681 19.3239 70.1759 19.8184 70.1759C20.2875 70.1759 20.6552 70.0787 20.9214 69.8842C21.1877 69.6898 21.3208 69.4257 21.3208 69.0918C21.3208 68.8974 21.2765 68.741 21.1877 68.6227C21.099 68.5001 20.9151 68.386 20.6362 68.2804C20.3615 68.1747 19.9452 68.0479 19.3873 67.9C18.7829 67.7394 18.3075 67.5724 17.9609 67.3992C17.6143 67.2259 17.3671 67.0251 17.2192 66.7969C17.0713 66.5687 16.9973 66.2919 16.9973 65.9664C16.9973 65.5649 17.1072 65.2141 17.3269 64.9141C17.5467 64.6098 17.8531 64.3752 18.2462 64.2104C18.6434 64.0456 19.1041 63.9631 19.6282 63.9631C20.148 63.9631 20.6129 64.0456 21.0229 64.2104C21.4328 64.3752 21.7625 64.6098 22.0118 64.9141C22.2654 65.2141 22.4155 65.5649 22.4619 65.9664L21.3082 66.1756C21.2532 65.8079 21.0757 65.5184 20.7756 65.3071C20.4798 65.0958 20.0973 64.9838 19.6282 64.9711C19.1844 64.9542 18.8231 65.0324 18.5441 65.2057C18.2694 65.379 18.1321 65.6135 18.1321 65.9094C18.1321 66.0742 18.1828 66.2158 18.2842 66.3341C18.3899 66.4525 18.5822 66.5645 18.8611 66.6701C19.1443 66.7758 19.5542 66.8962 20.091 67.0315C20.6953 67.1836 21.1708 67.3506 21.5174 67.5323C21.8681 67.7098 22.1175 67.9211 22.2654 68.1662C22.4133 68.4071 22.4873 68.7051 22.4873 69.0601C22.4873 69.7194 22.2443 70.2393 21.7583 70.6196C21.2722 70.9958 20.6024 71.1838 19.7486 71.1838ZM27.7082 71C27.3025 71.0803 26.901 71.112 26.5037 71.0951C26.1106 71.0824 25.7598 71.0042 25.4513 70.8605C25.1428 70.7126 24.9082 70.4844 24.7476 70.1759C24.6124 69.9054 24.5384 69.6328 24.5257 69.3581C24.5173 69.0791 24.5131 68.7643 24.5131 68.4135V62.2515H25.6415V68.3628C25.6415 68.6417 25.6436 68.8805 25.6478 69.0791C25.6563 69.2778 25.7007 69.4489 25.781 69.5926C25.9331 69.8631 26.174 70.0216 26.5037 70.0681C26.8376 70.1146 27.2391 70.1019 27.7082 70.0301V71ZM23.1247 65.0852V64.1533H27.7082V65.0852H23.1247ZM29.0982 71V64.1533H30.1062V65.8079L29.9414 65.5924C30.0217 65.3811 30.1252 65.1867 30.252 65.0092C30.383 64.8317 30.5288 64.6859 30.6894 64.5717C30.8669 64.428 31.0677 64.3182 31.2917 64.2421C31.5157 64.166 31.7439 64.1216 31.9764 64.109C32.2088 64.0921 32.4265 64.1068 32.6293 64.1533V65.212C32.3926 65.1486 32.1327 65.1317 31.8496 65.1613C31.5664 65.1909 31.3044 65.2944 31.0635 65.472C30.8437 65.6283 30.6725 65.8185 30.55 66.0425C30.4316 66.2665 30.3492 66.5095 30.3027 66.7715C30.2562 67.0294 30.233 67.2935 30.233 67.564V71H29.0982ZM36.6204 71.1902C35.94 71.1902 35.3525 71.0359 34.8581 70.7274C34.3678 70.4189 33.9895 69.992 33.7233 69.4468C33.457 68.9016 33.3239 68.2761 33.3239 67.5703C33.3239 66.8519 33.4591 66.2221 33.7296 65.6812C34.0001 65.1402 34.3826 64.7197 34.8771 64.4196C35.3716 64.1153 35.9527 63.9631 36.6204 63.9631C37.3051 63.9631 37.8947 64.1174 38.3892 64.4259C38.8836 64.7302 39.2619 65.155 39.5239 65.7002C39.7902 66.2411 39.9233 66.8645 39.9233 67.5703C39.9233 68.2846 39.7902 68.9143 39.5239 69.4595C39.2577 70.0005 38.8773 70.4252 38.3828 70.7337C37.8883 71.038 37.3009 71.1902 36.6204 71.1902ZM36.6204 70.1188C37.3305 70.1188 37.8588 69.8821 38.2053 69.4088C38.5519 68.9354 38.7252 68.3226 38.7252 67.5703C38.7252 66.7969 38.5498 66.182 38.199 65.7255C37.8482 65.2649 37.322 65.0345 36.6204 65.0345C36.1429 65.0345 35.7498 65.1423 35.4413 65.3578C35.1328 65.5734 34.9024 65.8713 34.7503 66.2517C34.5981 66.6321 34.5221 67.0716 34.5221 67.5703C34.5221 68.3395 34.6996 68.9566 35.0546 69.4215C35.4096 69.8864 35.9315 70.1188 36.6204 70.1188ZM46.1942 71V67.5703C46.1942 67.2449 46.1646 66.9322 46.1054 66.6321C46.0505 66.332 45.9512 66.0636 45.8075 65.827C45.668 65.5861 45.4778 65.3959 45.2369 65.2564C45.0002 65.1169 44.7002 65.0472 44.3367 65.0472C44.0535 65.0472 43.7957 65.0958 43.5633 65.193C43.3351 65.286 43.1385 65.4297 42.9737 65.6241C42.8089 65.8185 42.68 66.0636 42.587 66.3595C42.4982 66.6511 42.4539 66.9955 42.4539 67.3928L41.7121 67.1646C41.7121 66.5011 41.8305 65.9326 42.0672 65.4593C42.3081 64.9817 42.6441 64.6161 43.0751 64.3625C43.5105 64.1047 44.0218 63.9758 44.6093 63.9758C45.0531 63.9758 45.4313 64.0456 45.7441 64.185C46.0568 64.3245 46.3167 64.5105 46.5238 64.7429C46.7309 64.9711 46.8936 65.2289 47.012 65.5163C47.1303 65.7995 47.2127 66.089 47.2592 66.3848C47.3099 66.6765 47.3353 66.9533 47.3353 67.2153V71H46.1942ZM41.3128 71V64.1533H42.3271V65.9855H42.4539V71H41.3128ZM51.8377 71.1902C51.1573 71.1902 50.5698 71.0359 50.0753 70.7274C49.5851 70.4189 49.2068 69.992 48.9406 69.4468C48.6743 68.9016 48.5412 68.2761 48.5412 67.5703C48.5412 66.8519 48.6764 66.2221 48.9469 65.6812C49.2174 65.1402 49.5999 64.7197 50.0944 64.4196C50.5888 64.1153 51.17 63.9631 51.8377 63.9631C52.5224 63.9631 53.112 64.1174 53.6064 64.4259C54.1009 64.7302 54.4792 65.155 54.7412 65.7002C55.0075 66.2411 55.1406 66.8645 55.1406 67.5703C55.1406 68.2846 55.0075 68.9143 54.7412 69.4595C54.475 70.0005 54.0946 70.4252 53.6001 70.7337C53.1056 71.038 52.5182 71.1902 51.8377 71.1902ZM51.8377 70.1188C52.5478 70.1188 53.076 69.8821 53.4226 69.4088C53.7692 68.9354 53.9424 68.3226 53.9424 67.5703C53.9424 66.7969 53.767 66.182 53.4163 65.7255C53.0655 65.2649 52.5393 65.0345 51.8377 65.0345C51.3602 65.0345 50.9671 65.1423 50.6586 65.3578C50.3501 65.5734 50.1197 65.8713 49.9676 66.2517C49.8154 66.6321 49.7394 67.0716 49.7394 67.5703C49.7394 68.3395 49.9169 68.9566 50.2719 69.4215C50.6269 69.8864 51.1488 70.1188 51.8377 70.1188ZM64.7207 71L64.727 66.6194C64.727 66.108 64.5897 65.7086 64.315 65.4212C64.0445 65.1296 63.6916 64.9838 63.2563 64.9838C63.0027 64.9838 62.7618 65.043 62.5336 65.1613C62.3053 65.2754 62.1194 65.4572 61.9757 65.7065C61.832 65.9516 61.7601 66.2665 61.7601 66.6511L61.1642 66.4102C61.1558 65.9242 61.2551 65.4994 61.4622 65.136C61.6735 64.7683 61.9609 64.483 62.3244 64.2801C62.6878 64.0773 63.0978 63.9758 63.5542 63.9758C64.2685 63.9758 64.8306 64.1935 65.2405 64.6288C65.6505 65.0599 65.8555 65.641 65.8555 66.3722L65.8491 71H64.7207ZM56.53 71V64.1533H57.538V65.9855H57.6648V71H56.53ZM60.6317 71L60.638 66.6638C60.638 66.1397 60.5028 65.7298 60.2323 65.4339C59.9618 65.1338 59.6026 64.9838 59.1546 64.9838C58.7108 64.9838 58.3516 65.136 58.0769 65.4403C57.8022 65.7445 57.6648 66.1482 57.6648 66.6511L57.0689 66.2961C57.0689 65.8523 57.1746 65.455 57.3859 65.1043C57.5972 64.7535 57.8846 64.4788 58.2481 64.2801C58.6115 64.0773 59.0236 63.9758 59.4843 63.9758C59.9449 63.9758 60.3464 64.073 60.6888 64.2674C61.0311 64.4619 61.2952 64.7408 61.4812 65.1043C61.6672 65.4635 61.7601 65.8925 61.7601 66.3912L61.7538 71H60.6317ZM67.6335 62.9425V61.776H68.7619V62.9425H67.6335ZM67.6335 71V64.1533H68.7619V71H67.6335ZM72.6103 71.1902C72.0989 71.1902 71.6699 71.0972 71.3234 70.9112C70.981 70.7211 70.7211 70.4717 70.5436 70.1632C70.3703 69.8547 70.2837 69.5166 70.2837 69.1489C70.2837 68.7896 70.3513 68.479 70.4866 68.217C70.626 67.9507 70.8204 67.7309 71.0698 67.5576C71.3192 67.3801 71.6171 67.2407 71.9637 67.1392C72.2891 67.0505 72.6526 66.9744 73.0541 66.911C73.4598 66.8434 73.8698 66.7821 74.2839 66.7272C74.6981 66.6722 75.0848 66.6194 75.4441 66.5687L75.0383 66.8032C75.051 66.1947 74.9284 65.7445 74.6706 65.4529C74.4171 65.1613 73.9775 65.0155 73.352 65.0155C72.9378 65.0155 72.5744 65.1106 72.2616 65.3008C71.9531 65.4867 71.7354 65.791 71.6087 66.2137L70.5373 65.8904C70.7021 65.2902 71.0212 64.819 71.4945 64.4766C71.9679 64.1343 72.5913 63.9631 73.3647 63.9631C73.986 63.9631 74.5185 64.0751 74.9623 64.2991C75.4102 64.5189 75.7315 64.8528 75.9259 65.3008C76.0231 65.5121 76.0844 65.7424 76.1097 65.9918C76.1351 66.2369 76.1477 66.4947 76.1477 66.7652V71H75.1461V69.3581L75.3807 69.5102C75.1229 70.0639 74.7615 70.4823 74.2966 70.7654C73.8359 71.0486 73.2738 71.1902 72.6103 71.1902ZM72.7815 70.2456C73.1872 70.2456 73.538 70.1738 73.8338 70.0301C74.1339 69.8821 74.3748 69.6898 74.5565 69.4532C74.7383 69.2123 74.8566 68.9502 74.9115 68.6671C74.9749 68.4557 75.0087 68.2212 75.013 67.9634C75.0214 67.7013 75.0257 67.5006 75.0257 67.3611L75.4187 67.5323C75.051 67.583 74.6897 67.6316 74.3346 67.6781C73.9796 67.7246 73.6436 67.7753 73.3267 67.8302C73.0097 67.881 72.7244 67.9422 72.4708 68.0141C72.2849 68.0733 72.1095 68.1493 71.9447 68.2423C71.7841 68.3353 71.653 68.4557 71.5516 68.6037C71.4544 68.7474 71.4058 68.927 71.4058 69.1425C71.4058 69.3285 71.4523 69.506 71.5453 69.675C71.6425 69.8441 71.7904 69.9815 71.989 70.0871C72.1919 70.1928 72.456 70.2456 72.7815 70.2456Z" fill="#F79E7C"/>
<circle cx="38" cy="25" r="25" fill="#F79E7C" fill-opacity="0.2"/>
<path d="M50.1636 13.8371C49.7772 13.4475 49.2858 13.1787 48.7494 13.0633C48.2129 12.9479 47.6544 12.9909 47.142 13.1871L29.278 20.2213C28.1106 20.6828 27.1504 21.552 26.5756 22.6677C26.0007 23.7833 25.8503 25.0696 26.1522 26.2877C26.9097 29.052 28.3738 31.5716 30.4005 33.5988C32.4272 35.626 34.9467 37.091 37.7114 37.8498C38.9311 38.1497 40.2183 37.9974 41.3343 37.4211C42.4503 36.8447 43.3194 35.8835 43.7807 34.7155L50.8221 16.8287C51.012 16.3196 51.0508 15.7665 50.934 15.2358C50.8172 14.7052 50.5497 14.2195 50.1636 13.8371ZM38.2292 35.8269C35.8235 35.1669 33.6309 33.8924 31.8669 32.1288C30.1029 30.3652 28.8283 28.1731 28.1683 25.7679C28.0161 25.1473 28.0613 24.4948 28.2975 23.901C28.5338 23.3073 28.9494 22.802 29.4864 22.4555C29.5941 25.6176 30.8985 28.6209 33.1361 30.8584C35.3737 33.0959 38.3775 34.4008 41.5405 34.5093C41.1943 35.046 40.6892 35.4613 40.0957 35.6975C39.5021 35.9337 38.8497 35.9789 38.2292 35.8269ZM42.4251 32.4656C35.9745 32.3614 31.6359 28.0231 31.5306 21.5733L47.8817 15.136C48.0183 15.0837 48.1672 15.0726 48.31 15.1041C48.4528 15.1355 48.5832 15.2082 48.6851 15.3131C48.789 15.4103 48.8622 15.5357 48.8957 15.674C48.9293 15.8122 48.9216 15.9572 48.8737 16.0912L48.1839 17.8422C42.1844 15.7797 38.8669 24.3096 44.6278 26.871L42.4251 32.4656ZM45.3915 24.9325C44.738 24.6445 44.2213 24.1149 43.9496 23.4546C43.6779 22.7943 43.6723 22.0545 43.934 21.3902C44.1956 20.7259 44.7042 20.1885 45.3533 19.8906C46.0023 19.5927 46.7415 19.5574 47.416 19.7921L45.3915 24.9325Z" fill="#F79E7C"/>
<path d="M37.452 22.3782C36.8993 22.3782 36.3692 22.5977 35.9784 22.9884C35.5876 23.3791 35.3681 23.909 35.3681 24.4615C35.3681 25.014 35.5876 25.5439 35.9784 25.9346C36.3692 26.3253 36.8993 26.5447 37.452 26.5447C38.0046 26.5447 38.5347 26.3253 38.9255 25.9346C39.3163 25.5439 39.5358 25.014 39.5358 24.4615C39.5358 23.909 39.3163 23.3791 38.9255 22.9884C38.5347 22.5977 38.0046 22.3782 37.452 22.3782Z" fill="#F79E7C"/>
</svg>
