<svg width="55" height="75" viewBox="0 0 55 75" fill="none" xmlns="http://www.w3.org/2000/svg">
<path d="M1.18462 71V61.8711H2.32573L7.0867 69.0031V61.8711H8.22781V71H7.0867L2.32573 63.8617V71H1.18462ZM11.9467 71.1902C11.4353 71.1902 11.0064 71.0972 10.6598 70.9112C10.3175 70.7211 10.0575 70.4717 9.88004 70.1632C9.70676 69.8547 9.62012 69.5166 9.62012 69.1489C9.62012 68.7896 9.68774 68.479 9.82298 68.217C9.96245 67.9507 10.1569 67.7309 10.4062 67.5576C10.6556 67.3801 10.9535 67.2407 11.3001 67.1392C11.6255 67.0505 11.989 66.9744 12.3905 66.911C12.7962 66.8434 13.2062 66.7821 13.6203 66.7272C14.0345 66.6722 14.4212 66.6194 14.7805 66.5687L14.3747 66.8032C14.3874 66.1947 14.2649 65.7445 14.0071 65.4529C13.7535 65.1613 13.3139 65.0155 12.6884 65.0155C12.2743 65.0155 11.9108 65.1106 11.598 65.3008C11.2895 65.4867 11.0719 65.791 10.9451 66.2137L9.8737 65.8904C10.0385 65.2902 10.3576 64.819 10.831 64.4766C11.3043 64.1343 11.9277 63.9631 12.7011 63.9631C13.3224 63.9631 13.8549 64.0751 14.2987 64.2991C14.7467 64.5189 15.0679 64.8528 15.2623 65.3008C15.3595 65.5121 15.4208 65.7424 15.4461 65.9918C15.4715 66.2369 15.4842 66.4947 15.4842 66.7652V71H14.4825V69.3581L14.7171 69.5102C14.4593 70.0639 14.0979 70.4823 13.633 70.7654C13.1724 71.0486 12.6103 71.1902 11.9467 71.1902ZM12.1179 70.2456C12.5236 70.2456 12.8744 70.1738 13.1702 70.0301C13.4703 69.8821 13.7112 69.6898 13.8929 69.4532C14.0747 69.2123 14.193 68.9502 14.248 68.6671C14.3114 68.4557 14.3452 68.2212 14.3494 67.9634C14.3578 67.7013 14.3621 67.5006 14.3621 67.3611L14.7551 67.5323C14.3874 67.583 14.0261 67.6316 13.6711 67.6781C13.3161 67.7246 12.9801 67.7753 12.6631 67.8302C12.3461 67.881 12.0608 67.9422 11.8072 68.0141C11.6213 68.0733 11.4459 68.1493 11.2811 68.2423C11.1205 68.3353 10.9895 68.4557 10.888 68.6037C10.7908 68.7474 10.7422 68.927 10.7422 69.1425C10.7422 69.3285 10.7887 69.506 10.8817 69.675C10.9789 69.8441 11.1268 69.9815 11.3254 70.0871C11.5283 70.1928 11.7925 70.2456 12.1179 70.2456ZM20.9552 71C20.5494 71.0803 20.1479 71.112 19.7506 71.0951C19.3576 71.0824 19.0068 71.0042 18.6983 70.8605C18.3898 70.7126 18.1552 70.4844 17.9946 70.1759C17.8594 69.9054 17.7854 69.6328 17.7727 69.3581C17.7643 69.0791 17.76 68.7643 17.76 68.4135V62.2515H18.8885V68.3628C18.8885 68.6417 18.8906 68.8805 18.8948 69.0791C18.9033 69.2778 18.9476 69.4489 19.0279 69.5926C19.1801 69.8631 19.421 70.0216 19.7506 70.0681C20.0845 70.1146 20.486 70.1019 20.9552 70.0301V71ZM16.3717 65.0852V64.1533H20.9552V65.0852H16.3717ZM24.9444 71.1775C24.5048 71.1775 24.1266 71.1078 23.8096 70.9683C23.4969 70.8288 23.2369 70.6429 23.0299 70.4104C22.8228 70.178 22.6601 69.9202 22.5417 69.637C22.4234 69.3538 22.3389 69.0643 22.2881 68.7685C22.2416 68.4727 22.2184 68.1958 22.2184 67.938V64.1533H23.3595V67.583C23.3595 67.9042 23.3891 68.2148 23.4483 68.5149C23.5074 68.815 23.6068 69.0855 23.7462 69.3264C23.8899 69.5673 24.0801 69.7575 24.3168 69.8969C24.5577 70.0364 24.8577 70.1061 25.217 70.1061C25.5002 70.1061 25.758 70.0575 25.9904 69.9603C26.2229 69.8631 26.4215 69.7194 26.5863 69.5292C26.7511 69.3348 26.8779 69.0897 26.9667 68.7939C27.0554 68.498 27.0998 68.1536 27.0998 67.7605L27.8415 67.9887C27.8415 68.648 27.7211 69.2165 27.4802 69.6941C27.2435 70.1716 26.9075 70.5393 26.4722 70.7971C26.0411 71.0507 25.5318 71.1775 24.9444 71.1775ZM27.2266 71V69.1679H27.0998V64.1533H28.2346V71H27.2266ZM30.0096 71V64.1533H31.0175V65.8079L30.8527 65.5924C30.933 65.3811 31.0366 65.1867 31.1633 65.0092C31.2944 64.8317 31.4402 64.6859 31.6008 64.5717C31.7783 64.428 31.979 64.3182 32.203 64.2421C32.427 64.166 32.6552 64.1216 32.8877 64.109C33.1201 64.0921 33.3378 64.1068 33.5407 64.1533V65.212C33.304 65.1486 33.0441 65.1317 32.7609 65.1613C32.4777 65.1909 32.2157 65.2944 31.9748 65.472C31.755 65.6283 31.5839 65.8185 31.4613 66.0425C31.343 66.2665 31.2605 66.5095 31.2141 66.7715C31.1676 67.0294 31.1443 67.2935 31.1443 67.564V71H30.0096ZM37.5825 71.1902C36.9105 71.1902 36.323 71.0423 35.8201 70.7464C35.3214 70.4463 34.9326 70.0301 34.6536 69.4975C34.3747 68.9608 34.2352 68.3353 34.2352 67.621C34.2352 66.873 34.3726 66.2264 34.6473 65.6812C34.922 65.1317 35.3045 64.7091 35.7947 64.4133C36.2892 64.1132 36.8682 63.9631 37.5318 63.9631C38.2207 63.9631 38.806 64.1216 39.2878 64.4386C39.7738 64.7556 40.1373 65.2078 40.3782 65.7953C40.6233 66.3827 40.729 67.0822 40.6952 67.8936H39.5541V67.4879C39.5414 66.6469 39.3702 66.0193 39.0406 65.6051C38.7109 65.1867 38.2207 64.9775 37.5698 64.9775C36.8725 64.9775 36.3421 65.2015 35.9786 65.6495C35.6151 66.0974 35.4334 66.7399 35.4334 67.5767C35.4334 68.3839 35.6151 69.0094 35.9786 69.4532C36.3421 69.8969 36.8598 70.1188 37.5318 70.1188C37.984 70.1188 38.377 70.0153 38.7109 69.8082C39.0448 69.6011 39.3068 69.3031 39.497 68.9143L40.5811 69.2883C40.3148 69.8927 39.9133 70.3618 39.3766 70.6957C38.8441 71.0254 38.246 71.1902 37.5825 71.1902ZM35.053 67.8936V66.9871H40.112V67.8936H35.053ZM41.4727 71V70.7971L45.625 65.1803H41.815V64.1533H47.4445V64.3689L43.2984 69.973H47.2289V71H41.4727ZM50.4047 71.1902C49.8933 71.1902 49.4644 71.0972 49.1178 70.9112C48.7755 70.7211 48.5156 70.4717 48.3381 70.1632C48.1648 69.8547 48.0781 69.5166 48.0781 69.1489C48.0781 68.7896 48.1458 68.479 48.281 68.217C48.4205 67.9507 48.6149 67.7309 48.8642 67.5576C49.1136 67.3801 49.4115 67.2407 49.7581 67.1392C50.0835 67.0505 50.447 66.9744 50.8485 66.911C51.2542 66.8434 51.6642 66.7821 52.0784 66.7272C52.4925 66.6722 52.8793 66.6194 53.2385 66.5687L52.8328 66.8032C52.8454 66.1947 52.7229 65.7445 52.4651 65.4529C52.2115 65.1613 51.772 65.0155 51.1465 65.0155C50.7323 65.0155 50.3688 65.1106 50.0561 65.3008C49.7475 65.4867 49.5299 65.791 49.4031 66.2137L48.3317 65.8904C48.4965 65.2902 48.8156 64.819 49.289 64.4766C49.7623 64.1343 50.3857 63.9631 51.1591 63.9631C51.7804 63.9631 52.3129 64.0751 52.7567 64.2991C53.2047 64.5189 53.5259 64.8528 53.7203 65.3008C53.8175 65.5121 53.8788 65.7424 53.9041 65.9918C53.9295 66.2369 53.9422 66.4947 53.9422 66.7652V71H52.9405V69.3581L53.1751 69.5102C52.9173 70.0639 52.5559 70.4823 52.091 70.7654C51.6304 71.0486 51.0683 71.1902 50.4047 71.1902ZM50.5759 70.2456C50.9816 70.2456 51.3324 70.1738 51.6283 70.0301C51.9283 69.8821 52.1692 69.6898 52.351 69.4532C52.5327 69.2123 52.651 68.9502 52.706 68.6671C52.7694 68.4557 52.8032 68.2212 52.8074 67.9634C52.8159 67.7013 52.8201 67.5006 52.8201 67.3611L53.2131 67.5323C52.8454 67.583 52.4841 67.6316 52.1291 67.6781C51.7741 67.7246 51.4381 67.7753 51.1211 67.8302C50.8041 67.881 50.5188 67.9422 50.2653 68.0141C50.0793 68.0733 49.9039 68.1493 49.7391 68.2423C49.5785 68.3353 49.4475 68.4557 49.346 68.6037C49.2488 68.7474 49.2002 68.927 49.2002 69.1425C49.2002 69.3285 49.2467 69.506 49.3397 69.675C49.4369 69.8441 49.5848 69.9815 49.7835 70.0871C49.9863 70.1928 50.2505 70.2456 50.5759 70.2456Z" fill="#98D99A"/>
<circle cx="27" cy="25" r="25" fill="#98D99A" fill-opacity="0.2"/>
<path d="M38.0812 14.8722C37.7556 14.5603 37.3619 14.3215 36.9285 14.1733C36.4952 14.025 36.033 13.9709 35.5752 14.0148C32.665 14.2849 22.8775 15.4485 19.0971 19.0744C17.2901 20.8143 16.2185 23.1354 16.0894 25.5894C15.9603 28.0435 16.7827 30.4565 18.398 32.3624L14.2925 36.3044C14.1027 36.4931 13.9977 36.7458 14 37.0082C14.0024 37.2705 14.112 37.5214 14.3052 37.707C14.4984 37.8925 14.7597 37.9977 15.0329 38C15.3061 38.0022 15.5694 37.9014 15.7659 37.7191L19.8713 33.7771C21.8558 35.3301 24.3695 36.1215 26.9264 35.9982C29.4833 35.875 31.9017 34.8458 33.7142 33.1097C37.5446 29.4308 38.7158 20.0619 38.9857 17.2785C39.0298 16.8381 38.9716 16.3939 38.8152 15.9778C38.6588 15.5616 38.4081 15.184 38.0812 14.8722ZM32.2461 31.691C30.8253 33.0502 28.938 33.8665 26.9364 33.9874C24.9348 34.1084 22.9557 33.5258 21.3687 32.3483L31.4052 22.7113C31.595 22.5226 31.7 22.2699 31.6976 22.0076C31.6953 21.7452 31.5857 21.4943 31.3925 21.3088C31.1993 21.1233 30.938 21.0181 30.6647 21.0158C30.3915 21.0135 30.1283 21.1143 29.9318 21.2966L19.8901 30.9336C18.6636 29.4098 18.0567 27.5095 18.1827 25.5875C18.3087 23.6655 19.1589 21.8533 20.5747 20.4892C23.1891 17.9799 30.3976 16.5011 35.7764 16.0058C35.9287 15.9916 36.0824 16.0098 36.2266 16.059C36.3708 16.1083 36.502 16.1875 36.6107 16.2909C36.7194 16.3944 36.8031 16.5195 36.8557 16.6576C36.9083 16.7956 36.9287 16.943 36.9153 17.0894C36.3943 22.4792 34.8927 29.1447 32.2409 31.691H32.2461Z" fill="#98D99A"/>
</svg>
