<svg width="57" height="75" viewBox="0 0 57 75" fill="none" xmlns="http://www.w3.org/2000/svg">
<path d="M4.17973 71.1902C3.5331 71.1902 2.94986 71.0803 2.43002 70.8605C1.91441 70.6408 1.48755 70.328 1.14944 69.9223C0.815561 69.5123 0.597905 69.0284 0.496473 68.4705L1.66294 68.2867C1.81086 68.8615 2.11727 69.3116 2.58217 69.637C3.05129 69.9582 3.60283 70.1188 4.23678 70.1188C4.64674 70.1188 5.01654 70.0554 5.34619 69.9286C5.68008 69.7976 5.94422 69.6116 6.13863 69.3707C6.33304 69.1298 6.43025 68.8446 6.43025 68.5149C6.43025 68.312 6.39433 68.1388 6.32248 67.9951C6.25486 67.8472 6.15976 67.7225 6.0372 67.621C5.91886 67.5154 5.78362 67.4266 5.63147 67.3548C5.47932 67.2829 5.32084 67.2238 5.15601 67.1773L2.82941 66.4863C2.57583 66.4102 2.3307 66.3151 2.09403 66.201C1.85735 66.0827 1.64604 65.9368 1.46008 65.7636C1.27412 65.5861 1.1262 65.3747 1.01631 65.1296C0.906428 64.8803 0.851485 64.5865 0.851485 64.2484C0.851485 63.7075 0.990954 63.2468 1.26989 62.8664C1.55306 62.4818 1.93554 62.1881 2.41734 61.9852C2.89915 61.7824 3.44223 61.683 4.0466 61.6873C4.65942 61.6915 5.20673 61.8014 5.68853 62.0169C6.17456 62.2282 6.57606 62.5325 6.89303 62.9298C7.21424 63.3271 7.42978 63.8025 7.53966 64.3562L6.3415 64.5654C6.2781 64.1935 6.13652 63.8744 5.91675 63.6081C5.70121 63.3377 5.43072 63.1306 5.10529 62.9869C4.77987 62.8389 4.42274 62.7629 4.03392 62.7586C3.662 62.7544 3.32601 62.8136 3.02594 62.9361C2.72587 63.0587 2.48708 63.2299 2.30957 63.4496C2.13207 63.6652 2.04331 63.9145 2.04331 64.1977C2.04331 64.4766 2.12361 64.7028 2.28421 64.876C2.44481 65.0451 2.64134 65.1803 2.87379 65.2818C3.11046 65.379 3.3408 65.4593 3.56479 65.5227L5.30182 66.0235C5.50046 66.0784 5.72868 66.1545 5.98648 66.2517C6.24852 66.3489 6.5021 66.4863 6.74723 66.6638C6.99235 66.8371 7.19522 67.0695 7.35582 67.3611C7.51642 67.6485 7.59672 68.012 7.59672 68.4515C7.59672 68.8911 7.50797 69.282 7.33046 69.6243C7.15718 69.9667 6.91417 70.2541 6.60142 70.4865C6.28867 70.7147 5.9252 70.888 5.51102 71.0063C5.09684 71.1289 4.65308 71.1902 4.17973 71.1902ZM13.8016 71V67.5703C13.8016 67.2449 13.772 66.9322 13.7129 66.6321C13.6579 66.332 13.5586 66.0636 13.4149 65.827C13.2754 65.5861 13.0852 65.3959 12.8443 65.2564C12.6077 65.1169 12.3076 65.0472 11.9441 65.0472C11.661 65.0472 11.4032 65.0958 11.1707 65.193C10.9425 65.286 10.746 65.4297 10.5811 65.6241C10.4163 65.8185 10.2874 66.0636 10.1944 66.3595C10.1057 66.6511 10.0613 66.9955 10.0613 67.3928L9.31958 67.1646C9.31958 66.5011 9.43792 65.9326 9.67459 65.4593C9.91549 64.9817 10.2515 64.6161 10.6826 64.3625C11.1179 64.1047 11.6293 63.9758 12.2167 63.9758C12.6605 63.9758 13.0388 64.0456 13.3515 64.185C13.6643 64.3245 13.9242 64.5105 14.1313 64.7429C14.3384 64.9711 14.5011 65.2289 14.6194 65.5163C14.7377 65.7995 14.8202 66.089 14.8666 66.3848C14.9174 66.6765 14.9427 66.9533 14.9427 67.2153V71H13.8016ZM8.92019 71V61.8711H9.93451V66.911H10.0613V71H8.92019ZM19.5071 71.1902C18.8266 71.1902 18.2392 71.0359 17.7447 70.7274C17.2544 70.4189 16.8762 69.992 16.6099 69.4468C16.3437 68.9016 16.2105 68.2761 16.2105 67.5703C16.2105 66.8519 16.3458 66.2221 16.6163 65.6812C16.8867 65.1402 17.2692 64.7197 17.7637 64.4196C18.2582 64.1153 18.8393 63.9631 19.5071 63.9631C20.1917 63.9631 20.7813 64.1174 21.2758 64.4259C21.7703 64.7302 22.1485 65.155 22.4106 65.7002C22.6768 66.2411 22.8099 66.8645 22.8099 67.5703C22.8099 68.2846 22.6768 68.9143 22.4106 69.4595C22.1443 70.0005 21.7639 70.4252 21.2694 70.7337C20.775 71.038 20.1875 71.1902 19.5071 71.1902ZM19.5071 70.1188C20.2171 70.1188 20.7454 69.8821 21.0919 69.4088C21.4385 68.9354 21.6118 68.3226 21.6118 67.5703C21.6118 66.7969 21.4364 66.182 21.0856 65.7255C20.7348 65.2649 20.2086 65.0345 19.5071 65.0345C19.0295 65.0345 18.6364 65.1423 18.3279 65.3578C18.0194 65.5734 17.7891 65.8713 17.6369 66.2517C17.4848 66.6321 17.4087 67.0716 17.4087 67.5703C17.4087 68.3395 17.5862 68.9566 17.9412 69.4215C18.2962 69.8864 18.8182 70.1188 19.5071 70.1188ZM27.3501 71.1902C26.7077 71.1902 26.1667 71.0317 25.7272 70.7147C25.2877 70.3935 24.9538 69.9603 24.7256 69.4151C24.5016 68.8657 24.3896 68.2508 24.3896 67.5703C24.3896 66.8814 24.5016 66.2644 24.7256 65.7192C24.9538 65.174 25.2877 64.745 25.7272 64.4323C26.171 64.1195 26.7141 63.9631 27.3565 63.9631C27.9904 63.9631 28.5356 64.1216 28.9921 64.4386C29.4527 64.7514 29.8056 65.1803 30.0508 65.7255C30.2959 66.2707 30.4184 66.8857 30.4184 67.5703C30.4184 68.255 30.2959 68.8699 30.0508 69.4151C29.8056 69.9603 29.4527 70.3935 28.9921 70.7147C28.5356 71.0317 27.9883 71.1902 27.3501 71.1902ZM24.1994 74.043V64.1533H25.2074V69.1932H25.3342V74.043H24.1994ZM27.2107 70.1568C27.6629 70.1568 28.0369 70.0427 28.3327 69.8145C28.6286 69.5863 28.8505 69.2778 28.9984 68.8889C29.1463 68.4959 29.2203 68.0564 29.2203 67.5703C29.2203 67.0885 29.1463 66.6532 28.9984 66.2644C28.8547 65.8756 28.6307 65.567 28.3264 65.3388C28.0263 65.1106 27.6439 64.9965 27.179 64.9965C26.7352 64.9965 26.3675 65.1064 26.0759 65.3261C25.7843 65.5417 25.5666 65.8439 25.4229 66.2327C25.2792 66.6173 25.2074 67.0632 25.2074 67.5703C25.2074 68.069 25.2771 68.5149 25.4166 68.908C25.5603 69.2968 25.78 69.6032 26.0759 69.8272C26.3717 70.047 26.75 70.1568 27.2107 70.1568ZM34.9526 71.1902C34.3102 71.1902 33.7692 71.0317 33.3297 70.7147C32.8901 70.3935 32.5562 69.9603 32.328 69.4151C32.104 68.8657 31.992 68.2508 31.992 67.5703C31.992 66.8814 32.104 66.2644 32.328 65.7192C32.5562 65.174 32.8901 64.745 33.3297 64.4323C33.7734 64.1195 34.3165 63.9631 34.9589 63.9631C35.5929 63.9631 36.1381 64.1216 36.5945 64.4386C37.0552 64.7514 37.4081 65.1803 37.6532 65.7255C37.8983 66.2707 38.0209 66.8857 38.0209 67.5703C38.0209 68.255 37.8983 68.8699 37.6532 69.4151C37.4081 69.9603 37.0552 70.3935 36.5945 70.7147C36.1381 71.0317 35.5908 71.1902 34.9526 71.1902ZM31.8018 74.043V64.1533H32.8098V69.1932H32.9366V74.043H31.8018ZM34.8131 70.1568C35.2653 70.1568 35.6394 70.0427 35.9352 69.8145C36.231 69.5863 36.4529 69.2778 36.6008 68.8889C36.7488 68.4959 36.8227 68.0564 36.8227 67.5703C36.8227 67.0885 36.7488 66.6532 36.6008 66.2644C36.4572 65.8756 36.2332 65.567 35.9289 65.3388C35.6288 65.1106 35.2463 64.9965 34.7814 64.9965C34.3376 64.9965 33.97 65.1064 33.6783 65.3261C33.3867 65.5417 33.1691 65.8439 33.0254 66.2327C32.8817 66.6173 32.8098 67.0632 32.8098 67.5703C32.8098 68.069 32.8796 68.5149 33.019 68.908C33.1627 69.2968 33.3825 69.6032 33.6783 69.8272C33.9742 70.047 34.3524 70.1568 34.8131 70.1568ZM39.5374 62.9425V61.776H40.6659V62.9425H39.5374ZM39.5374 71V64.1533H40.6659V71H39.5374ZM47.4431 71V67.5703C47.4431 67.2449 47.4135 66.9322 47.3543 66.6321C47.2994 66.332 47.2001 66.0636 47.0564 65.827C46.9169 65.5861 46.7267 65.3959 46.4858 65.2564C46.2491 65.1169 45.9491 65.0472 45.5856 65.0472C45.3024 65.0472 45.0446 65.0958 44.8122 65.193C44.584 65.286 44.3874 65.4297 44.2226 65.6241C44.0578 65.8185 43.9289 66.0636 43.8359 66.3595C43.7472 66.6511 43.7028 66.9955 43.7028 67.3928L42.9611 67.1646C42.9611 66.5011 43.0794 65.9326 43.3161 65.4593C43.557 64.9817 43.893 64.6161 44.324 64.3625C44.7594 64.1047 45.2707 63.9758 45.8582 63.9758C46.302 63.9758 46.6802 64.0456 46.993 64.185C47.3057 64.3245 47.5656 64.5105 47.7727 64.7429C47.9798 64.9711 48.1425 65.2289 48.2609 65.5163C48.3792 65.7995 48.4616 66.089 48.5081 66.3848C48.5588 66.6765 48.5842 66.9533 48.5842 67.2153V71H47.4431ZM42.5617 71V64.1533H43.576V65.9855H43.7028V71H42.5617ZM53.0027 74.2331C52.6435 74.2331 52.2927 74.1782 51.9504 74.0683C51.608 73.9584 51.2932 73.7915 51.0058 73.5675C50.7226 73.3477 50.4859 73.0688 50.2958 72.7307L51.3291 72.1855C51.4982 72.5194 51.7369 72.7624 52.0455 72.9145C52.3582 73.0667 52.6794 73.1428 53.0091 73.1428C53.4444 73.1428 53.8057 73.0625 54.0931 72.9019C54.3805 72.7455 54.5918 72.5109 54.7271 72.1982C54.8665 71.8854 54.9342 71.4966 54.9299 71.0317V69.1615H55.0631V64.1533H56.0647V71.0444C56.0647 71.2303 56.0584 71.41 56.0457 71.5832C56.0372 71.7565 56.0161 71.9277 55.9823 72.0967C55.8935 72.5828 55.7182 72.9822 55.4561 73.2949C55.1941 73.6119 54.856 73.8464 54.4418 73.9986C54.0276 74.155 53.5479 74.2331 53.0027 74.2331ZM52.9203 71.1902C52.2821 71.1902 51.7348 71.0317 51.2784 70.7147C50.8219 70.3935 50.469 69.9603 50.2197 69.4151C49.9746 68.8699 49.852 68.255 49.852 67.5703C49.852 66.8857 49.9746 66.2707 50.2197 65.7255C50.469 65.1803 50.8219 64.7514 51.2784 64.4386C51.7348 64.1216 52.28 63.9631 52.914 63.9631C53.5606 63.9631 54.1037 64.1195 54.5432 64.4323C54.9828 64.745 55.3145 65.174 55.5385 65.7192C55.7668 66.2644 55.8809 66.8814 55.8809 67.5703C55.8809 68.2508 55.7668 68.8657 55.5385 69.4151C55.3145 69.9603 54.9828 70.3935 54.5432 70.7147C54.1037 71.0317 53.5627 71.1902 52.9203 71.1902ZM53.0598 70.1568C53.5205 70.1568 53.8987 70.047 54.1946 69.8272C54.4904 69.6032 54.7081 69.2968 54.8475 68.908C54.9912 68.5149 55.0631 68.069 55.0631 67.5703C55.0631 67.0632 54.9912 66.6173 54.8475 66.2327C54.7081 65.8439 54.4925 65.5417 54.2009 65.3261C53.9093 65.1064 53.5395 64.9965 53.0915 64.9965C52.6266 64.9965 52.242 65.1106 51.9377 65.3388C51.6376 65.567 51.4136 65.8756 51.2657 66.2644C51.122 66.6532 51.0502 67.0885 51.0502 67.5703C51.0502 68.0564 51.1241 68.4959 51.272 68.8889C51.42 69.2778 51.6419 69.5863 51.9377 69.8145C52.2378 70.0427 52.6118 70.1568 53.0598 70.1568Z" fill="#F178B6"/>
<circle cx="28" cy="25" r="25" fill="#F178B6" fill-opacity="0.2"/>
<path d="M39.2545 18.2469C38.9542 17.8952 38.5781 17.6124 38.1531 17.4186C37.728 17.2247 37.2645 17.1244 36.7952 17.125H19.5299L19.4851 16.7594C19.3933 15.9994 19.0188 15.2987 18.4327 14.7901C17.8465 14.2815 17.0894 14.0004 16.3049 14H16.0679C15.7847 14 15.513 14.1097 15.3128 14.3051C15.1125 14.5004 15 14.7654 15 15.0417C15 15.3179 15.1125 15.5829 15.3128 15.7782C15.513 15.9736 15.7847 16.0833 16.0679 16.0833H16.3049C16.5665 16.0834 16.8189 16.177 17.0144 16.3466C17.2099 16.5161 17.3347 16.7497 17.3653 17.0031L18.8347 29.1906C18.9873 30.4581 19.6116 31.6269 20.5891 32.475C21.5667 33.3232 22.8295 33.7917 24.1378 33.7917H35.2895C35.5728 33.7917 35.8444 33.6819 36.0446 33.4866C36.2449 33.2912 36.3574 33.0263 36.3574 32.75C36.3574 32.4737 36.2449 32.2088 36.0446 32.0134C35.8444 31.8181 35.5728 31.7083 35.2895 31.7083H24.1378C23.4768 31.7065 22.8326 31.5053 22.2935 31.1324C21.7544 30.7594 21.3467 30.2329 21.1264 29.625H33.8554C35.1073 29.6251 36.3193 29.1961 37.2799 28.413C38.2404 27.6298 38.8883 26.5424 39.1104 25.3406L39.9487 20.8052C40.0323 20.3552 40.0135 19.8928 39.8936 19.4507C39.7736 19.0085 39.5555 18.5976 39.2545 18.2469ZM37.8524 20.4354L37.0131 24.9708C36.8797 25.6927 36.4903 26.3458 35.913 26.8158C35.3357 27.2858 34.6073 27.5428 33.8554 27.5417H20.7868L19.7819 19.2083H36.7952C36.9521 19.2074 37.1073 19.2402 37.2497 19.3044C37.3921 19.3686 37.5182 19.4627 37.6191 19.5798C37.7201 19.6969 37.7933 19.8343 37.8336 19.9822C37.8739 20.1301 37.8804 20.2848 37.8524 20.4354Z" fill="#F178B6"/>
<path d="M22.4753 39.0007C23.6548 39.0007 24.611 38.0679 24.611 36.9173C24.611 35.7667 23.6548 34.834 22.4753 34.834C21.2957 34.834 20.3395 35.7667 20.3395 36.9173C20.3395 38.0679 21.2957 39.0007 22.4753 39.0007Z" fill="#F178B6"/>
<path d="M33.1538 39.0007C34.3333 39.0007 35.2895 38.0679 35.2895 36.9173C35.2895 35.7667 34.3333 34.834 33.1538 34.834C31.9743 34.834 31.0181 35.7667 31.0181 36.9173C31.0181 38.0679 31.9743 39.0007 33.1538 39.0007Z" fill="#F178B6"/>
</svg>
