<svg width="50" height="75" viewBox="0 0 50 75" fill="none" xmlns="http://www.w3.org/2000/svg">
<path d="M13.2013 60.8251H12.2821L13.1126 58.7331H14.0318L13.2013 60.8251ZM12.8209 71.1902C12.1151 71.1902 11.4918 71.0444 10.9508 70.7528C10.4098 70.4611 9.98507 70.0533 9.67655 69.5292C9.37225 69.0009 9.2201 68.3818 9.2201 67.6718V61.8775L10.3612 61.8711V67.5767C10.3612 68.0078 10.4331 68.3839 10.5768 68.7051C10.7247 69.0221 10.9191 69.2862 11.16 69.4975C11.4009 69.7089 11.665 69.8673 11.9524 69.973C12.244 70.0744 12.5336 70.1251 12.8209 70.1251C13.1126 70.1251 13.4042 70.0723 13.6958 69.9667C13.9874 69.861 14.2516 69.7046 14.4882 69.4975C14.7291 69.2862 14.9214 69.02 15.0651 68.6988C15.2088 68.3776 15.2807 68.0035 15.2807 67.5767V61.8711H16.4218V67.6718C16.4218 68.3776 16.2675 68.9946 15.959 69.5229C15.6547 70.0512 15.2321 70.4611 14.6911 70.7528C14.1501 71.0444 13.5267 71.1902 12.8209 71.1902ZM23.072 71V67.5703C23.072 67.2449 23.0424 66.9322 22.9833 66.6321C22.9283 66.332 22.829 66.0636 22.6853 65.827C22.5458 65.5861 22.3557 65.3959 22.1148 65.2564C21.8781 65.1169 21.578 65.0472 21.2145 65.0472C20.9314 65.0472 20.6736 65.0958 20.4411 65.193C20.2129 65.286 20.0164 65.4297 19.8516 65.6241C19.6867 65.8185 19.5578 66.0636 19.4648 66.3595C19.3761 66.6511 19.3317 66.9955 19.3317 67.3928L18.59 67.1646C18.59 66.5011 18.7083 65.9326 18.945 65.4593C19.1859 64.9817 19.5219 64.6161 19.953 64.3625C20.3883 64.1047 20.8997 63.9758 21.4871 63.9758C21.9309 63.9758 22.3092 64.0456 22.6219 64.185C22.9347 64.3245 23.1946 64.5105 23.4017 64.7429C23.6088 64.9711 23.7715 65.2289 23.8898 65.5163C24.0082 65.7995 24.0906 66.089 24.1371 66.3848C24.1878 66.6765 24.2131 66.9533 24.2131 67.2153V71H23.072ZM18.1906 71V64.1533H19.2049V65.9855H19.3317V71H18.1906ZM25.9881 62.9425V61.776H27.1165V62.9425H25.9881ZM25.9881 71V64.1533H27.1165V71H25.9881ZM31.9031 71.1902C31.21 71.1902 30.6205 71.0359 30.1344 70.7274C29.6526 70.4147 29.2849 69.9857 29.0314 69.4405C28.7778 68.8953 28.6468 68.274 28.6383 67.5767C28.6468 66.8624 28.7799 66.2348 29.0377 65.6938C29.2997 65.1486 29.6738 64.7239 30.1598 64.4196C30.6458 64.1153 31.2312 63.9631 31.9158 63.9631C32.6385 63.9631 33.2598 64.1407 33.7796 64.4957C34.3037 64.8507 34.6545 65.3367 34.832 65.9538L33.7162 66.2897C33.5726 65.8925 33.338 65.5839 33.0126 65.3642C32.6914 65.1444 32.3216 65.0345 31.9031 65.0345C31.434 65.0345 31.0473 65.1444 30.743 65.3642C30.4387 65.5797 30.2126 65.8798 30.0647 66.2644C29.9168 66.6448 29.8407 67.0822 29.8365 67.5767C29.8449 68.3374 30.0203 68.9523 30.3626 69.4215C30.7092 69.8864 31.2227 70.1188 31.9031 70.1188C32.3511 70.1188 32.7231 70.0174 33.0189 69.8145C33.3147 69.6074 33.5387 69.3095 33.6909 68.9206L34.832 69.2186C34.5953 69.8568 34.2255 70.3449 33.7226 70.683C33.2197 71.0211 32.6132 71.1902 31.9031 71.1902ZM38.8563 71.1902C38.1759 71.1902 37.5884 71.0359 37.0939 70.7274C36.6037 70.4189 36.2254 69.992 35.9591 69.4468C35.6929 68.9016 35.5598 68.2761 35.5598 67.5703C35.5598 66.8519 35.695 66.2221 35.9655 65.6812C36.236 65.1402 36.6185 64.7197 37.1129 64.4196C37.6074 64.1153 38.1885 63.9631 38.8563 63.9631C39.541 63.9631 40.1305 64.1174 40.625 64.4259C41.1195 64.7302 41.4978 65.155 41.7598 65.7002C42.0261 66.2411 42.1592 66.8645 42.1592 67.5703C42.1592 68.2846 42.0261 68.9143 41.7598 69.4595C41.4935 70.0005 41.1132 70.4252 40.6187 70.7337C40.1242 71.038 39.5367 71.1902 38.8563 71.1902ZM38.8563 70.1188C39.5663 70.1188 40.0946 69.8821 40.4412 69.4088C40.7877 68.9354 40.961 68.3226 40.961 67.5703C40.961 66.7969 40.7856 66.182 40.4348 65.7255C40.084 65.2649 39.5579 65.0345 38.8563 65.0345C38.3787 65.0345 37.9857 65.1423 37.6772 65.3578C37.3686 65.5734 37.1383 65.8713 36.9861 66.2517C36.834 66.6321 36.7579 67.0716 36.7579 67.5703C36.7579 68.3395 36.9354 68.9566 37.2904 69.4215C37.6455 69.8864 38.1674 70.1188 38.8563 70.1188Z" fill="#FF6968"/>
<circle cx="25" cy="25" r="25" fill="#FF6968" fill-opacity="0.19"/>
<path d="M22.3742 25.5001C23.6102 25.5001 24.8185 25.1336 25.8462 24.4468C26.8739 23.7601 27.6749 22.7839 28.1479 21.6419C28.6209 20.4998 28.7447 19.2431 28.5036 18.0307C28.2624 16.8184 27.6672 15.7047 26.7932 14.8306C25.9192 13.9565 24.8057 13.3613 23.5934 13.1201C22.3811 12.8789 21.1246 13.0027 19.9826 13.4758C18.8407 13.9488 17.8647 14.7499 17.178 15.7777C16.4913 16.8055 16.1247 18.0139 16.1247 19.2501C16.1264 20.9072 16.7853 22.496 17.957 23.6677C19.1286 24.8395 20.7172 25.4985 22.3742 25.5001ZM22.3742 15.0834C23.1982 15.0834 24.0037 15.3277 24.6889 15.7856C25.374 16.2434 25.908 16.8942 26.2234 17.6555C26.5387 18.4169 26.6212 19.2547 26.4604 20.063C26.2997 20.8712 25.9029 21.6137 25.3202 22.1964C24.7375 22.7791 23.9952 23.176 23.187 23.3367C22.3788 23.4975 21.5411 23.415 20.7798 23.0996C20.0185 22.7842 19.3678 22.2502 18.91 21.565C18.4522 20.8798 18.2079 20.0742 18.2079 19.2501C18.2079 18.145 18.6468 17.0852 19.4282 16.3038C20.2095 15.5224 21.2692 15.0834 22.3742 15.0834Z" fill="#FF6968"/>
<path d="M22.3742 27.5832C19.8889 27.5863 17.5063 28.575 15.749 30.3325C13.9916 32.09 13.003 34.4728 13 36.9583C13 37.2346 13.1097 37.4995 13.3051 37.6949C13.5004 37.8903 13.7653 38 14.0416 38C14.3178 38 14.5827 37.8903 14.7781 37.6949C14.9734 37.4995 15.0832 37.2346 15.0832 36.9583C15.0832 35.0244 15.8513 33.1698 17.2186 31.8023C18.586 30.4348 20.4405 29.6666 22.3742 29.6666C24.3079 29.6666 26.1624 30.4348 27.5297 31.8023C28.8971 33.1698 29.6652 35.0244 29.6652 36.9583C29.6652 37.2346 29.775 37.4995 29.9703 37.6949C30.1656 37.8903 30.4306 38 30.7068 38C30.983 38 31.248 37.8903 31.4433 37.6949C31.6386 37.4995 31.7484 37.2346 31.7484 36.9583C31.7453 34.4728 30.7567 32.09 28.9994 30.3325C27.242 28.575 24.8594 27.5863 22.3742 27.5832Z" fill="#FF6968"/>
<path d="M35.9146 21.2033C35.3349 21.2322 34.7903 21.4895 34.3999 21.919C34.0095 22.3485 33.8051 22.9151 33.8314 23.495C33.8578 22.9151 33.6534 22.3485 33.263 21.919C32.8726 21.4895 32.328 21.2322 31.7483 21.2033C31.1686 21.2322 30.624 21.4895 30.2336 21.919C29.8432 22.3485 29.6388 22.9151 29.6652 23.495C29.6652 25.2971 32.0149 27.4086 33.1857 28.3482C33.3689 28.4949 33.5967 28.5748 33.8314 28.5748C34.0662 28.5748 34.294 28.4949 34.4772 28.3482C35.648 27.4106 37.9977 25.2971 37.9977 23.495C38.0241 22.9151 37.8197 22.3485 37.4293 21.919C37.0389 21.4895 36.4942 21.2322 35.9146 21.2033Z" fill="#FF6968"/>
</svg>
