<svg width="70" height="70" viewBox="0 0 70 70" fill="none" xmlns="http://www.w3.org/2000/svg">
<circle cx="35" cy="35" r="35" fill="white"/>
<path d="M52 45C52 46.1046 51.1046 47 50 47H19C17.8954 47 17 46.1046 17 45C17 43.8954 17.8954 43 19 43H50C51.1046 43 52 43.8954 52 45ZM52 35C52 36.1046 51.1046 37 50 37H19C17.8954 37 17 36.1046 17 35C17 33.8954 17.8954 33 19 33H50C51.1046 33 52 33.8954 52 35ZM52 25C52 26.1046 51.1046 27 50 27H19C17.8954 27 17 26.1046 17 25C17 23.8954 17.8954 23 19 23H50C51.1046 23 52 23.8954 52 25Z" fill="#393C6A"/>
</svg>
